<svg version="1.1" xmlns="http://www.w3.org/2000/svg" viewBox="0 0 169.88767362790765 166.5067486588569" width="169.88767362790765" height="166.5067486588569">
  <!-- svg-source:excalidraw -->
  
  <defs>
    <style class="style-fonts">
      @font-face {
        font-family: "Virgil";
        src: url("https://excalidraw.com/Virgil.woff2");
      }
      @font-face {
        font-family: "Cascadia";
        src: url("https://excalidraw.com/Cascadia.woff2");
      }
    </style>
    
  </defs>
  <g stroke-linecap="round" transform="translate(22.39672488651877 20.706262401993456) rotate(0 62.547111927435054 62.547111927435026)"><path d="M125.09 62.55 C125.09 65.06, 124.94 67.59, 124.64 70.09 C124.34 72.58, 123.88 75.08, 123.28 77.52 C122.68 79.96, 121.92 82.38, 121.03 84.73 C120.14 87.08, 119.1 89.39, 117.93 91.61 C116.76 93.84, 115.45 96.01, 114.02 98.08 C112.59 100.15, 111.03 102.14, 109.36 104.02 C107.7 105.9, 105.9 107.7, 104.02 109.36 C102.14 111.03, 100.15 112.59, 98.08 114.02 C96.01 115.45, 93.84 116.76, 91.61 117.93 C89.39 119.1, 87.08 120.14, 84.73 121.03 C82.38 121.92, 79.96 122.68, 77.52 123.28 C75.08 123.88, 72.58 124.34, 70.09 124.64 C67.59 124.94, 65.06 125.09, 62.55 125.09 C60.03 125.09, 57.5 124.94, 55.01 124.64 C52.51 124.34, 50.02 123.88, 47.58 123.28 C45.14 122.68, 42.72 121.92, 40.37 121.03 C38.02 120.14, 35.71 119.1, 33.48 117.93 C31.25 116.76, 29.08 115.45, 27.02 114.02 C24.95 112.59, 22.95 111.03, 21.07 109.36 C19.19 107.7, 17.4 105.9, 15.73 104.02 C14.06 102.14, 12.5 100.15, 11.07 98.08 C9.64 96.01, 8.33 93.84, 7.16 91.61 C6 89.39, 4.96 87.08, 4.06 84.73 C3.17 82.38, 2.42 79.96, 1.82 77.52 C1.22 75.08, 0.76 72.58, 0.46 70.09 C0.15 67.59, 0 65.06, 0 62.55 C0 60.03, 0.15 57.5, 0.46 55.01 C0.76 52.51, 1.22 50.02, 1.82 47.58 C2.42 45.14, 3.17 42.72, 4.06 40.37 C4.96 38.02, 6 35.71, 7.16 33.48 C8.33 31.25, 9.64 29.08, 11.07 27.02 C12.5 24.95, 14.06 22.95, 15.73 21.07 C17.4 19.19, 19.19 17.4, 21.07 15.73 C22.95 14.06, 24.95 12.5, 27.02 11.07 C29.08 9.64, 31.25 8.33, 33.48 7.16 C35.71 6, 38.02 4.96, 40.37 4.06 C42.72 3.17, 45.14 2.42, 47.58 1.82 C50.02 1.22, 52.51 0.76, 55.01 0.46 C57.5 0.15, 60.03 0, 62.55 0 C65.06 0, 67.59 0.15, 70.09 0.46 C72.58 0.76, 75.08 1.22, 77.52 1.82 C79.96 2.42, 82.38 3.17, 84.73 4.06 C87.08 4.96, 89.39 6, 91.61 7.16 C93.84 8.33, 96.01 9.64, 98.08 11.07 C100.15 12.5, 102.14 14.06, 104.02 15.73 C105.9 17.4, 107.7 19.19, 109.36 21.07 C111.03 22.95, 112.59 24.95, 114.02 27.02 C115.45 29.08, 116.76 31.25, 117.93 33.48 C119.1 35.71, 120.14 38.02, 121.03 40.37 C121.92 42.72, 122.68 45.14, 123.28 47.58 C123.88 50.02, 124.34 52.51, 124.64 55.01 C124.94 57.5, 125.09 60.03, 125.09 62.55" stroke="#69db7c" stroke-width="4" fill="none"></path></g><g stroke-linecap="round" transform="translate(71.98362443259333 130.58632389613598) rotate(0 12.960212381360463 12.960212381360463)"><path d="M25.92 12.96 C25.92 13.71, 25.85 14.47, 25.72 15.21 C25.59 15.95, 25.4 16.69, 25.14 17.39 C24.88 18.1, 24.56 18.79, 24.18 19.44 C23.81 20.09, 23.37 20.72, 22.89 21.29 C22.41 21.87, 21.87 22.41, 21.29 22.89 C20.72 23.37, 20.09 23.81, 19.44 24.18 C18.79 24.56, 18.1 24.88, 17.39 25.14 C16.69 25.4, 15.95 25.59, 15.21 25.72 C14.47 25.85, 13.71 25.92, 12.96 25.92 C12.21 25.92, 11.45 25.85, 10.71 25.72 C9.97 25.59, 9.23 25.4, 8.53 25.14 C7.82 24.88, 7.13 24.56, 6.48 24.18 C5.83 23.81, 5.2 23.37, 4.63 22.89 C4.05 22.41, 3.51 21.87, 3.03 21.29 C2.55 20.72, 2.11 20.09, 1.74 19.44 C1.36 18.79, 1.04 18.1, 0.78 17.39 C0.53 16.69, 0.33 15.95, 0.2 15.21 C0.07 14.47, 0 13.71, 0 12.96 C0 12.21, 0.07 11.45, 0.2 10.71 C0.33 9.97, 0.53 9.23, 0.78 8.53 C1.04 7.82, 1.36 7.13, 1.74 6.48 C2.11 5.83, 2.55 5.2, 3.03 4.63 C3.51 4.05, 4.05 3.51, 4.63 3.03 C5.2 2.55, 5.83 2.11, 6.48 1.74 C7.13 1.36, 7.82 1.04, 8.53 0.78 C9.23 0.53, 9.97 0.33, 10.71 0.2 C11.45 0.07, 12.21 0, 12.96 0 C13.71 0, 14.47 0.07, 15.21 0.2 C15.95 0.33, 16.69 0.53, 17.39 0.78 C18.1 1.04, 18.79 1.36, 19.44 1.74 C20.09 2.11, 20.72 2.55, 21.29 3.03 C21.87 3.51, 22.41 4.05, 22.89 4.63 C23.37 5.2, 23.81 5.83, 24.18 6.48 C24.56 7.13, 24.88 7.82, 25.14 8.53 C25.4 9.23, 25.59 9.97, 25.72 10.71 C25.85 11.45, 25.89 12.59, 25.92 12.96 C25.95 13.34, 25.95 12.59, 25.92 12.96" stroke="none" stroke-width="0" fill="#69db7c"></path><path d="M25.92 12.96 C25.92 13.71, 25.85 14.47, 25.72 15.21 C25.59 15.95, 25.4 16.69, 25.14 17.39 C24.88 18.1, 24.56 18.79, 24.18 19.44 C23.81 20.09, 23.37 20.72, 22.89 21.29 C22.41 21.87, 21.87 22.41, 21.29 22.89 C20.72 23.37, 20.09 23.81, 19.44 24.18 C18.79 24.56, 18.1 24.88, 17.39 25.14 C16.69 25.4, 15.95 25.59, 15.21 25.72 C14.47 25.85, 13.71 25.92, 12.96 25.92 C12.21 25.92, 11.45 25.85, 10.71 25.72 C9.97 25.59, 9.23 25.4, 8.53 25.14 C7.82 24.88, 7.13 24.56, 6.48 24.18 C5.83 23.81, 5.2 23.37, 4.63 22.89 C4.05 22.41, 3.51 21.87, 3.03 21.29 C2.55 20.72, 2.11 20.09, 1.74 19.44 C1.36 18.79, 1.04 18.1, 0.78 17.39 C0.53 16.69, 0.33 15.95, 0.2 15.21 C0.07 14.47, 0 13.71, 0 12.96 C0 12.21, 0.07 11.45, 0.2 10.71 C0.33 9.97, 0.53 9.23, 0.78 8.53 C1.04 7.82, 1.36 7.13, 1.74 6.48 C2.11 5.83, 2.55 5.2, 3.03 4.63 C3.51 4.05, 4.05 3.51, 4.63 3.03 C5.2 2.55, 5.83 2.11, 6.48 1.74 C7.13 1.36, 7.82 1.04, 8.53 0.78 C9.23 0.53, 9.97 0.33, 10.71 0.2 C11.45 0.07, 12.21 0, 12.96 0 C13.71 0, 14.47 0.07, 15.21 0.2 C15.95 0.33, 16.69 0.53, 17.39 0.78 C18.1 1.04, 18.79 1.36, 19.44 1.74 C20.09 2.11, 20.72 2.55, 21.29 3.03 C21.87 3.51, 22.41 4.05, 22.89 4.63 C23.37 5.2, 23.81 5.83, 24.18 6.48 C24.56 7.13, 24.88 7.82, 25.14 8.53 C25.4 9.23, 25.59 9.97, 25.72 10.71 C25.85 11.45, 25.89 12.59, 25.92 12.96 C25.95 13.34, 25.95 12.59, 25.92 12.96" stroke="#69db7c" stroke-width="4" fill="none"></path></g><g stroke-linecap="round" transform="translate(71.98362443259333 10) rotate(0 12.960212381360463 12.960212381360463)"><path d="M25.92 12.96 C25.92 13.71, 25.85 14.47, 25.72 15.21 C25.59 15.95, 25.4 16.69, 25.14 17.39 C24.88 18.1, 24.56 18.79, 24.18 19.44 C23.81 20.09, 23.37 20.72, 22.89 21.29 C22.41 21.87, 21.87 22.41, 21.29 22.89 C20.72 23.37, 20.09 23.81, 19.44 24.18 C18.79 24.56, 18.1 24.88, 17.39 25.14 C16.69 25.4, 15.95 25.59, 15.21 25.72 C14.47 25.85, 13.71 25.92, 12.96 25.92 C12.21 25.92, 11.45 25.85, 10.71 25.72 C9.97 25.59, 9.23 25.4, 8.53 25.14 C7.82 24.88, 7.13 24.56, 6.48 24.18 C5.83 23.81, 5.2 23.37, 4.63 22.89 C4.05 22.41, 3.51 21.87, 3.03 21.29 C2.55 20.72, 2.11 20.09, 1.74 19.44 C1.36 18.79, 1.04 18.1, 0.78 17.39 C0.53 16.69, 0.33 15.95, 0.2 15.21 C0.07 14.47, 0 13.71, 0 12.96 C0 12.21, 0.07 11.45, 0.2 10.71 C0.33 9.97, 0.53 9.23, 0.78 8.53 C1.04 7.82, 1.36 7.13, 1.74 6.48 C2.11 5.83, 2.55 5.2, 3.03 4.63 C3.51 4.05, 4.05 3.51, 4.63 3.03 C5.2 2.55, 5.83 2.11, 6.48 1.74 C7.13 1.36, 7.82 1.04, 8.53 0.78 C9.23 0.53, 9.97 0.33, 10.71 0.2 C11.45 0.07, 12.21 0, 12.96 0 C13.71 0, 14.47 0.07, 15.21 0.2 C15.95 0.33, 16.69 0.53, 17.39 0.78 C18.1 1.04, 18.79 1.36, 19.44 1.74 C20.09 2.11, 20.72 2.55, 21.29 3.03 C21.87 3.51, 22.41 4.05, 22.89 4.63 C23.37 5.2, 23.81 5.83, 24.18 6.48 C24.56 7.13, 24.88 7.82, 25.14 8.53 C25.4 9.23, 25.59 9.97, 25.72 10.71 C25.85 11.45, 25.89 12.59, 25.92 12.96 C25.95 13.34, 25.95 12.59, 25.92 12.96" stroke="none" stroke-width="0" fill="#69db7c"></path><path d="M25.92 12.96 C25.92 13.71, 25.85 14.47, 25.72 15.21 C25.59 15.95, 25.4 16.69, 25.14 17.39 C24.88 18.1, 24.56 18.79, 24.18 19.44 C23.81 20.09, 23.37 20.72, 22.89 21.29 C22.41 21.87, 21.87 22.41, 21.29 22.89 C20.72 23.37, 20.09 23.81, 19.44 24.18 C18.79 24.56, 18.1 24.88, 17.39 25.14 C16.69 25.4, 15.95 25.59, 15.21 25.72 C14.47 25.85, 13.71 25.92, 12.96 25.92 C12.21 25.92, 11.45 25.85, 10.71 25.72 C9.97 25.59, 9.23 25.4, 8.53 25.14 C7.82 24.88, 7.13 24.56, 6.48 24.18 C5.83 23.81, 5.2 23.37, 4.63 22.89 C4.05 22.41, 3.51 21.87, 3.03 21.29 C2.55 20.72, 2.11 20.09, 1.74 19.44 C1.36 18.79, 1.04 18.1, 0.78 17.39 C0.53 16.69, 0.33 15.95, 0.2 15.21 C0.07 14.47, 0 13.71, 0 12.96 C0 12.21, 0.07 11.45, 0.2 10.71 C0.33 9.97, 0.53 9.23, 0.78 8.53 C1.04 7.82, 1.36 7.13, 1.74 6.48 C2.11 5.83, 2.55 5.2, 3.03 4.63 C3.51 4.05, 4.05 3.51, 4.63 3.03 C5.2 2.55, 5.83 2.11, 6.48 1.74 C7.13 1.36, 7.82 1.04, 8.53 0.78 C9.23 0.53, 9.97 0.33, 10.71 0.2 C11.45 0.07, 12.21 0, 12.96 0 C13.71 0, 14.47 0.07, 15.21 0.2 C15.95 0.33, 16.69 0.53, 17.39 0.78 C18.1 1.04, 18.79 1.36, 19.44 1.74 C20.09 2.11, 20.72 2.55, 21.29 3.03 C21.87 3.51, 22.41 4.05, 22.89 4.63 C23.37 5.2, 23.81 5.83, 24.18 6.48 C24.56 7.13, 24.88 7.82, 25.14 8.53 C25.4 9.23, 25.59 9.97, 25.72 10.71 C25.85 11.45, 25.89 12.59, 25.92 12.96 C25.95 13.34, 25.95 12.59, 25.92 12.96" stroke="#69db7c" stroke-width="4" fill="none"></path></g><g stroke-linecap="round" transform="translate(133.9672488651866 70.29316194806796) rotate(0 12.960212381360463 12.960212381360463)"><path d="M25.92 12.96 C25.92 13.71, 25.85 14.47, 25.72 15.21 C25.59 15.95, 25.4 16.69, 25.14 17.39 C24.88 18.1, 24.56 18.79, 24.18 19.44 C23.81 20.09, 23.37 20.72, 22.89 21.29 C22.41 21.87, 21.87 22.41, 21.29 22.89 C20.72 23.37, 20.09 23.81, 19.44 24.18 C18.79 24.56, 18.1 24.88, 17.39 25.14 C16.69 25.4, 15.95 25.59, 15.21 25.72 C14.47 25.85, 13.71 25.92, 12.96 25.92 C12.21 25.92, 11.45 25.85, 10.71 25.72 C9.97 25.59, 9.23 25.4, 8.53 25.14 C7.82 24.88, 7.13 24.56, 6.48 24.18 C5.83 23.81, 5.2 23.37, 4.63 22.89 C4.05 22.41, 3.51 21.87, 3.03 21.29 C2.55 20.72, 2.11 20.09, 1.74 19.44 C1.36 18.79, 1.04 18.1, 0.78 17.39 C0.53 16.69, 0.33 15.95, 0.2 15.21 C0.07 14.47, 0 13.71, 0 12.96 C0 12.21, 0.07 11.45, 0.2 10.71 C0.33 9.97, 0.53 9.23, 0.78 8.53 C1.04 7.82, 1.36 7.13, 1.74 6.48 C2.11 5.83, 2.55 5.2, 3.03 4.63 C3.51 4.05, 4.05 3.51, 4.63 3.03 C5.2 2.55, 5.83 2.11, 6.48 1.74 C7.13 1.36, 7.82 1.04, 8.53 0.78 C9.23 0.53, 9.97 0.33, 10.71 0.2 C11.45 0.07, 12.21 0, 12.96 0 C13.71 0, 14.47 0.07, 15.21 0.2 C15.95 0.33, 16.69 0.53, 17.39 0.78 C18.1 1.04, 18.79 1.36, 19.44 1.74 C20.09 2.11, 20.72 2.55, 21.29 3.03 C21.87 3.51, 22.41 4.05, 22.89 4.63 C23.37 5.2, 23.81 5.83, 24.18 6.48 C24.56 7.13, 24.88 7.82, 25.14 8.53 C25.4 9.23, 25.59 9.97, 25.72 10.71 C25.85 11.45, 25.89 12.59, 25.92 12.96 C25.95 13.34, 25.95 12.59, 25.92 12.96" stroke="none" stroke-width="0" fill="#69db7c"></path><path d="M25.92 12.96 C25.92 13.71, 25.85 14.47, 25.72 15.21 C25.59 15.95, 25.4 16.69, 25.14 17.39 C24.88 18.1, 24.56 18.79, 24.18 19.44 C23.81 20.09, 23.37 20.72, 22.89 21.29 C22.41 21.87, 21.87 22.41, 21.29 22.89 C20.72 23.37, 20.09 23.81, 19.44 24.18 C18.79 24.56, 18.1 24.88, 17.39 25.14 C16.69 25.4, 15.95 25.59, 15.21 25.72 C14.47 25.85, 13.71 25.92, 12.96 25.92 C12.21 25.92, 11.45 25.85, 10.71 25.72 C9.97 25.59, 9.23 25.4, 8.53 25.14 C7.82 24.88, 7.13 24.56, 6.48 24.18 C5.83 23.81, 5.2 23.37, 4.63 22.89 C4.05 22.41, 3.51 21.87, 3.03 21.29 C2.55 20.72, 2.11 20.09, 1.74 19.44 C1.36 18.79, 1.04 18.1, 0.78 17.39 C0.53 16.69, 0.33 15.95, 0.2 15.21 C0.07 14.47, 0 13.71, 0 12.96 C0 12.21, 0.07 11.45, 0.2 10.71 C0.33 9.97, 0.53 9.23, 0.78 8.53 C1.04 7.82, 1.36 7.13, 1.74 6.48 C2.11 5.83, 2.55 5.2, 3.03 4.63 C3.51 4.05, 4.05 3.51, 4.63 3.03 C5.2 2.55, 5.83 2.11, 6.48 1.74 C7.13 1.36, 7.82 1.04, 8.53 0.78 C9.23 0.53, 9.97 0.33, 10.71 0.2 C11.45 0.07, 12.21 0, 12.96 0 C13.71 0, 14.47 0.07, 15.21 0.2 C15.95 0.33, 16.69 0.53, 17.39 0.78 C18.1 1.04, 18.79 1.36, 19.44 1.74 C20.09 2.11, 20.72 2.55, 21.29 3.03 C21.87 3.51, 22.41 4.05, 22.89 4.63 C23.37 5.2, 23.81 5.83, 24.18 6.48 C24.56 7.13, 24.88 7.82, 25.14 8.53 C25.4 9.23, 25.59 9.97, 25.72 10.71 C25.85 11.45, 25.89 12.59, 25.92 12.96 C25.95 13.34, 25.95 12.59, 25.92 12.96" stroke="#69db7c" stroke-width="4" fill="none"></path></g><g stroke-linecap="round" transform="translate(10 70.29316194806796) rotate(0 12.960212381360463 12.960212381360463)"><path d="M25.92 12.96 C25.92 13.71, 25.85 14.47, 25.72 15.21 C25.59 15.95, 25.4 16.69, 25.14 17.39 C24.88 18.1, 24.56 18.79, 24.18 19.44 C23.81 20.09, 23.37 20.72, 22.89 21.29 C22.41 21.87, 21.87 22.41, 21.29 22.89 C20.72 23.37, 20.09 23.81, 19.44 24.18 C18.79 24.56, 18.1 24.88, 17.39 25.14 C16.69 25.4, 15.95 25.59, 15.21 25.72 C14.47 25.85, 13.71 25.92, 12.96 25.92 C12.21 25.92, 11.45 25.85, 10.71 25.72 C9.97 25.59, 9.23 25.4, 8.53 25.14 C7.82 24.88, 7.13 24.56, 6.48 24.18 C5.83 23.81, 5.2 23.37, 4.63 22.89 C4.05 22.41, 3.51 21.87, 3.03 21.29 C2.55 20.72, 2.11 20.09, 1.74 19.44 C1.36 18.79, 1.04 18.1, 0.78 17.39 C0.53 16.69, 0.33 15.95, 0.2 15.21 C0.07 14.47, 0 13.71, 0 12.96 C0 12.21, 0.07 11.45, 0.2 10.71 C0.33 9.97, 0.53 9.23, 0.78 8.53 C1.04 7.82, 1.36 7.13, 1.74 6.48 C2.11 5.83, 2.55 5.2, 3.03 4.63 C3.51 4.05, 4.05 3.51, 4.63 3.03 C5.2 2.55, 5.83 2.11, 6.48 1.74 C7.13 1.36, 7.82 1.04, 8.53 0.78 C9.23 0.53, 9.97 0.33, 10.71 0.2 C11.45 0.07, 12.21 0, 12.96 0 C13.71 0, 14.47 0.07, 15.21 0.2 C15.95 0.33, 16.69 0.53, 17.39 0.78 C18.1 1.04, 18.79 1.36, 19.44 1.74 C20.09 2.11, 20.72 2.55, 21.29 3.03 C21.87 3.51, 22.41 4.05, 22.89 4.63 C23.37 5.2, 23.81 5.83, 24.18 6.48 C24.56 7.13, 24.88 7.82, 25.14 8.53 C25.4 9.23, 25.59 9.97, 25.72 10.71 C25.85 11.45, 25.89 12.59, 25.92 12.96 C25.95 13.34, 25.95 12.59, 25.92 12.96" stroke="none" stroke-width="0" fill="#69db7c"></path><path d="M25.92 12.96 C25.92 13.71, 25.85 14.47, 25.72 15.21 C25.59 15.95, 25.4 16.69, 25.14 17.39 C24.88 18.1, 24.56 18.79, 24.18 19.44 C23.81 20.09, 23.37 20.72, 22.89 21.29 C22.41 21.87, 21.87 22.41, 21.29 22.89 C20.72 23.37, 20.09 23.81, 19.44 24.18 C18.79 24.56, 18.1 24.88, 17.39 25.14 C16.69 25.4, 15.95 25.59, 15.21 25.72 C14.47 25.85, 13.71 25.92, 12.96 25.92 C12.21 25.92, 11.45 25.85, 10.71 25.72 C9.97 25.59, 9.23 25.4, 8.53 25.14 C7.82 24.88, 7.13 24.56, 6.48 24.18 C5.83 23.81, 5.2 23.37, 4.63 22.89 C4.05 22.41, 3.51 21.87, 3.03 21.29 C2.55 20.72, 2.11 20.09, 1.74 19.44 C1.36 18.79, 1.04 18.1, 0.78 17.39 C0.53 16.69, 0.33 15.95, 0.2 15.21 C0.07 14.47, 0 13.71, 0 12.96 C0 12.21, 0.07 11.45, 0.2 10.71 C0.33 9.97, 0.53 9.23, 0.78 8.53 C1.04 7.82, 1.36 7.13, 1.74 6.48 C2.11 5.83, 2.55 5.2, 3.03 4.63 C3.51 4.05, 4.05 3.51, 4.63 3.03 C5.2 2.55, 5.83 2.11, 6.48 1.74 C7.13 1.36, 7.82 1.04, 8.53 0.78 C9.23 0.53, 9.97 0.33, 10.71 0.2 C11.45 0.07, 12.21 0, 12.96 0 C13.71 0, 14.47 0.07, 15.21 0.2 C15.95 0.33, 16.69 0.53, 17.39 0.78 C18.1 1.04, 18.79 1.36, 19.44 1.74 C20.09 2.11, 20.72 2.55, 21.29 3.03 C21.87 3.51, 22.41 4.05, 22.89 4.63 C23.37 5.2, 23.81 5.83, 24.18 6.48 C24.56 7.13, 24.88 7.82, 25.14 8.53 C25.4 9.23, 25.59 9.97, 25.72 10.71 C25.85 11.45, 25.89 12.59, 25.92 12.96 C25.95 13.34, 25.95 12.59, 25.92 12.96" stroke="#69db7c" stroke-width="4" fill="none"></path></g></svg>