<svg version="1.1" xmlns="http://www.w3.org/2000/svg" viewBox="0 0 88.88836699827652 98.90849310711644" width="88.88836699827652" height="98.90849310711644">
  <!-- svg-source:excalidraw -->
  
  <defs>
    <style class="style-fonts">
      @font-face {
        font-family: "Virgil";
        src: url("https://excalidraw.com/Virgil.woff2");
      }
      @font-face {
        font-family: "Cascadia";
        src: url("https://excalidraw.com/Cascadia.woff2");
      }
    </style>
    
  </defs>
  <g stroke-linecap="round" transform="translate(10.000000000000114 20.02012610884009) rotate(0 34.444183499138205 34.44418349913818)"><path d="M68.89 34.44 C68.89 36.24, 68.75 38.06, 68.46 39.83 C68.18 41.61, 67.76 43.38, 67.2 45.09 C66.65 46.8, 65.95 48.48, 65.13 50.08 C64.32 51.68, 63.37 53.24, 62.31 54.69 C61.25 56.14, 60.07 57.53, 58.8 58.8 C57.53 60.07, 56.14 61.25, 54.69 62.31 C53.24 63.37, 51.68 64.32, 50.08 65.13 C48.48 65.95, 46.8 66.65, 45.09 67.2 C43.38 67.76, 41.61 68.18, 39.83 68.46 C38.06 68.75, 36.24 68.89, 34.44 68.89 C32.65 68.89, 30.83 68.75, 29.06 68.46 C27.28 68.18, 25.51 67.76, 23.8 67.2 C22.09 66.65, 20.41 65.95, 18.81 65.13 C17.21 64.32, 15.65 63.37, 14.2 62.31 C12.75 61.25, 11.36 60.07, 10.09 58.8 C8.82 57.53, 7.63 56.14, 6.58 54.69 C5.52 53.24, 4.57 51.68, 3.75 50.08 C2.94 48.48, 2.24 46.8, 1.69 45.09 C1.13 43.38, 0.71 41.61, 0.42 39.83 C0.14 38.06, 0 36.24, 0 34.44 C0 32.65, 0.14 30.83, 0.42 29.06 C0.71 27.28, 1.13 25.51, 1.69 23.8 C2.24 22.09, 2.94 20.41, 3.75 18.81 C4.57 17.21, 5.52 15.65, 6.58 14.2 C7.63 12.75, 8.82 11.36, 10.09 10.09 C11.36 8.82, 12.75 7.63, 14.2 6.58 C15.65 5.52, 17.21 4.57, 18.81 3.75 C20.41 2.94, 22.09 2.24, 23.8 1.69 C25.51 1.13, 27.28 0.71, 29.06 0.42 C30.83 0.14, 32.65 0, 34.44 0 C36.24 0, 38.06 0.14, 39.83 0.42 C41.61 0.71, 43.38 1.13, 45.09 1.69 C46.8 2.24, 48.48 2.94, 50.08 3.75 C51.68 4.57, 53.24 5.52, 54.69 6.58 C56.14 7.63, 57.53 8.82, 58.8 10.09 C60.07 11.36, 61.25 12.75, 62.31 14.2 C63.37 15.65, 64.32 17.21, 65.13 18.81 C65.95 20.41, 66.65 22.09, 67.2 23.8 C67.76 25.51, 68.18 27.28, 68.46 29.06 C68.75 30.83, 68.82 33.55, 68.89 34.44 C68.96 35.34, 68.96 33.55, 68.89 34.44" stroke="#2f9e44" stroke-width="4" fill="none"></path></g><g stroke-linecap="round" transform="translate(35.05031527210053 10) rotate(0 9.393868227037729 9.393868227037729)"><path d="M18.79 9.39 C18.79 9.94, 18.74 10.49, 18.65 11.03 C18.55 11.56, 18.41 12.1, 18.22 12.61 C18.04 13.12, 17.8 13.62, 17.53 14.09 C17.26 14.56, 16.94 15.02, 16.59 15.43 C16.24 15.85, 15.85 16.24, 15.43 16.59 C15.02 16.94, 14.56 17.26, 14.09 17.53 C13.62 17.8, 13.12 18.04, 12.61 18.22 C12.1 18.41, 11.56 18.55, 11.03 18.65 C10.49 18.74, 9.94 18.79, 9.39 18.79 C8.85 18.79, 8.3 18.74, 7.76 18.65 C7.23 18.55, 6.69 18.41, 6.18 18.22 C5.67 18.04, 5.17 17.8, 4.7 17.53 C4.23 17.26, 3.77 16.94, 3.36 16.59 C2.94 16.24, 2.55 15.85, 2.2 15.43 C1.85 15.02, 1.53 14.56, 1.26 14.09 C0.99 13.62, 0.75 13.12, 0.57 12.61 C0.38 12.1, 0.24 11.56, 0.14 11.03 C0.05 10.49, 0 9.94, 0 9.39 C0 8.85, 0.05 8.3, 0.14 7.76 C0.24 7.23, 0.38 6.69, 0.57 6.18 C0.75 5.67, 0.99 5.17, 1.26 4.7 C1.53 4.23, 1.85 3.77, 2.2 3.36 C2.55 2.94, 2.94 2.55, 3.36 2.2 C3.77 1.85, 4.23 1.53, 4.7 1.26 C5.17 0.99, 5.67 0.75, 6.18 0.57 C6.69 0.38, 7.23 0.24, 7.76 0.14 C8.3 0.05, 8.85 0, 9.39 0 C9.94 0, 10.49 0.05, 11.03 0.14 C11.56 0.24, 12.1 0.38, 12.61 0.57 C13.12 0.75, 13.62 0.99, 14.09 1.26 C14.56 1.53, 15.02 1.85, 15.43 2.2 C15.85 2.55, 16.24 2.94, 16.59 3.36 C16.94 3.77, 17.26 4.23, 17.53 4.7 C17.8 5.17, 18.04 5.67, 18.22 6.18 C18.41 6.69, 18.55 7.23, 18.65 7.76 C18.74 8.3, 18.76 9.12, 18.79 9.39 C18.81 9.67, 18.81 9.12, 18.79 9.39" stroke="none" stroke-width="0" fill="#2f9e44"></path><path d="M18.79 9.39 C18.79 9.94, 18.74 10.49, 18.65 11.03 C18.55 11.56, 18.41 12.1, 18.22 12.61 C18.04 13.12, 17.8 13.62, 17.53 14.09 C17.26 14.56, 16.94 15.02, 16.59 15.43 C16.24 15.85, 15.85 16.24, 15.43 16.59 C15.02 16.94, 14.56 17.26, 14.09 17.53 C13.62 17.8, 13.12 18.04, 12.61 18.22 C12.1 18.41, 11.56 18.55, 11.03 18.65 C10.49 18.74, 9.94 18.79, 9.39 18.79 C8.85 18.79, 8.3 18.74, 7.76 18.65 C7.23 18.55, 6.69 18.41, 6.18 18.22 C5.67 18.04, 5.17 17.8, 4.7 17.53 C4.23 17.26, 3.77 16.94, 3.36 16.59 C2.94 16.24, 2.55 15.85, 2.2 15.43 C1.85 15.02, 1.53 14.56, 1.26 14.09 C0.99 13.62, 0.75 13.12, 0.57 12.61 C0.38 12.1, 0.24 11.56, 0.14 11.03 C0.05 10.49, 0 9.94, 0 9.39 C0 8.85, 0.05 8.3, 0.14 7.76 C0.24 7.23, 0.38 6.69, 0.57 6.18 C0.75 5.67, 0.99 5.17, 1.26 4.7 C1.53 4.23, 1.85 3.77, 2.2 3.36 C2.55 2.94, 2.94 2.55, 3.36 2.2 C3.77 1.85, 4.23 1.53, 4.7 1.26 C5.17 0.99, 5.67 0.75, 6.18 0.57 C6.69 0.38, 7.23 0.24, 7.76 0.14 C8.3 0.05, 8.85 0, 9.39 0 C9.94 0, 10.49 0.05, 11.03 0.14 C11.56 0.24, 12.1 0.38, 12.61 0.57 C13.12 0.75, 13.62 0.99, 14.09 1.26 C14.56 1.53, 15.02 1.85, 15.43 2.2 C15.85 2.55, 16.24 2.94, 16.59 3.36 C16.94 3.77, 17.26 4.23, 17.53 4.7 C17.8 5.17, 18.04 5.67, 18.22 6.18 C18.41 6.69, 18.55 7.23, 18.65 7.76 C18.74 8.3, 18.76 9.12, 18.79 9.39 C18.81 9.67, 18.81 9.12, 18.79 9.39" stroke="#2f9e44" stroke-width="4" fill="none"></path></g></svg>