<svg version="1.1" xmlns="http://www.w3.org/2000/svg" viewBox="0 0 156.86817471096765 268.88110202058067" width="156.86817471096765" height="268.88110202058067">
  <!-- svg-source:excalidraw -->
  
  <defs>
    <style class="style-fonts">
      @font-face {
        font-family: "Virgil";
        src: url("https://excalidraw.com/Virgil.woff2");
      }
      @font-face {
        font-family: "Cascadia";
        src: url("https://excalidraw.com/Cascadia.woff2");
      }
    </style>
    
  </defs>
  <g stroke-linecap="round"><g transform="translate(80.65390142554656 63.25959912338385) rotate(0 -1.4736655821706677 80.72181755472468)" fill-rule="evenodd"><path d="M0 0 L-46.69 34.12 L-45.79 136.47 L-2.54 161.44 L43.74 134.72 L43.74 33.67 L0 0" stroke="none" stroke-width="0" fill="#a5d8ff" fill-rule="evenodd"></path><path d="M0 0 C-15.15 11.07, -30.31 22.15, -46.69 34.12 M0 0 C-14.49 10.59, -28.97 21.17, -46.69 34.12 M-46.69 34.12 C-46.42 64.73, -46.15 95.34, -45.79 136.47 M-46.69 34.12 C-46.36 72.12, -46.02 110.11, -45.79 136.47 M-45.79 136.47 C-35.53 142.4, -25.27 148.32, -2.54 161.44 M-45.79 136.47 C-35.8 142.24, -25.81 148.01, -2.54 161.44 M-2.54 161.44 C10.82 153.73, 24.19 146.01, 43.74 134.72 M-2.54 161.44 C13.73 152.05, 30.01 142.65, 43.74 134.72 M43.74 134.72 C43.74 96.01, 43.74 57.29, 43.74 33.67 M43.74 134.72 C43.74 98.46, 43.74 62.2, 43.74 33.67 M43.74 33.67 C33.13 25.5, 22.52 17.34, 0 0 M43.74 33.67 C33.71 25.95, 23.67 18.22, 0 0 M0 0 C0 0, 0 0, 0 0 M0 0 C0 0, 0 0, 0 0" stroke="#1e1e1e" stroke-width="1" fill="none"></path></g></g><mask></mask><g stroke-linecap="round"><g transform="translate(56.411649775635965 231.15963832832188) rotate(0 22.447608864928895 13.407483022196516)" fill-rule="evenodd"><path d="M0 0 L45.79 0 L54.77 26.81 L-9.88 26.81 L0 0" stroke="none" stroke-width="0" fill="#868e96" fill-rule="evenodd"></path><path d="M0 0 C18.24 0, 36.48 0, 45.79 0 M0 0 C15.84 0, 31.67 0, 45.79 0 M45.79 0 C48.2 7.2, 50.62 14.41, 54.77 26.81 M45.79 0 C49.24 10.29, 52.69 20.59, 54.77 26.81 M54.77 26.81 C37.42 26.81, 20.06 26.81, -9.88 26.81 M54.77 26.81 C34.44 26.81, 14.1 26.81, -9.88 26.81 M-9.88 26.81 C-7.53 20.44, -5.18 14.07, 0 0 M-9.88 26.81 C-6.51 17.67, -3.14 8.53, 0 0 M0 0 C0 0, 0 0, 0 0 M0 0 C0 0, 0 0, 0 0" stroke="#1e1e1e" stroke-width="1" fill="none"></path></g></g><mask></mask><g stroke-linecap="round"><g transform="translate(61.149318608932504 230.3222117171906) rotate(0 17.26046966579497 3.8325292039069723)" fill-rule="evenodd"><path d="M0 0 L40.7 0 L48.69 7.67 L-14.17 7.67 L-6.48 -0.01" stroke="none" stroke-width="0" fill="#343a40" fill-rule="evenodd"></path><path d="M0 0 C14.44 0, 28.88 0, 40.7 0 M0 0 C15.18 0, 30.36 0, 40.7 0 M40.7 0 C43.65 2.84, 46.61 5.68, 48.69 7.67 M40.7 0 C43.84 3.01, 46.98 6.03, 48.69 7.67 M48.69 7.67 C36.07 7.67, 23.45 7.67, -14.17 7.67 M48.69 7.67 C25.28 7.67, 1.88 7.67, -14.17 7.67 M-14.17 7.67 C-11.94 5.44, -9.71 3.21, -6.48 -0.01 M-14.17 7.67 C-11.53 5.04, -8.9 2.41, -6.48 -0.01 M-6.48 -0.01 C-4.31 -0.01, -2.13 0, 0 0 M-6.48 -0.01 C-5.03 -0.01, -3.57 0, 0 0" stroke="#1e1e1e" stroke-width="1" fill="none"></path></g></g><mask></mask><g stroke-linecap="round"><g transform="translate(55.31268120978143 244.83540198268406) rotate(0 22.198706112999048 3.837061890096038)" fill-rule="evenodd"><path d="M0 0 L51.03 -0.45 L58.56 8.12 L-14.17 7.67 L-6.48 -0.01" stroke="none" stroke-width="0" fill="#343a40" fill-rule="evenodd"></path><path d="M0 0 C20.16 -0.18, 40.32 -0.35, 51.03 -0.45 M0 0 C19.21 -0.17, 38.41 -0.34, 51.03 -0.45 M51.03 -0.45 C53.41 2.26, 55.79 4.97, 58.56 8.12 M51.03 -0.45 C53.68 2.57, 56.34 5.59, 58.56 8.12 M58.56 8.12 C29.68 7.94, 0.8 7.77, -14.17 7.67 M58.56 8.12 C30.19 7.95, 1.81 7.77, -14.17 7.67 M-14.17 7.67 C-11.12 4.63, -8.07 1.58, -6.48 -0.01 M-14.17 7.67 C-12.34 5.85, -10.52 4.03, -6.48 -0.01 M-6.48 -0.01 C-4.12 -0.01, -1.75 0, 0 0 M-6.48 -0.01 C-4.58 -0.01, -2.68 0, 0 0" stroke="#1e1e1e" stroke-width="1" fill="none"></path></g></g><mask></mask><g stroke-linecap="round"><g transform="translate(146.5970198626677 258.88110202058067) rotate(0 -21.947920998394125 -68.91084496780206)" fill-rule="evenodd"><path d="M0 0 L-44.17 -25.5 L-44.17 -137.82 L0.27 -112.17 L0 0" stroke="none" stroke-width="0" fill="#e9ecef" fill-rule="evenodd"></path><path d="M0 0 C-13.56 -7.83, -27.12 -15.66, -44.17 -25.5 M0 0 C-17.61 -10.17, -35.22 -20.33, -44.17 -25.5 M-44.17 -25.5 C-44.17 -50.09, -44.17 -74.67, -44.17 -137.82 M-44.17 -25.5 C-44.17 -54.84, -44.17 -84.18, -44.17 -137.82 M-44.17 -137.82 C-33.87 -131.87, -23.57 -125.93, 0.27 -112.17 M-44.17 -137.82 C-27.01 -127.92, -9.85 -118.01, 0.27 -112.17 M0.27 -112.17 C0.18 -75.02, 0.09 -37.88, 0 0 M0.27 -112.17 C0.18 -75.78, 0.1 -39.39, 0 0 M0 0 C0 0, 0 0, 0 0 M0 0 C0 0, 0 0, 0 0" stroke="#1e1e1e" stroke-width="1" fill="none"></path></g></g><mask></mask><g stroke-linecap="round"><g transform="translate(54.16699684508819 121.05941208497654) rotate(0 -21.947920998394125 68.910844967802)" fill-rule="evenodd"><path d="M0 0 L-44.17 25.5 L-44.17 137.82 L0.27 112.17 L0 0" stroke="none" stroke-width="0" fill="#e9ecef" fill-rule="evenodd"></path><path d="M0 0 C-13.33 7.69, -26.65 15.39, -44.17 25.5 M0 0 C-13.34 7.7, -26.68 15.4, -44.17 25.5 M-44.17 25.5 C-44.17 51.06, -44.17 76.61, -44.17 137.82 M-44.17 25.5 C-44.17 62.11, -44.17 98.72, -44.17 137.82 M-44.17 137.82 C-29.6 129.41, -15.03 121, 0.27 112.17 M-44.17 137.82 C-27.58 128.25, -11 118.67, 0.27 112.17 M0.27 112.17 C0.18 75.32, 0.09 38.47, 0 0 M0.27 112.17 C0.19 80.09, 0.12 48.02, 0 0 M0 0 C0 0, 0 0, 0 0 M0 0 C0 0, 0 0, 0 0" stroke="#1e1e1e" stroke-width="1" fill="none"></path></g></g><mask></mask><g stroke-linecap="round"><g transform="translate(145.80048646275338 188.19599465334386) rotate(0 -22.3447369586047 -12.900739898021868)"><path d="M0 0 C-11.26 -6.5, -22.53 -13.01, -44.69 -25.8 M0 0 C-14.8 -8.54, -29.59 -17.09, -44.69 -25.8" stroke="#1971c2" stroke-width="4" fill="none"></path></g></g><mask></mask><g stroke-linecap="round"><g transform="translate(145.7382753640063 165.35179468420188) rotate(0 -21.721245205152513 -12.540766766328773)"><path d="M0 0 C-14.31 -8.26, -28.62 -16.52, -43.44 -25.08 M0 0 C-11.97 -6.91, -23.94 -13.82, -43.44 -25.08" stroke="#1971c2" stroke-width="4" fill="none"></path></g></g><mask></mask><g stroke-linecap="round"><g transform="translate(55.760458049267754 140.27026115154422) rotate(0 -22.344736958604756 12.900739898021925)"><path d="M0 0 C-10.8 6.24, -21.6 12.47, -44.69 25.8 M0 0 C-10.38 5.99, -20.76 11.99, -44.69 25.8" stroke="#1971c2" stroke-width="4" fill="none"></path></g></g><mask></mask><g stroke-linecap="round"><g transform="translate(55.69824695052057 163.1144611206862) rotate(0 -21.72124520515257 12.54076676632883)"><path d="M0 0 C-11.76 6.79, -23.51 13.58, -43.44 25.08 M0 0 C-16.01 9.24, -32.01 18.48, -43.44 25.08" stroke="#1971c2" stroke-width="4" fill="none"></path></g></g><mask></mask><g stroke-linecap="round" transform="translate(54.12193102927222 99.54222032559585) rotate(0 24.26122075852635 67.23324354834801)"><path d="M0 0 L48.52 0 L48.52 134.47 L0 134.47" stroke="none" stroke-width="0" fill="#e7f5ff"></path><path d="M0 0 C15 0, 30 0, 48.52 0 M0 0 C13.75 0, 27.5 0, 48.52 0 M48.52 0 C48.52 42.78, 48.52 85.56, 48.52 134.47 M48.52 0 C48.52 27.71, 48.52 55.41, 48.52 134.47 M48.52 134.47 C34.93 134.47, 21.33 134.47, 0 134.47 M48.52 134.47 C31.4 134.47, 14.28 134.47, 0 134.47 M0 134.47 C0 92.85, 0 51.23, 0 0 M0 134.47 C0 89.65, 0 44.83, 0 0" stroke="#1e1e1e" stroke-width="1" fill="none"></path></g><g stroke-linecap="round"><g transform="translate(76.61352615056103 100.07190718435959) rotate(0 1.8292142834811216 -42.763466968087016)" fill-rule="evenodd"><path d="M0 0 L12.54 2.83 L20 3.19 L25.14 0 L27.58 -8.16 L28.49 -19.88 L27.83 -32.99 L25.59 -45.34 L21.11 -58.63 L14.61 -73.24 L7.4 -85.08 L3.91 -88.69 L0.73 -90.07 L-2.37 -88.91 L-5.65 -85.57 L-12.23 -74.29 L-18.03 -60.1 L-22.07 -46.89 L-24.18 -34.02 L-24.84 -19.99 L-24.09 -7.34 L-22 1.35 L-20.15 3.54 L-17.52 4.46 L-10.99 3.69 L0 0" stroke="none" stroke-width="0" fill="#e7f5ff" fill-rule="evenodd"></path><path d="M0 0 C4.19 0, 20.88 7.56, 25.14 0 C29.4 -7.56, 29.66 -30.33, 25.59 -45.34 C21.52 -60.35, 8.68 -89.81, 0.73 -90.07 C-7.21 -90.33, -18.28 -62.13, -22.07 -46.89 C-25.86 -31.65, -25.68 -6.47, -22 1.35 C-18.32 9.16, -3.67 0.22, 0 0 M0 0 C4.19 0, 20.88 7.56, 25.14 0 C29.4 -7.56, 29.66 -30.33, 25.59 -45.34 C21.52 -60.35, 8.68 -89.81, 0.73 -90.07 C-7.21 -90.33, -18.28 -62.13, -22.07 -46.89 C-25.86 -31.65, -25.68 -6.47, -22 1.35 C-18.32 9.16, -3.67 0.22, 0 0" stroke="#1e1e1e" stroke-width="1" fill="none"></path></g></g><mask></mask><g stroke-linecap="round" transform="translate(58.40574070592743 108.15265773433043) rotate(0 19.977411081871026 32.16701784369059)"><path d="M39.95 32.17 C39.95 34.03, 39.85 35.92, 39.65 37.75 C39.45 39.59, 39.15 41.42, 38.75 43.17 C38.35 44.92, 37.86 46.64, 37.28 48.25 C36.7 49.86, 36.02 51.42, 35.28 52.84 C34.54 54.27, 33.7 55.61, 32.82 56.81 C31.93 58.01, 30.97 59.09, 29.97 60.02 C28.96 60.96, 27.9 61.76, 26.81 62.39 C25.72 63.03, 24.59 63.52, 23.45 63.85 C22.31 64.17, 21.13 64.33, 19.98 64.33 C18.82 64.33, 17.65 64.17, 16.51 63.85 C15.37 63.52, 14.23 63.03, 13.14 62.39 C12.06 61.76, 10.99 60.96, 9.99 60.02 C8.99 59.09, 8.02 58.01, 7.14 56.81 C6.25 55.61, 5.42 54.27, 4.67 52.84 C3.93 51.42, 3.25 49.86, 2.68 48.25 C2.1 46.64, 1.6 44.92, 1.2 43.17 C0.81 41.42, 0.5 39.59, 0.3 37.75 C0.1 35.92, 0 34.03, 0 32.17 C0 30.31, 0.1 28.41, 0.3 26.58 C0.5 24.75, 0.81 22.91, 1.2 21.17 C1.6 19.42, 2.1 17.7, 2.68 16.08 C3.25 14.47, 3.93 12.92, 4.67 11.49 C5.42 10.06, 6.25 8.72, 7.14 7.53 C8.02 6.33, 8.99 5.24, 9.99 4.31 C10.99 3.38, 12.06 2.58, 13.14 1.94 C14.23 1.3, 15.37 0.81, 16.51 0.49 C17.65 0.17, 18.82 0, 19.98 0 C21.13 0, 22.31 0.17, 23.45 0.49 C24.59 0.81, 25.72 1.3, 26.81 1.94 C27.9 2.58, 28.96 3.38, 29.97 4.31 C30.97 5.24, 31.93 6.33, 32.82 7.53 C33.7 8.72, 34.54 10.06, 35.28 11.49 C36.02 12.92, 36.7 14.47, 37.28 16.08 C37.86 17.7, 38.35 19.42, 38.75 21.17 C39.15 22.91, 39.45 24.75, 39.65 26.58 C39.85 28.41, 39.9 31.24, 39.95 32.17 C40.01 33.1, 40.01 31.24, 39.95 32.17" stroke="none" stroke-width="0" fill="#868e96"></path><path d="M39.95 32.17 C39.95 34.03, 39.85 35.92, 39.65 37.75 C39.45 39.59, 39.15 41.42, 38.75 43.17 C38.35 44.92, 37.86 46.64, 37.28 48.25 C36.7 49.86, 36.02 51.42, 35.28 52.84 C34.54 54.27, 33.7 55.61, 32.82 56.81 C31.93 58.01, 30.97 59.09, 29.97 60.02 C28.96 60.96, 27.9 61.76, 26.81 62.39 C25.72 63.03, 24.59 63.52, 23.45 63.85 C22.31 64.17, 21.13 64.33, 19.98 64.33 C18.82 64.33, 17.65 64.17, 16.51 63.85 C15.37 63.52, 14.23 63.03, 13.14 62.39 C12.06 61.76, 10.99 60.96, 9.99 60.02 C8.99 59.09, 8.02 58.01, 7.14 56.81 C6.25 55.61, 5.42 54.27, 4.67 52.84 C3.93 51.42, 3.25 49.86, 2.68 48.25 C2.1 46.64, 1.6 44.92, 1.2 43.17 C0.81 41.42, 0.5 39.59, 0.3 37.75 C0.1 35.92, 0 34.03, 0 32.17 C0 30.31, 0.1 28.41, 0.3 26.58 C0.5 24.75, 0.81 22.91, 1.2 21.17 C1.6 19.42, 2.1 17.7, 2.68 16.08 C3.25 14.47, 3.93 12.92, 4.67 11.49 C5.42 10.06, 6.25 8.72, 7.14 7.53 C8.02 6.33, 8.99 5.24, 9.99 4.31 C10.99 3.38, 12.06 2.58, 13.14 1.94 C14.23 1.3, 15.37 0.81, 16.51 0.49 C17.65 0.17, 18.82 0, 19.98 0 C21.13 0, 22.31 0.17, 23.45 0.49 C24.59 0.81, 25.72 1.3, 26.81 1.94 C27.9 2.58, 28.96 3.38, 29.97 4.31 C30.97 5.24, 31.93 6.33, 32.82 7.53 C33.7 8.72, 34.54 10.06, 35.28 11.49 C36.02 12.92, 36.7 14.47, 37.28 16.08 C37.86 17.7, 38.35 19.42, 38.75 21.17 C39.15 22.91, 39.45 24.75, 39.65 26.58 C39.85 28.41, 39.9 31.24, 39.95 32.17 C40.01 33.1, 40.01 31.24, 39.95 32.17" stroke="#1e1e1e" stroke-width="1" fill="none"></path></g><g stroke-linecap="round" transform="translate(61.99718539480341 115.62849334200075) rotate(0 16.3859663929951 24.69118223602021)"><path d="M32.77 24.69 C32.77 26.12, 32.69 27.57, 32.52 28.98 C32.36 30.39, 32.11 31.79, 31.78 33.14 C31.46 34.48, 31.05 35.8, 30.58 37.04 C30.1 38.27, 29.55 39.47, 28.94 40.56 C28.33 41.66, 27.65 42.69, 26.92 43.61 C26.19 44.52, 25.4 45.36, 24.58 46.07 C23.76 46.79, 22.88 47.4, 21.99 47.89 C21.1 48.38, 20.17 48.76, 19.23 49.01 C18.3 49.26, 17.33 49.38, 16.39 49.38 C15.44 49.38, 14.47 49.26, 13.54 49.01 C12.61 48.76, 11.67 48.38, 10.78 47.89 C9.89 47.4, 9.01 46.79, 8.19 46.07 C7.37 45.36, 6.58 44.52, 5.85 43.61 C5.13 42.69, 4.44 41.66, 3.83 40.56 C3.22 39.47, 2.67 38.27, 2.2 37.04 C1.72 35.8, 1.31 34.48, 0.99 33.14 C0.66 31.79, 0.41 30.39, 0.25 28.98 C0.08 27.57, 0 26.12, 0 24.69 C0 23.26, 0.08 21.81, 0.25 20.4 C0.41 19, 0.66 17.59, 0.99 16.25 C1.31 14.9, 1.72 13.58, 2.2 12.35 C2.67 11.11, 3.22 9.91, 3.83 8.82 C4.44 7.73, 5.13 6.7, 5.85 5.78 C6.58 4.86, 7.37 4.02, 8.19 3.31 C9.01 2.59, 9.89 1.98, 10.78 1.49 C11.67 1, 12.61 0.62, 13.54 0.38 C14.47 0.13, 15.44 0, 16.39 0 C17.33 0, 18.3 0.13, 19.23 0.38 C20.17 0.62, 21.1 1, 21.99 1.49 C22.88 1.98, 23.76 2.59, 24.58 3.31 C25.4 4.02, 26.19 4.86, 26.92 5.78 C27.65 6.7, 28.33 7.73, 28.94 8.82 C29.55 9.91, 30.1 11.11, 30.58 12.35 C31.05 13.58, 31.46 14.9, 31.78 16.25 C32.11 17.59, 32.36 19, 32.52 20.4 C32.69 21.81, 32.73 23.98, 32.77 24.69 C32.81 25.41, 32.81 23.98, 32.77 24.69" stroke="none" stroke-width="0" fill="#ffec99"></path><path d="M32.77 24.69 C32.77 26.12, 32.69 27.57, 32.52 28.98 C32.36 30.39, 32.11 31.79, 31.78 33.14 C31.46 34.48, 31.05 35.8, 30.58 37.04 C30.1 38.27, 29.55 39.47, 28.94 40.56 C28.33 41.66, 27.65 42.69, 26.92 43.61 C26.19 44.52, 25.4 45.36, 24.58 46.07 C23.76 46.79, 22.88 47.4, 21.99 47.89 C21.1 48.38, 20.17 48.76, 19.23 49.01 C18.3 49.26, 17.33 49.38, 16.39 49.38 C15.44 49.38, 14.47 49.26, 13.54 49.01 C12.61 48.76, 11.67 48.38, 10.78 47.89 C9.89 47.4, 9.01 46.79, 8.19 46.07 C7.37 45.36, 6.58 44.52, 5.85 43.61 C5.13 42.69, 4.44 41.66, 3.83 40.56 C3.22 39.47, 2.67 38.27, 2.2 37.04 C1.72 35.8, 1.31 34.48, 0.99 33.14 C0.66 31.79, 0.41 30.39, 0.25 28.98 C0.08 27.57, 0 26.12, 0 24.69 C0 23.26, 0.08 21.81, 0.25 20.4 C0.41 19, 0.66 17.59, 0.99 16.25 C1.31 14.9, 1.72 13.58, 2.2 12.35 C2.67 11.11, 3.22 9.91, 3.83 8.82 C4.44 7.73, 5.13 6.7, 5.85 5.78 C6.58 4.86, 7.37 4.02, 8.19 3.31 C9.01 2.59, 9.89 1.98, 10.78 1.49 C11.67 1, 12.61 0.62, 13.54 0.38 C14.47 0.13, 15.44 0, 16.39 0 C17.33 0, 18.3 0.13, 19.23 0.38 C20.17 0.62, 21.1 1, 21.99 1.49 C22.88 1.98, 23.76 2.59, 24.58 3.31 C25.4 4.02, 26.19 4.86, 26.92 5.78 C27.65 6.7, 28.33 7.73, 28.94 8.82 C29.55 9.91, 30.1 11.11, 30.58 12.35 C31.05 13.58, 31.46 14.9, 31.78 16.25 C32.11 17.59, 32.36 19, 32.52 20.4 C32.69 21.81, 32.73 23.98, 32.77 24.69 C32.81 25.41, 32.81 23.98, 32.77 24.69" stroke="#1e1e1e" stroke-width="1" fill="none"></path></g><g stroke-linecap="round"><g transform="translate(54.16699684508865 196.14305261178356) rotate(0 23.793321063801386 0)"><path d="M0 0 C15.03 0, 30.06 0, 47.59 0 M0 0 C16.77 0, 33.53 0, 47.59 0" stroke="#1e1e1e" stroke-width="1" fill="none"></path></g></g><mask></mask><g stroke-linecap="round"><g transform="translate(54.56300826818017 214.54920664227143) rotate(0 23.81978064531029 0)"><path d="M0 0 C10.43 0, 20.86 0, 47.64 0 M0 0 C12.44 0, 24.89 0, 47.64 0" stroke="#1e1e1e" stroke-width="1" fill="none"></path></g></g><mask></mask><g stroke-linecap="round" transform="translate(97.45584218514614 209.75896780207165) rotate(0 0.9457975957681697 0.9457975957681697)"><path d="M1.89 0.95 C1.89 1, 1.89 1.06, 1.88 1.11 C1.87 1.16, 1.85 1.22, 1.83 1.27 C1.82 1.32, 1.79 1.37, 1.76 1.42 C1.74 1.47, 1.71 1.51, 1.67 1.55 C1.64 1.6, 1.6 1.64, 1.55 1.67 C1.51 1.71, 1.47 1.74, 1.42 1.76 C1.37 1.79, 1.32 1.82, 1.27 1.83 C1.22 1.85, 1.16 1.87, 1.11 1.88 C1.06 1.89, 1 1.89, 0.95 1.89 C0.89 1.89, 0.84 1.89, 0.78 1.88 C0.73 1.87, 0.67 1.85, 0.62 1.83 C0.57 1.82, 0.52 1.79, 0.47 1.76 C0.43 1.74, 0.38 1.71, 0.34 1.67 C0.3 1.64, 0.26 1.6, 0.22 1.55 C0.19 1.51, 0.15 1.47, 0.13 1.42 C0.1 1.37, 0.08 1.32, 0.06 1.27 C0.04 1.22, 0.02 1.16, 0.01 1.11 C0 1.06, 0 1, 0 0.95 C0 0.89, 0 0.84, 0.01 0.78 C0.02 0.73, 0.04 0.67, 0.06 0.62 C0.08 0.57, 0.1 0.52, 0.13 0.47 C0.15 0.43, 0.19 0.38, 0.22 0.34 C0.26 0.3, 0.3 0.26, 0.34 0.22 C0.38 0.19, 0.43 0.15, 0.47 0.13 C0.52 0.1, 0.57 0.08, 0.62 0.06 C0.67 0.04, 0.73 0.02, 0.78 0.01 C0.84 0, 0.89 0, 0.95 0 C1 0, 1.06 0, 1.11 0.01 C1.16 0.02, 1.22 0.04, 1.27 0.06 C1.32 0.08, 1.37 0.1, 1.42 0.13 C1.47 0.15, 1.51 0.19, 1.55 0.22 C1.6 0.26, 1.64 0.3, 1.67 0.34 C1.71 0.38, 1.74 0.43, 1.76 0.47 C1.79 0.52, 1.82 0.57, 1.83 0.62 C1.85 0.67, 1.87 0.73, 1.88 0.78 C1.89 0.84, 1.89 0.92, 1.89 0.95 C1.89 0.97, 1.89 0.92, 1.89 0.95" stroke="none" stroke-width="0" fill="#868e96"></path><path d="M1.89 0.95 C1.89 1, 1.89 1.06, 1.88 1.11 C1.87 1.16, 1.85 1.22, 1.83 1.27 C1.82 1.32, 1.79 1.37, 1.76 1.42 C1.74 1.47, 1.71 1.51, 1.67 1.55 C1.64 1.6, 1.6 1.64, 1.55 1.67 C1.51 1.71, 1.47 1.74, 1.42 1.76 C1.37 1.79, 1.32 1.82, 1.27 1.83 C1.22 1.85, 1.16 1.87, 1.11 1.88 C1.06 1.89, 1 1.89, 0.95 1.89 C0.89 1.89, 0.84 1.89, 0.78 1.88 C0.73 1.87, 0.67 1.85, 0.62 1.83 C0.57 1.82, 0.52 1.79, 0.47 1.76 C0.43 1.74, 0.38 1.71, 0.34 1.67 C0.3 1.64, 0.26 1.6, 0.22 1.55 C0.19 1.51, 0.15 1.47, 0.13 1.42 C0.1 1.37, 0.08 1.32, 0.06 1.27 C0.04 1.22, 0.02 1.16, 0.01 1.11 C0 1.06, 0 1, 0 0.95 C0 0.89, 0 0.84, 0.01 0.78 C0.02 0.73, 0.04 0.67, 0.06 0.62 C0.08 0.57, 0.1 0.52, 0.13 0.47 C0.15 0.43, 0.19 0.38, 0.22 0.34 C0.26 0.3, 0.3 0.26, 0.34 0.22 C0.38 0.19, 0.43 0.15, 0.47 0.13 C0.52 0.1, 0.57 0.08, 0.62 0.06 C0.67 0.04, 0.73 0.02, 0.78 0.01 C0.84 0, 0.89 0, 0.95 0 C1 0, 1.06 0, 1.11 0.01 C1.16 0.02, 1.22 0.04, 1.27 0.06 C1.32 0.08, 1.37 0.1, 1.42 0.13 C1.47 0.15, 1.51 0.19, 1.55 0.22 C1.6 0.26, 1.64 0.3, 1.67 0.34 C1.71 0.38, 1.74 0.43, 1.76 0.47 C1.79 0.52, 1.82 0.57, 1.83 0.62 C1.85 0.67, 1.87 0.73, 1.88 0.78 C1.89 0.84, 1.89 0.92, 1.89 0.95 C1.89 0.97, 1.89 0.92, 1.89 0.95" stroke="#868e96" stroke-width="1" fill="none"></path></g><g stroke-linecap="round" transform="translate(97.45584218514603 200.81688144208192) rotate(0 0.9457975957681697 0.9457975957681697)"><path d="M1.89 0.95 C1.89 1, 1.89 1.06, 1.88 1.11 C1.87 1.16, 1.85 1.22, 1.83 1.27 C1.82 1.32, 1.79 1.37, 1.76 1.42 C1.74 1.47, 1.71 1.51, 1.67 1.55 C1.64 1.6, 1.6 1.64, 1.55 1.67 C1.51 1.71, 1.47 1.74, 1.42 1.76 C1.37 1.79, 1.32 1.82, 1.27 1.83 C1.22 1.85, 1.16 1.87, 1.11 1.88 C1.06 1.89, 1 1.89, 0.95 1.89 C0.89 1.89, 0.84 1.89, 0.78 1.88 C0.73 1.87, 0.67 1.85, 0.62 1.83 C0.57 1.82, 0.52 1.79, 0.47 1.76 C0.43 1.74, 0.38 1.71, 0.34 1.67 C0.3 1.64, 0.26 1.6, 0.22 1.55 C0.19 1.51, 0.15 1.47, 0.13 1.42 C0.1 1.37, 0.08 1.32, 0.06 1.27 C0.04 1.22, 0.02 1.16, 0.01 1.11 C0 1.06, 0 1, 0 0.95 C0 0.89, 0 0.84, 0.01 0.78 C0.02 0.73, 0.04 0.67, 0.06 0.62 C0.08 0.57, 0.1 0.52, 0.13 0.47 C0.15 0.43, 0.19 0.38, 0.22 0.34 C0.26 0.3, 0.3 0.26, 0.34 0.22 C0.38 0.19, 0.43 0.15, 0.47 0.13 C0.52 0.1, 0.57 0.08, 0.62 0.06 C0.67 0.04, 0.73 0.02, 0.78 0.01 C0.84 0, 0.89 0, 0.95 0 C1 0, 1.06 0, 1.11 0.01 C1.16 0.02, 1.22 0.04, 1.27 0.06 C1.32 0.08, 1.37 0.1, 1.42 0.13 C1.47 0.15, 1.51 0.19, 1.55 0.22 C1.6 0.26, 1.64 0.3, 1.67 0.34 C1.71 0.38, 1.74 0.43, 1.76 0.47 C1.79 0.52, 1.82 0.57, 1.83 0.62 C1.85 0.67, 1.87 0.73, 1.88 0.78 C1.89 0.84, 1.89 0.92, 1.89 0.95 C1.89 0.97, 1.89 0.92, 1.89 0.95" stroke="none" stroke-width="0" fill="#868e96"></path><path d="M1.89 0.95 C1.89 1, 1.89 1.06, 1.88 1.11 C1.87 1.16, 1.85 1.22, 1.83 1.27 C1.82 1.32, 1.79 1.37, 1.76 1.42 C1.74 1.47, 1.71 1.51, 1.67 1.55 C1.64 1.6, 1.6 1.64, 1.55 1.67 C1.51 1.71, 1.47 1.74, 1.42 1.76 C1.37 1.79, 1.32 1.82, 1.27 1.83 C1.22 1.85, 1.16 1.87, 1.11 1.88 C1.06 1.89, 1 1.89, 0.95 1.89 C0.89 1.89, 0.84 1.89, 0.78 1.88 C0.73 1.87, 0.67 1.85, 0.62 1.83 C0.57 1.82, 0.52 1.79, 0.47 1.76 C0.43 1.74, 0.38 1.71, 0.34 1.67 C0.3 1.64, 0.26 1.6, 0.22 1.55 C0.19 1.51, 0.15 1.47, 0.13 1.42 C0.1 1.37, 0.08 1.32, 0.06 1.27 C0.04 1.22, 0.02 1.16, 0.01 1.11 C0 1.06, 0 1, 0 0.95 C0 0.89, 0 0.84, 0.01 0.78 C0.02 0.73, 0.04 0.67, 0.06 0.62 C0.08 0.57, 0.1 0.52, 0.13 0.47 C0.15 0.43, 0.19 0.38, 0.22 0.34 C0.26 0.3, 0.3 0.26, 0.34 0.22 C0.38 0.19, 0.43 0.15, 0.47 0.13 C0.52 0.1, 0.57 0.08, 0.62 0.06 C0.67 0.04, 0.73 0.02, 0.78 0.01 C0.84 0, 0.89 0, 0.95 0 C1 0, 1.06 0, 1.11 0.01 C1.16 0.02, 1.22 0.04, 1.27 0.06 C1.32 0.08, 1.37 0.1, 1.42 0.13 C1.47 0.15, 1.51 0.19, 1.55 0.22 C1.6 0.26, 1.64 0.3, 1.67 0.34 C1.71 0.38, 1.74 0.43, 1.76 0.47 C1.79 0.52, 1.82 0.57, 1.83 0.62 C1.85 0.67, 1.87 0.73, 1.88 0.78 C1.89 0.84, 1.89 0.92, 1.89 0.95 C1.89 0.97, 1.89 0.92, 1.89 0.95" stroke="#868e96" stroke-width="1" fill="none"></path></g><g stroke-linecap="round" transform="translate(97.45584218514603 218.70105416206138) rotate(0 0.9457975957681697 0.9457975957681697)"><path d="M1.89 0.95 C1.89 1, 1.89 1.06, 1.88 1.11 C1.87 1.16, 1.85 1.22, 1.83 1.27 C1.82 1.32, 1.79 1.37, 1.76 1.42 C1.74 1.47, 1.71 1.51, 1.67 1.55 C1.64 1.6, 1.6 1.64, 1.55 1.67 C1.51 1.71, 1.47 1.74, 1.42 1.76 C1.37 1.79, 1.32 1.82, 1.27 1.83 C1.22 1.85, 1.16 1.87, 1.11 1.88 C1.06 1.89, 1 1.89, 0.95 1.89 C0.89 1.89, 0.84 1.89, 0.78 1.88 C0.73 1.87, 0.67 1.85, 0.62 1.83 C0.57 1.82, 0.52 1.79, 0.47 1.76 C0.43 1.74, 0.38 1.71, 0.34 1.67 C0.3 1.64, 0.26 1.6, 0.22 1.55 C0.19 1.51, 0.15 1.47, 0.13 1.42 C0.1 1.37, 0.08 1.32, 0.06 1.27 C0.04 1.22, 0.02 1.16, 0.01 1.11 C0 1.06, 0 1, 0 0.95 C0 0.89, 0 0.84, 0.01 0.78 C0.02 0.73, 0.04 0.67, 0.06 0.62 C0.08 0.57, 0.1 0.52, 0.13 0.47 C0.15 0.43, 0.19 0.38, 0.22 0.34 C0.26 0.3, 0.3 0.26, 0.34 0.22 C0.38 0.19, 0.43 0.15, 0.47 0.13 C0.52 0.1, 0.57 0.08, 0.62 0.06 C0.67 0.04, 0.73 0.02, 0.78 0.01 C0.84 0, 0.89 0, 0.95 0 C1 0, 1.06 0, 1.11 0.01 C1.16 0.02, 1.22 0.04, 1.27 0.06 C1.32 0.08, 1.37 0.1, 1.42 0.13 C1.47 0.15, 1.51 0.19, 1.55 0.22 C1.6 0.26, 1.64 0.3, 1.67 0.34 C1.71 0.38, 1.74 0.43, 1.76 0.47 C1.79 0.52, 1.82 0.57, 1.83 0.62 C1.85 0.67, 1.87 0.73, 1.88 0.78 C1.89 0.84, 1.89 0.92, 1.89 0.95 C1.89 0.97, 1.89 0.92, 1.89 0.95" stroke="none" stroke-width="0" fill="#868e96"></path><path d="M1.89 0.95 C1.89 1, 1.89 1.06, 1.88 1.11 C1.87 1.16, 1.85 1.22, 1.83 1.27 C1.82 1.32, 1.79 1.37, 1.76 1.42 C1.74 1.47, 1.71 1.51, 1.67 1.55 C1.64 1.6, 1.6 1.64, 1.55 1.67 C1.51 1.71, 1.47 1.74, 1.42 1.76 C1.37 1.79, 1.32 1.82, 1.27 1.83 C1.22 1.85, 1.16 1.87, 1.11 1.88 C1.06 1.89, 1 1.89, 0.95 1.89 C0.89 1.89, 0.84 1.89, 0.78 1.88 C0.73 1.87, 0.67 1.85, 0.62 1.83 C0.57 1.82, 0.52 1.79, 0.47 1.76 C0.43 1.74, 0.38 1.71, 0.34 1.67 C0.3 1.64, 0.26 1.6, 0.22 1.55 C0.19 1.51, 0.15 1.47, 0.13 1.42 C0.1 1.37, 0.08 1.32, 0.06 1.27 C0.04 1.22, 0.02 1.16, 0.01 1.11 C0 1.06, 0 1, 0 0.95 C0 0.89, 0 0.84, 0.01 0.78 C0.02 0.73, 0.04 0.67, 0.06 0.62 C0.08 0.57, 0.1 0.52, 0.13 0.47 C0.15 0.43, 0.19 0.38, 0.22 0.34 C0.26 0.3, 0.3 0.26, 0.34 0.22 C0.38 0.19, 0.43 0.15, 0.47 0.13 C0.52 0.1, 0.57 0.08, 0.62 0.06 C0.67 0.04, 0.73 0.02, 0.78 0.01 C0.84 0, 0.89 0, 0.95 0 C1 0, 1.06 0, 1.11 0.01 C1.16 0.02, 1.22 0.04, 1.27 0.06 C1.32 0.08, 1.37 0.1, 1.42 0.13 C1.47 0.15, 1.51 0.19, 1.55 0.22 C1.6 0.26, 1.64 0.3, 1.67 0.34 C1.71 0.38, 1.74 0.43, 1.76 0.47 C1.79 0.52, 1.82 0.57, 1.83 0.62 C1.85 0.67, 1.87 0.73, 1.88 0.78 C1.89 0.84, 1.89 0.92, 1.89 0.95 C1.89 0.97, 1.89 0.92, 1.89 0.95" stroke="#868e96" stroke-width="1" fill="none"></path></g><g stroke-linecap="round" transform="translate(97.45584218514603 227.6431405220511) rotate(0 0.9457975957681697 0.9457975957681697)"><path d="M1.89 0.95 C1.89 1, 1.89 1.06, 1.88 1.11 C1.87 1.16, 1.85 1.22, 1.83 1.27 C1.82 1.32, 1.79 1.37, 1.76 1.42 C1.74 1.47, 1.71 1.51, 1.67 1.55 C1.64 1.6, 1.6 1.64, 1.55 1.67 C1.51 1.71, 1.47 1.74, 1.42 1.76 C1.37 1.79, 1.32 1.82, 1.27 1.83 C1.22 1.85, 1.16 1.87, 1.11 1.88 C1.06 1.89, 1 1.89, 0.95 1.89 C0.89 1.89, 0.84 1.89, 0.78 1.88 C0.73 1.87, 0.67 1.85, 0.62 1.83 C0.57 1.82, 0.52 1.79, 0.47 1.76 C0.43 1.74, 0.38 1.71, 0.34 1.67 C0.3 1.64, 0.26 1.6, 0.22 1.55 C0.19 1.51, 0.15 1.47, 0.13 1.42 C0.1 1.37, 0.08 1.32, 0.06 1.27 C0.04 1.22, 0.02 1.16, 0.01 1.11 C0 1.06, 0 1, 0 0.95 C0 0.89, 0 0.84, 0.01 0.78 C0.02 0.73, 0.04 0.67, 0.06 0.62 C0.08 0.57, 0.1 0.52, 0.13 0.47 C0.15 0.43, 0.19 0.38, 0.22 0.34 C0.26 0.3, 0.3 0.26, 0.34 0.22 C0.38 0.19, 0.43 0.15, 0.47 0.13 C0.52 0.1, 0.57 0.08, 0.62 0.06 C0.67 0.04, 0.73 0.02, 0.78 0.01 C0.84 0, 0.89 0, 0.95 0 C1 0, 1.06 0, 1.11 0.01 C1.16 0.02, 1.22 0.04, 1.27 0.06 C1.32 0.08, 1.37 0.1, 1.42 0.13 C1.47 0.15, 1.51 0.19, 1.55 0.22 C1.6 0.26, 1.64 0.3, 1.67 0.34 C1.71 0.38, 1.74 0.43, 1.76 0.47 C1.79 0.52, 1.82 0.57, 1.83 0.62 C1.85 0.67, 1.87 0.73, 1.88 0.78 C1.89 0.84, 1.89 0.92, 1.89 0.95 C1.89 0.97, 1.89 0.92, 1.89 0.95" stroke="none" stroke-width="0" fill="#868e96"></path><path d="M1.89 0.95 C1.89 1, 1.89 1.06, 1.88 1.11 C1.87 1.16, 1.85 1.22, 1.83 1.27 C1.82 1.32, 1.79 1.37, 1.76 1.42 C1.74 1.47, 1.71 1.51, 1.67 1.55 C1.64 1.6, 1.6 1.64, 1.55 1.67 C1.51 1.71, 1.47 1.74, 1.42 1.76 C1.37 1.79, 1.32 1.82, 1.27 1.83 C1.22 1.85, 1.16 1.87, 1.11 1.88 C1.06 1.89, 1 1.89, 0.95 1.89 C0.89 1.89, 0.84 1.89, 0.78 1.88 C0.73 1.87, 0.67 1.85, 0.62 1.83 C0.57 1.82, 0.52 1.79, 0.47 1.76 C0.43 1.74, 0.38 1.71, 0.34 1.67 C0.3 1.64, 0.26 1.6, 0.22 1.55 C0.19 1.51, 0.15 1.47, 0.13 1.42 C0.1 1.37, 0.08 1.32, 0.06 1.27 C0.04 1.22, 0.02 1.16, 0.01 1.11 C0 1.06, 0 1, 0 0.95 C0 0.89, 0 0.84, 0.01 0.78 C0.02 0.73, 0.04 0.67, 0.06 0.62 C0.08 0.57, 0.1 0.52, 0.13 0.47 C0.15 0.43, 0.19 0.38, 0.22 0.34 C0.26 0.3, 0.3 0.26, 0.34 0.22 C0.38 0.19, 0.43 0.15, 0.47 0.13 C0.52 0.1, 0.57 0.08, 0.62 0.06 C0.67 0.04, 0.73 0.02, 0.78 0.01 C0.84 0, 0.89 0, 0.95 0 C1 0, 1.06 0, 1.11 0.01 C1.16 0.02, 1.22 0.04, 1.27 0.06 C1.32 0.08, 1.37 0.1, 1.42 0.13 C1.47 0.15, 1.51 0.19, 1.55 0.22 C1.6 0.26, 1.64 0.3, 1.67 0.34 C1.71 0.38, 1.74 0.43, 1.76 0.47 C1.79 0.52, 1.82 0.57, 1.83 0.62 C1.85 0.67, 1.87 0.73, 1.88 0.78 C1.89 0.84, 1.89 0.92, 1.89 0.95 C1.89 0.97, 1.89 0.92, 1.89 0.95" stroke="#868e96" stroke-width="1" fill="none"></path></g><g stroke-linecap="round" transform="translate(97.45584218514603 172.97629833024212) rotate(0 0.9457975957681697 0.9457975957681697)"><path d="M1.89 0.95 C1.89 1, 1.89 1.06, 1.88 1.11 C1.87 1.16, 1.85 1.22, 1.83 1.27 C1.82 1.32, 1.79 1.37, 1.76 1.42 C1.74 1.47, 1.71 1.51, 1.67 1.55 C1.64 1.6, 1.6 1.64, 1.55 1.67 C1.51 1.71, 1.47 1.74, 1.42 1.76 C1.37 1.79, 1.32 1.82, 1.27 1.83 C1.22 1.85, 1.16 1.87, 1.11 1.88 C1.06 1.89, 1 1.89, 0.95 1.89 C0.89 1.89, 0.84 1.89, 0.78 1.88 C0.73 1.87, 0.67 1.85, 0.62 1.83 C0.57 1.82, 0.52 1.79, 0.47 1.76 C0.43 1.74, 0.38 1.71, 0.34 1.67 C0.3 1.64, 0.26 1.6, 0.22 1.55 C0.19 1.51, 0.15 1.47, 0.13 1.42 C0.1 1.37, 0.08 1.32, 0.06 1.27 C0.04 1.22, 0.02 1.16, 0.01 1.11 C0 1.06, 0 1, 0 0.95 C0 0.89, 0 0.84, 0.01 0.78 C0.02 0.73, 0.04 0.67, 0.06 0.62 C0.08 0.57, 0.1 0.52, 0.13 0.47 C0.15 0.43, 0.19 0.38, 0.22 0.34 C0.26 0.3, 0.3 0.26, 0.34 0.22 C0.38 0.19, 0.43 0.15, 0.47 0.13 C0.52 0.1, 0.57 0.08, 0.62 0.06 C0.67 0.04, 0.73 0.02, 0.78 0.01 C0.84 0, 0.89 0, 0.95 0 C1 0, 1.06 0, 1.11 0.01 C1.16 0.02, 1.22 0.04, 1.27 0.06 C1.32 0.08, 1.37 0.1, 1.42 0.13 C1.47 0.15, 1.51 0.19, 1.55 0.22 C1.6 0.26, 1.64 0.3, 1.67 0.34 C1.71 0.38, 1.74 0.43, 1.76 0.47 C1.79 0.52, 1.82 0.57, 1.83 0.62 C1.85 0.67, 1.87 0.73, 1.88 0.78 C1.89 0.84, 1.89 0.92, 1.89 0.95 C1.89 0.97, 1.89 0.92, 1.89 0.95" stroke="none" stroke-width="0" fill="#868e96"></path><path d="M1.89 0.95 C1.89 1, 1.89 1.06, 1.88 1.11 C1.87 1.16, 1.85 1.22, 1.83 1.27 C1.82 1.32, 1.79 1.37, 1.76 1.42 C1.74 1.47, 1.71 1.51, 1.67 1.55 C1.64 1.6, 1.6 1.64, 1.55 1.67 C1.51 1.71, 1.47 1.74, 1.42 1.76 C1.37 1.79, 1.32 1.82, 1.27 1.83 C1.22 1.85, 1.16 1.87, 1.11 1.88 C1.06 1.89, 1 1.89, 0.95 1.89 C0.89 1.89, 0.84 1.89, 0.78 1.88 C0.73 1.87, 0.67 1.85, 0.62 1.83 C0.57 1.82, 0.52 1.79, 0.47 1.76 C0.43 1.74, 0.38 1.71, 0.34 1.67 C0.3 1.64, 0.26 1.6, 0.22 1.55 C0.19 1.51, 0.15 1.47, 0.13 1.42 C0.1 1.37, 0.08 1.32, 0.06 1.27 C0.04 1.22, 0.02 1.16, 0.01 1.11 C0 1.06, 0 1, 0 0.95 C0 0.89, 0 0.84, 0.01 0.78 C0.02 0.73, 0.04 0.67, 0.06 0.62 C0.08 0.57, 0.1 0.52, 0.13 0.47 C0.15 0.43, 0.19 0.38, 0.22 0.34 C0.26 0.3, 0.3 0.26, 0.34 0.22 C0.38 0.19, 0.43 0.15, 0.47 0.13 C0.52 0.1, 0.57 0.08, 0.62 0.06 C0.67 0.04, 0.73 0.02, 0.78 0.01 C0.84 0, 0.89 0, 0.95 0 C1 0, 1.06 0, 1.11 0.01 C1.16 0.02, 1.22 0.04, 1.27 0.06 C1.32 0.08, 1.37 0.1, 1.42 0.13 C1.47 0.15, 1.51 0.19, 1.55 0.22 C1.6 0.26, 1.64 0.3, 1.67 0.34 C1.71 0.38, 1.74 0.43, 1.76 0.47 C1.79 0.52, 1.82 0.57, 1.83 0.62 C1.85 0.67, 1.87 0.73, 1.88 0.78 C1.89 0.84, 1.89 0.92, 1.89 0.95 C1.89 0.97, 1.89 0.92, 1.89 0.95" stroke="#868e96" stroke-width="1" fill="none"></path></g><g stroke-linecap="round" transform="translate(97.45584218514603 164.0342119702525) rotate(0 0.9457975957681697 0.9457975957681697)"><path d="M1.89 0.95 C1.89 1, 1.89 1.06, 1.88 1.11 C1.87 1.16, 1.85 1.22, 1.83 1.27 C1.82 1.32, 1.79 1.37, 1.76 1.42 C1.74 1.47, 1.71 1.51, 1.67 1.55 C1.64 1.6, 1.6 1.64, 1.55 1.67 C1.51 1.71, 1.47 1.74, 1.42 1.76 C1.37 1.79, 1.32 1.82, 1.27 1.83 C1.22 1.85, 1.16 1.87, 1.11 1.88 C1.06 1.89, 1 1.89, 0.95 1.89 C0.89 1.89, 0.84 1.89, 0.78 1.88 C0.73 1.87, 0.67 1.85, 0.62 1.83 C0.57 1.82, 0.52 1.79, 0.47 1.76 C0.43 1.74, 0.38 1.71, 0.34 1.67 C0.3 1.64, 0.26 1.6, 0.22 1.55 C0.19 1.51, 0.15 1.47, 0.13 1.42 C0.1 1.37, 0.08 1.32, 0.06 1.27 C0.04 1.22, 0.02 1.16, 0.01 1.11 C0 1.06, 0 1, 0 0.95 C0 0.89, 0 0.84, 0.01 0.78 C0.02 0.73, 0.04 0.67, 0.06 0.62 C0.08 0.57, 0.1 0.52, 0.13 0.47 C0.15 0.43, 0.19 0.38, 0.22 0.34 C0.26 0.3, 0.3 0.26, 0.34 0.22 C0.38 0.19, 0.43 0.15, 0.47 0.13 C0.52 0.1, 0.57 0.08, 0.62 0.06 C0.67 0.04, 0.73 0.02, 0.78 0.01 C0.84 0, 0.89 0, 0.95 0 C1 0, 1.06 0, 1.11 0.01 C1.16 0.02, 1.22 0.04, 1.27 0.06 C1.32 0.08, 1.37 0.1, 1.42 0.13 C1.47 0.15, 1.51 0.19, 1.55 0.22 C1.6 0.26, 1.64 0.3, 1.67 0.34 C1.71 0.38, 1.74 0.43, 1.76 0.47 C1.79 0.52, 1.82 0.57, 1.83 0.62 C1.85 0.67, 1.87 0.73, 1.88 0.78 C1.89 0.84, 1.89 0.92, 1.89 0.95 C1.89 0.97, 1.89 0.92, 1.89 0.95" stroke="none" stroke-width="0" fill="#868e96"></path><path d="M1.89 0.95 C1.89 1, 1.89 1.06, 1.88 1.11 C1.87 1.16, 1.85 1.22, 1.83 1.27 C1.82 1.32, 1.79 1.37, 1.76 1.42 C1.74 1.47, 1.71 1.51, 1.67 1.55 C1.64 1.6, 1.6 1.64, 1.55 1.67 C1.51 1.71, 1.47 1.74, 1.42 1.76 C1.37 1.79, 1.32 1.82, 1.27 1.83 C1.22 1.85, 1.16 1.87, 1.11 1.88 C1.06 1.89, 1 1.89, 0.95 1.89 C0.89 1.89, 0.84 1.89, 0.78 1.88 C0.73 1.87, 0.67 1.85, 0.62 1.83 C0.57 1.82, 0.52 1.79, 0.47 1.76 C0.43 1.74, 0.38 1.71, 0.34 1.67 C0.3 1.64, 0.26 1.6, 0.22 1.55 C0.19 1.51, 0.15 1.47, 0.13 1.42 C0.1 1.37, 0.08 1.32, 0.06 1.27 C0.04 1.22, 0.02 1.16, 0.01 1.11 C0 1.06, 0 1, 0 0.95 C0 0.89, 0 0.84, 0.01 0.78 C0.02 0.73, 0.04 0.67, 0.06 0.62 C0.08 0.57, 0.1 0.52, 0.13 0.47 C0.15 0.43, 0.19 0.38, 0.22 0.34 C0.26 0.3, 0.3 0.26, 0.34 0.22 C0.38 0.19, 0.43 0.15, 0.47 0.13 C0.52 0.1, 0.57 0.08, 0.62 0.06 C0.67 0.04, 0.73 0.02, 0.78 0.01 C0.84 0, 0.89 0, 0.95 0 C1 0, 1.06 0, 1.11 0.01 C1.16 0.02, 1.22 0.04, 1.27 0.06 C1.32 0.08, 1.37 0.1, 1.42 0.13 C1.47 0.15, 1.51 0.19, 1.55 0.22 C1.6 0.26, 1.64 0.3, 1.67 0.34 C1.71 0.38, 1.74 0.43, 1.76 0.47 C1.79 0.52, 1.82 0.57, 1.83 0.62 C1.85 0.67, 1.87 0.73, 1.88 0.78 C1.89 0.84, 1.89 0.92, 1.89 0.95 C1.89 0.97, 1.89 0.92, 1.89 0.95" stroke="#868e96" stroke-width="1" fill="none"></path></g><g stroke-linecap="round" transform="translate(97.45584218514603 181.91838469023196) rotate(0 0.9457975957681697 0.9457975957681697)"><path d="M1.89 0.95 C1.89 1, 1.89 1.06, 1.88 1.11 C1.87 1.16, 1.85 1.22, 1.83 1.27 C1.82 1.32, 1.79 1.37, 1.76 1.42 C1.74 1.47, 1.71 1.51, 1.67 1.55 C1.64 1.6, 1.6 1.64, 1.55 1.67 C1.51 1.71, 1.47 1.74, 1.42 1.76 C1.37 1.79, 1.32 1.82, 1.27 1.83 C1.22 1.85, 1.16 1.87, 1.11 1.88 C1.06 1.89, 1 1.89, 0.95 1.89 C0.89 1.89, 0.84 1.89, 0.78 1.88 C0.73 1.87, 0.67 1.85, 0.62 1.83 C0.57 1.82, 0.52 1.79, 0.47 1.76 C0.43 1.74, 0.38 1.71, 0.34 1.67 C0.3 1.64, 0.26 1.6, 0.22 1.55 C0.19 1.51, 0.15 1.47, 0.13 1.42 C0.1 1.37, 0.08 1.32, 0.06 1.27 C0.04 1.22, 0.02 1.16, 0.01 1.11 C0 1.06, 0 1, 0 0.95 C0 0.89, 0 0.84, 0.01 0.78 C0.02 0.73, 0.04 0.67, 0.06 0.62 C0.08 0.57, 0.1 0.52, 0.13 0.47 C0.15 0.43, 0.19 0.38, 0.22 0.34 C0.26 0.3, 0.3 0.26, 0.34 0.22 C0.38 0.19, 0.43 0.15, 0.47 0.13 C0.52 0.1, 0.57 0.08, 0.62 0.06 C0.67 0.04, 0.73 0.02, 0.78 0.01 C0.84 0, 0.89 0, 0.95 0 C1 0, 1.06 0, 1.11 0.01 C1.16 0.02, 1.22 0.04, 1.27 0.06 C1.32 0.08, 1.37 0.1, 1.42 0.13 C1.47 0.15, 1.51 0.19, 1.55 0.22 C1.6 0.26, 1.64 0.3, 1.67 0.34 C1.71 0.38, 1.74 0.43, 1.76 0.47 C1.79 0.52, 1.82 0.57, 1.83 0.62 C1.85 0.67, 1.87 0.73, 1.88 0.78 C1.89 0.84, 1.89 0.92, 1.89 0.95 C1.89 0.97, 1.89 0.92, 1.89 0.95" stroke="none" stroke-width="0" fill="#868e96"></path><path d="M1.89 0.95 C1.89 1, 1.89 1.06, 1.88 1.11 C1.87 1.16, 1.85 1.22, 1.83 1.27 C1.82 1.32, 1.79 1.37, 1.76 1.42 C1.74 1.47, 1.71 1.51, 1.67 1.55 C1.64 1.6, 1.6 1.64, 1.55 1.67 C1.51 1.71, 1.47 1.74, 1.42 1.76 C1.37 1.79, 1.32 1.82, 1.27 1.83 C1.22 1.85, 1.16 1.87, 1.11 1.88 C1.06 1.89, 1 1.89, 0.95 1.89 C0.89 1.89, 0.84 1.89, 0.78 1.88 C0.73 1.87, 0.67 1.85, 0.62 1.83 C0.57 1.82, 0.52 1.79, 0.47 1.76 C0.43 1.74, 0.38 1.71, 0.34 1.67 C0.3 1.64, 0.26 1.6, 0.22 1.55 C0.19 1.51, 0.15 1.47, 0.13 1.42 C0.1 1.37, 0.08 1.32, 0.06 1.27 C0.04 1.22, 0.02 1.16, 0.01 1.11 C0 1.06, 0 1, 0 0.95 C0 0.89, 0 0.84, 0.01 0.78 C0.02 0.73, 0.04 0.67, 0.06 0.62 C0.08 0.57, 0.1 0.52, 0.13 0.47 C0.15 0.43, 0.19 0.38, 0.22 0.34 C0.26 0.3, 0.3 0.26, 0.34 0.22 C0.38 0.19, 0.43 0.15, 0.47 0.13 C0.52 0.1, 0.57 0.08, 0.62 0.06 C0.67 0.04, 0.73 0.02, 0.78 0.01 C0.84 0, 0.89 0, 0.95 0 C1 0, 1.06 0, 1.11 0.01 C1.16 0.02, 1.22 0.04, 1.27 0.06 C1.32 0.08, 1.37 0.1, 1.42 0.13 C1.47 0.15, 1.51 0.19, 1.55 0.22 C1.6 0.26, 1.64 0.3, 1.67 0.34 C1.71 0.38, 1.74 0.43, 1.76 0.47 C1.79 0.52, 1.82 0.57, 1.83 0.62 C1.85 0.67, 1.87 0.73, 1.88 0.78 C1.89 0.84, 1.89 0.92, 1.89 0.95 C1.89 0.97, 1.89 0.92, 1.89 0.95" stroke="#868e96" stroke-width="1" fill="none"></path></g><g stroke-linecap="round" transform="translate(97.45584218514603 190.8604710502218) rotate(0 0.9457975957681697 0.9457975957681697)"><path d="M1.89 0.95 C1.89 1, 1.89 1.06, 1.88 1.11 C1.87 1.16, 1.85 1.22, 1.83 1.27 C1.82 1.32, 1.79 1.37, 1.76 1.42 C1.74 1.47, 1.71 1.51, 1.67 1.55 C1.64 1.6, 1.6 1.64, 1.55 1.67 C1.51 1.71, 1.47 1.74, 1.42 1.76 C1.37 1.79, 1.32 1.82, 1.27 1.83 C1.22 1.85, 1.16 1.87, 1.11 1.88 C1.06 1.89, 1 1.89, 0.95 1.89 C0.89 1.89, 0.84 1.89, 0.78 1.88 C0.73 1.87, 0.67 1.85, 0.62 1.83 C0.57 1.82, 0.52 1.79, 0.47 1.76 C0.43 1.74, 0.38 1.71, 0.34 1.67 C0.3 1.64, 0.26 1.6, 0.22 1.55 C0.19 1.51, 0.15 1.47, 0.13 1.42 C0.1 1.37, 0.08 1.32, 0.06 1.27 C0.04 1.22, 0.02 1.16, 0.01 1.11 C0 1.06, 0 1, 0 0.95 C0 0.89, 0 0.84, 0.01 0.78 C0.02 0.73, 0.04 0.67, 0.06 0.62 C0.08 0.57, 0.1 0.52, 0.13 0.47 C0.15 0.43, 0.19 0.38, 0.22 0.34 C0.26 0.3, 0.3 0.26, 0.34 0.22 C0.38 0.19, 0.43 0.15, 0.47 0.13 C0.52 0.1, 0.57 0.08, 0.62 0.06 C0.67 0.04, 0.73 0.02, 0.78 0.01 C0.84 0, 0.89 0, 0.95 0 C1 0, 1.06 0, 1.11 0.01 C1.16 0.02, 1.22 0.04, 1.27 0.06 C1.32 0.08, 1.37 0.1, 1.42 0.13 C1.47 0.15, 1.51 0.19, 1.55 0.22 C1.6 0.26, 1.64 0.3, 1.67 0.34 C1.71 0.38, 1.74 0.43, 1.76 0.47 C1.79 0.52, 1.82 0.57, 1.83 0.62 C1.85 0.67, 1.87 0.73, 1.88 0.78 C1.89 0.84, 1.89 0.92, 1.89 0.95 C1.89 0.97, 1.89 0.92, 1.89 0.95" stroke="none" stroke-width="0" fill="#868e96"></path><path d="M1.89 0.95 C1.89 1, 1.89 1.06, 1.88 1.11 C1.87 1.16, 1.85 1.22, 1.83 1.27 C1.82 1.32, 1.79 1.37, 1.76 1.42 C1.74 1.47, 1.71 1.51, 1.67 1.55 C1.64 1.6, 1.6 1.64, 1.55 1.67 C1.51 1.71, 1.47 1.74, 1.42 1.76 C1.37 1.79, 1.32 1.82, 1.27 1.83 C1.22 1.85, 1.16 1.87, 1.11 1.88 C1.06 1.89, 1 1.89, 0.95 1.89 C0.89 1.89, 0.84 1.89, 0.78 1.88 C0.73 1.87, 0.67 1.85, 0.62 1.83 C0.57 1.82, 0.52 1.79, 0.47 1.76 C0.43 1.74, 0.38 1.71, 0.34 1.67 C0.3 1.64, 0.26 1.6, 0.22 1.55 C0.19 1.51, 0.15 1.47, 0.13 1.42 C0.1 1.37, 0.08 1.32, 0.06 1.27 C0.04 1.22, 0.02 1.16, 0.01 1.11 C0 1.06, 0 1, 0 0.95 C0 0.89, 0 0.84, 0.01 0.78 C0.02 0.73, 0.04 0.67, 0.06 0.62 C0.08 0.57, 0.1 0.52, 0.13 0.47 C0.15 0.43, 0.19 0.38, 0.22 0.34 C0.26 0.3, 0.3 0.26, 0.34 0.22 C0.38 0.19, 0.43 0.15, 0.47 0.13 C0.52 0.1, 0.57 0.08, 0.62 0.06 C0.67 0.04, 0.73 0.02, 0.78 0.01 C0.84 0, 0.89 0, 0.95 0 C1 0, 1.06 0, 1.11 0.01 C1.16 0.02, 1.22 0.04, 1.27 0.06 C1.32 0.08, 1.37 0.1, 1.42 0.13 C1.47 0.15, 1.51 0.19, 1.55 0.22 C1.6 0.26, 1.64 0.3, 1.67 0.34 C1.71 0.38, 1.74 0.43, 1.76 0.47 C1.79 0.52, 1.82 0.57, 1.83 0.62 C1.85 0.67, 1.87 0.73, 1.88 0.78 C1.89 0.84, 1.89 0.92, 1.89 0.95 C1.89 0.97, 1.89 0.92, 1.89 0.95" stroke="#868e96" stroke-width="1" fill="none"></path></g></svg>