<svg version="1.1" xmlns="http://www.w3.org/2000/svg" viewBox="0 0 194.80824729602546 182.98792111392459" width="194.80824729602546" height="182.98792111392459">
  <!-- svg-source:excalidraw -->
  
  <defs>
    <style class="style-fonts">
      @font-face {
        font-family: "Virgil";
        src: url("https://excalidraw.com/Virgil.woff2");
      }
      @font-face {
        font-family: "Cascadia";
        src: url("https://excalidraw.com/Cascadia.woff2");
      }
    </style>
    
  </defs>
  <g stroke-linecap="round"><g transform="translate(97.30575609807545 10) rotate(0 0.0983675499374499 50.36285033540838)" fill-rule="evenodd"><path d="M0 0 L-48.85 48.85 L-48.85 99.46 L-1 71.83 L49.04 100.73 L49.04 49.44 L0 0" stroke="none" stroke-width="0" fill="#4dabf7" fill-rule="evenodd"></path><path d="M0 0 C-12.82 12.82, -25.63 25.63, -48.85 48.85 M0 0 C-12.97 12.97, -25.93 25.93, -48.85 48.85 M-48.85 48.85 C-48.85 61.92, -48.85 74.99, -48.85 99.46 M-48.85 48.85 C-48.85 68.57, -48.85 88.28, -48.85 99.46 M-48.85 99.46 C-34.09 90.94, -19.33 82.42, -1 71.83 M-48.85 99.46 C-37.83 93.1, -26.81 86.73, -1 71.83 M-1 71.83 C12.11 79.4, 25.23 86.98, 49.04 100.73 M-1 71.83 C14.3 80.67, 29.61 89.5, 49.04 100.73 M49.04 100.73 C49.04 85.46, 49.04 70.2, 49.04 49.44 M49.04 100.73 C49.04 82.67, 49.04 64.61, 49.04 49.44 M49.04 49.44 C35.38 35.67, 21.72 21.9, 0 0 M49.04 49.44 C35.96 36.25, 22.88 23.06, 0 0 M0 0 C0 0, 0 0, 0 0 M0 0 C0 0, 0 0, 0 0" stroke="#1971c2" stroke-width="2" fill="none"></path></g></g><mask></mask><g stroke-linecap="round" transform="translate(73.51628910206716 148.35908689756172) rotate(0 23.88783454594568 11.397463541529532)"><path d="M47.78 11.4 C47.78 12.06, 47.65 12.73, 47.41 13.38 C47.17 14.03, 46.81 14.68, 46.34 15.3 C45.86 15.92, 45.27 16.52, 44.58 17.1 C43.88 17.67, 43.08 18.22, 42.19 18.72 C41.3 19.23, 40.3 19.7, 39.24 20.13 C38.18 20.55, 37.03 20.94, 35.83 21.27 C34.63 21.6, 33.36 21.88, 32.06 22.11 C30.76 22.33, 29.4 22.51, 28.04 22.62 C26.67 22.74, 25.27 22.79, 23.89 22.79 C22.51 22.79, 21.1 22.74, 19.74 22.62 C18.38 22.51, 17.02 22.33, 15.72 22.11 C14.42 21.88, 13.14 21.6, 11.94 21.27 C10.75 20.94, 9.59 20.55, 8.53 20.13 C7.47 19.7, 6.48 19.23, 5.59 18.72 C4.7 18.22, 3.89 17.67, 3.2 17.1 C2.51 16.52, 1.91 15.92, 1.44 15.3 C0.97 14.68, 0.6 14.03, 0.36 13.38 C0.12 12.73, 0 12.06, 0 11.4 C0 10.74, 0.12 10.07, 0.36 9.42 C0.6 8.77, 0.97 8.12, 1.44 7.5 C1.91 6.88, 2.51 6.27, 3.2 5.7 C3.89 5.13, 4.7 4.58, 5.59 4.07 C6.48 3.57, 7.47 3.09, 8.53 2.67 C9.59 2.24, 10.75 1.86, 11.94 1.53 C13.14 1.2, 14.42 0.91, 15.72 0.69 C17.02 0.46, 18.38 0.29, 19.74 0.17 C21.1 0.06, 22.51 0, 23.89 0 C25.27 0, 26.67 0.06, 28.04 0.17 C29.4 0.29, 30.76 0.46, 32.06 0.69 C33.36 0.91, 34.63 1.2, 35.83 1.53 C37.03 1.86, 38.18 2.24, 39.24 2.67 C40.3 3.09, 41.3 3.57, 42.19 4.07 C43.08 4.58, 43.88 5.13, 44.58 5.7 C45.27 6.27, 45.86 6.88, 46.34 7.5 C46.81 8.12, 47.17 8.77, 47.41 9.42 C47.65 10.07, 47.72 11.07, 47.78 11.4 C47.84 11.73, 47.84 11.07, 47.78 11.4" stroke="none" stroke-width="0" fill="#ffec99"></path><path d="M47.78 11.4 C47.78 12.06, 47.65 12.73, 47.41 13.38 C47.17 14.03, 46.81 14.68, 46.34 15.3 C45.86 15.92, 45.27 16.52, 44.58 17.1 C43.88 17.67, 43.08 18.22, 42.19 18.72 C41.3 19.23, 40.3 19.7, 39.24 20.13 C38.18 20.55, 37.03 20.94, 35.83 21.27 C34.63 21.6, 33.36 21.88, 32.06 22.11 C30.76 22.33, 29.4 22.51, 28.04 22.62 C26.67 22.74, 25.27 22.79, 23.89 22.79 C22.51 22.79, 21.1 22.74, 19.74 22.62 C18.38 22.51, 17.02 22.33, 15.72 22.11 C14.42 21.88, 13.14 21.6, 11.94 21.27 C10.75 20.94, 9.59 20.55, 8.53 20.13 C7.47 19.7, 6.48 19.23, 5.59 18.72 C4.7 18.22, 3.89 17.67, 3.2 17.1 C2.51 16.52, 1.91 15.92, 1.44 15.3 C0.97 14.68, 0.6 14.03, 0.36 13.38 C0.12 12.73, 0 12.06, 0 11.4 C0 10.74, 0.12 10.07, 0.36 9.42 C0.6 8.77, 0.97 8.12, 1.44 7.5 C1.91 6.88, 2.51 6.27, 3.2 5.7 C3.89 5.13, 4.7 4.58, 5.59 4.07 C6.48 3.57, 7.47 3.09, 8.53 2.67 C9.59 2.24, 10.75 1.86, 11.94 1.53 C13.14 1.2, 14.42 0.91, 15.72 0.69 C17.02 0.46, 18.38 0.29, 19.74 0.17 C21.1 0.06, 22.51 0, 23.89 0 C25.27 0, 26.67 0.06, 28.04 0.17 C29.4 0.29, 30.76 0.46, 32.06 0.69 C33.36 0.91, 34.63 1.2, 35.83 1.53 C37.03 1.86, 38.18 2.24, 39.24 2.67 C40.3 3.09, 41.3 3.57, 42.19 4.07 C43.08 4.58, 43.88 5.13, 44.58 5.7 C45.27 6.27, 45.86 6.88, 46.34 7.5 C46.81 8.12, 47.17 8.77, 47.41 9.42 C47.65 10.07, 47.72 11.07, 47.78 11.4 C47.84 11.73, 47.84 11.07, 47.78 11.4" stroke="#f08c00" stroke-width="1" fill="none"></path></g><g stroke-linecap="round"><g transform="translate(48.711430675945394 172.98792111392459) rotate(0 48.69269297206745 -27.141525670384)" fill-rule="evenodd"><path d="M0 0 L21.32 -10.57 L35.37 -16.34 L48.56 -18.98 L54.86 -18.2 L61.59 -15.98 L87.41 -3.19 L92.25 -1.61 L95.9 -1.71 L98.53 -3.73 L100.45 -7.25 L102.11 -17.16 L100.74 -28.16 L96.19 -36.94 L87.24 -43.41 L74.35 -49.09 L59.95 -53.01 L46.47 -54.26 L33.17 -52.08 L19.22 -47.15 L6.88 -40.62 L-1.61 -33.66 L-4.67 -25.37 L-3.81 -15.54 L0 0" stroke="none" stroke-width="0" fill="#868e96" fill-rule="evenodd"></path><path d="M0 0 C8.09 -3.16, 32.58 -18.7, 48.56 -18.98 C64.55 -19.27, 87.97 1.28, 95.9 -1.71 C103.84 -4.7, 104.43 -28.18, 96.19 -36.94 C87.95 -45.69, 62.77 -54.81, 46.47 -54.26 C30.17 -53.71, 6.13 -42.7, -1.61 -33.66 C-9.36 -24.62, -0.27 -5.61, 0 0 M0 0 C8.09 -3.16, 32.58 -18.7, 48.56 -18.98 C64.55 -19.27, 87.97 1.28, 95.9 -1.71 C103.84 -4.7, 104.43 -28.18, 96.19 -36.94 C87.95 -45.69, 62.77 -54.81, 46.47 -54.26 C30.17 -53.71, 6.13 -42.7, -1.61 -33.66 C-9.36 -24.62, -0.27 -5.61, 0 0" stroke="#343a40" stroke-width="2" fill="none"></path></g></g><mask></mask><g stroke-linecap="round"><g transform="translate(95.05086474165239 87.09513544691254) rotate(0 2.353258906360338 35.16401645404778)" fill-rule="evenodd"><path d="M0 0 L-85.05 21.78 L-84.76 70.33 L0.59 47.67 L89.76 70.33 L89.76 20.6 L0 0" stroke="none" stroke-width="0" fill="#228be6" fill-rule="evenodd"></path><path d="M0 0 C-31.39 8.04, -62.79 16.08, -85.05 21.78 M0 0 C-31.36 8.03, -62.72 16.06, -85.05 21.78 M-85.05 21.78 C-84.96 36.39, -84.87 51.01, -84.76 70.33 M-85.05 21.78 C-84.96 36.35, -84.87 50.93, -84.76 70.33 M-84.76 70.33 C-58.01 63.23, -31.26 56.13, 0.59 47.67 M-84.76 70.33 C-54.74 62.36, -24.72 54.39, 0.59 47.67 M0.59 47.67 C31.49 55.52, 62.4 63.38, 89.76 70.33 M0.59 47.67 C26.34 54.21, 52.09 60.76, 89.76 70.33 M89.76 70.33 C89.76 50.94, 89.76 31.55, 89.76 20.6 M89.76 70.33 C89.76 58.83, 89.76 47.34, 89.76 20.6 M89.76 20.6 C69.51 15.95, 49.27 11.31, 0 0 M89.76 20.6 C71.01 16.3, 52.27 11.99, 0 0 M0 0 C0 0, 0 0, 0 0 M0 0 C0 0, 0 0, 0 0" stroke="#1971c2" stroke-width="2" fill="none"></path></g></g><mask></mask><g stroke-linecap="round"><g transform="translate(96.52135492152149 37.07157427906827) rotate(0 0.8827687264912925 50.31781741000782)" fill-rule="evenodd"><path d="M0 0 L-72.39 49.44 L-72.39 100.64 L1.18 73.56 L74.15 97.1 L74.15 50.61 L0 0" stroke="none" stroke-width="0" fill="#4dabf7" fill-rule="evenodd"></path><path d="M0 0 C-18.61 12.71, -37.22 25.42, -72.39 49.44 M0 0 C-21.81 14.9, -43.63 29.79, -72.39 49.44 M-72.39 49.44 C-72.39 60.62, -72.39 71.81, -72.39 100.64 M-72.39 49.44 C-72.39 68.83, -72.39 88.22, -72.39 100.64 M-72.39 100.64 C-50.2 92.47, -28.01 84.31, 1.18 73.56 M-72.39 100.64 C-45.96 90.91, -19.53 81.18, 1.18 73.56 M1.18 73.56 C29.96 82.85, 58.74 92.13, 74.15 97.1 M1.18 73.56 C21.53 80.13, 41.87 86.69, 74.15 97.1 M74.15 97.1 C74.15 83.1, 74.15 69.09, 74.15 50.61 M74.15 97.1 C74.15 87.64, 74.15 78.18, 74.15 50.61 M74.15 50.61 C51.93 35.44, 29.7 20.27, 0 0 M74.15 50.61 C46.46 31.71, 18.77 12.81, 0 0 M0 0 C0 0, 0 0, 0 0 M0 0 C0 0, 0 0, 0 0" stroke="#1971c2" stroke-width="2" fill="none"></path></g></g><mask></mask><g stroke-linecap="round" transform="translate(81.0105117047168 49.972172300345164) rotate(0 16.393611943296037 26.385908746828818)"><path d="M32.79 26.39 C32.79 27.91, 32.7 29.46, 32.54 30.97 C32.37 32.47, 32.12 33.98, 31.8 35.41 C31.47 36.85, 31.07 38.26, 30.59 39.58 C30.12 40.9, 29.56 42.18, 28.95 43.35 C28.34 44.52, 27.66 45.62, 26.93 46.6 C26.2 47.58, 25.41 48.47, 24.59 49.24 C23.77 50, 22.89 50.66, 22 51.18 C21.11 51.7, 20.17 52.11, 19.24 52.37 C18.31 52.64, 17.34 52.77, 16.39 52.77 C15.44 52.77, 14.48 52.64, 13.55 52.37 C12.61 52.11, 11.68 51.7, 10.79 51.18 C9.89 50.66, 9.02 50, 8.2 49.24 C7.38 48.47, 6.58 47.58, 5.86 46.6 C5.13 45.62, 4.45 44.52, 3.84 43.35 C3.23 42.18, 2.67 40.9, 2.2 39.58 C1.72 38.26, 1.31 36.85, 0.99 35.41 C0.66 33.98, 0.41 32.47, 0.25 30.97 C0.08 29.46, 0 27.91, 0 26.39 C0 24.86, 0.08 23.31, 0.25 21.8 C0.41 20.3, 0.66 18.8, 0.99 17.36 C1.31 15.93, 1.72 14.52, 2.2 13.19 C2.67 11.87, 3.23 10.6, 3.84 9.43 C4.45 8.26, 5.13 7.15, 5.86 6.17 C6.58 5.19, 7.38 4.3, 8.2 3.54 C9.02 2.77, 9.89 2.11, 10.79 1.59 C11.68 1.07, 12.61 0.67, 13.55 0.4 C14.48 0.14, 15.44 0, 16.39 0 C17.34 0, 18.31 0.14, 19.24 0.4 C20.17 0.67, 21.11 1.07, 22 1.59 C22.89 2.11, 23.77 2.77, 24.59 3.54 C25.41 4.3, 26.2 5.19, 26.93 6.17 C27.66 7.15, 28.34 8.26, 28.95 9.43 C29.56 10.6, 30.12 11.87, 30.59 13.19 C31.07 14.52, 31.47 15.93, 31.8 17.36 C32.12 18.8, 32.37 20.3, 32.54 21.8 C32.7 23.31, 32.75 25.62, 32.79 26.39 C32.83 27.15, 32.83 25.62, 32.79 26.39" stroke="none" stroke-width="0" fill="#868e96"></path><path d="M32.79 26.39 C32.79 27.91, 32.7 29.46, 32.54 30.97 C32.37 32.47, 32.12 33.98, 31.8 35.41 C31.47 36.85, 31.07 38.26, 30.59 39.58 C30.12 40.9, 29.56 42.18, 28.95 43.35 C28.34 44.52, 27.66 45.62, 26.93 46.6 C26.2 47.58, 25.41 48.47, 24.59 49.24 C23.77 50, 22.89 50.66, 22 51.18 C21.11 51.7, 20.17 52.11, 19.24 52.37 C18.31 52.64, 17.34 52.77, 16.39 52.77 C15.44 52.77, 14.48 52.64, 13.55 52.37 C12.61 52.11, 11.68 51.7, 10.79 51.18 C9.89 50.66, 9.02 50, 8.2 49.24 C7.38 48.47, 6.58 47.58, 5.86 46.6 C5.13 45.62, 4.45 44.52, 3.84 43.35 C3.23 42.18, 2.67 40.9, 2.2 39.58 C1.72 38.26, 1.31 36.85, 0.99 35.41 C0.66 33.98, 0.41 32.47, 0.25 30.97 C0.08 29.46, 0 27.91, 0 26.39 C0 24.86, 0.08 23.31, 0.25 21.8 C0.41 20.3, 0.66 18.8, 0.99 17.36 C1.31 15.93, 1.72 14.52, 2.2 13.19 C2.67 11.87, 3.23 10.6, 3.84 9.43 C4.45 8.26, 5.13 7.15, 5.86 6.17 C6.58 5.19, 7.38 4.3, 8.2 3.54 C9.02 2.77, 9.89 2.11, 10.79 1.59 C11.68 1.07, 12.61 0.67, 13.55 0.4 C14.48 0.14, 15.44 0, 16.39 0 C17.34 0, 18.31 0.14, 19.24 0.4 C20.17 0.67, 21.11 1.07, 22 1.59 C22.89 2.11, 23.77 2.77, 24.59 3.54 C25.41 4.3, 26.2 5.19, 26.93 6.17 C27.66 7.15, 28.34 8.26, 28.95 9.43 C29.56 10.6, 30.12 11.87, 30.59 13.19 C31.07 14.52, 31.47 15.93, 31.8 17.36 C32.12 18.8, 32.37 20.3, 32.54 21.8 C32.7 23.31, 32.75 25.62, 32.79 26.39 C32.83 27.15, 32.83 25.62, 32.79 26.39" stroke="#343a40" stroke-width="1" fill="none"></path></g><g stroke-linecap="round" transform="translate(84.68446582467107 55.321723877801105) rotate(0 12.71965782334172 21.036357169372764)"><path d="M25.44 21.04 C25.44 22.25, 25.37 23.49, 25.25 24.69 C25.12 25.89, 24.92 27.09, 24.67 28.23 C24.42 29.38, 24.1 30.5, 23.74 31.55 C23.37 32.61, 22.94 33.63, 22.46 34.56 C21.99 35.49, 21.46 36.37, 20.9 37.15 C20.33 37.93, 19.72 38.65, 19.08 39.25 C18.44 39.86, 17.76 40.39, 17.07 40.8 C16.38 41.22, 15.65 41.54, 14.93 41.75 C14.2 41.96, 13.46 42.07, 12.72 42.07 C11.98 42.07, 11.24 41.96, 10.51 41.75 C9.79 41.54, 9.06 41.22, 8.37 40.8 C7.68 40.39, 7 39.86, 6.36 39.25 C5.72 38.65, 5.11 37.93, 4.54 37.15 C3.98 36.37, 3.45 35.49, 2.98 34.56 C2.5 33.63, 2.07 32.61, 1.7 31.55 C1.34 30.5, 1.02 29.38, 0.77 28.23 C0.52 27.09, 0.32 25.89, 0.19 24.69 C0.07 23.49, 0 22.25, 0 21.04 C0 19.82, 0.07 18.58, 0.19 17.38 C0.32 16.18, 0.52 14.99, 0.77 13.84 C1.02 12.7, 1.34 11.57, 1.7 10.52 C2.07 9.46, 2.5 8.45, 2.98 7.51 C3.45 6.58, 3.98 5.7, 4.54 4.92 C5.11 4.14, 5.72 3.43, 6.36 2.82 C7 2.21, 7.68 1.69, 8.37 1.27 C9.06 0.85, 9.79 0.53, 10.51 0.32 C11.24 0.11, 11.98 0, 12.72 0 C13.46 0, 14.2 0.11, 14.93 0.32 C15.65 0.53, 16.38 0.85, 17.07 1.27 C17.76 1.69, 18.44 2.21, 19.08 2.82 C19.72 3.43, 20.33 4.14, 20.9 4.92 C21.46 5.7, 21.99 6.58, 22.46 7.51 C22.94 8.45, 23.37 9.46, 23.74 10.52 C24.1 11.57, 24.42 12.7, 24.67 13.84 C24.92 14.99, 25.12 16.18, 25.25 17.38 C25.37 18.58, 25.41 20.43, 25.44 21.04 C25.47 21.65, 25.47 20.43, 25.44 21.04" stroke="none" stroke-width="0" fill="#ffd43b"></path><path d="M25.44 21.04 C25.44 22.25, 25.37 23.49, 25.25 24.69 C25.12 25.89, 24.92 27.09, 24.67 28.23 C24.42 29.38, 24.1 30.5, 23.74 31.55 C23.37 32.61, 22.94 33.63, 22.46 34.56 C21.99 35.49, 21.46 36.37, 20.9 37.15 C20.33 37.93, 19.72 38.65, 19.08 39.25 C18.44 39.86, 17.76 40.39, 17.07 40.8 C16.38 41.22, 15.65 41.54, 14.93 41.75 C14.2 41.96, 13.46 42.07, 12.72 42.07 C11.98 42.07, 11.24 41.96, 10.51 41.75 C9.79 41.54, 9.06 41.22, 8.37 40.8 C7.68 40.39, 7 39.86, 6.36 39.25 C5.72 38.65, 5.11 37.93, 4.54 37.15 C3.98 36.37, 3.45 35.49, 2.98 34.56 C2.5 33.63, 2.07 32.61, 1.7 31.55 C1.34 30.5, 1.02 29.38, 0.77 28.23 C0.52 27.09, 0.32 25.89, 0.19 24.69 C0.07 23.49, 0 22.25, 0 21.04 C0 19.82, 0.07 18.58, 0.19 17.38 C0.32 16.18, 0.52 14.99, 0.77 13.84 C1.02 12.7, 1.34 11.57, 1.7 10.52 C2.07 9.46, 2.5 8.45, 2.98 7.51 C3.45 6.58, 3.98 5.7, 4.54 4.92 C5.11 4.14, 5.72 3.43, 6.36 2.82 C7 2.21, 7.68 1.69, 8.37 1.27 C9.06 0.85, 9.79 0.53, 10.51 0.32 C11.24 0.11, 11.98 0, 12.72 0 C13.46 0, 14.2 0.11, 14.93 0.32 C15.65 0.53, 16.38 0.85, 17.07 1.27 C17.76 1.69, 18.44 2.21, 19.08 2.82 C19.72 3.43, 20.33 4.14, 20.9 4.92 C21.46 5.7, 21.99 6.58, 22.46 7.51 C22.94 8.45, 23.37 9.46, 23.74 10.52 C24.1 11.57, 24.42 12.7, 24.67 13.84 C24.92 14.99, 25.12 16.18, 25.25 17.38 C25.37 18.58, 25.41 20.43, 25.44 21.04 C25.47 21.65, 25.47 20.43, 25.44 21.04" stroke="#f08c00" stroke-width="1" fill="none"></path></g><g stroke-linecap="round" transform="translate(28.01976734056427 87.9702145584331) rotate(0 4.280654075163113 4.280654075163113)"><path d="M8.56 4.28 C8.56 4.53, 8.54 4.78, 8.5 5.02 C8.45 5.27, 8.39 5.51, 8.3 5.74 C8.22 5.98, 8.11 6.21, 7.99 6.42 C7.86 6.64, 7.72 6.84, 7.56 7.03 C7.4 7.22, 7.22 7.4, 7.03 7.56 C6.84 7.72, 6.64 7.86, 6.42 7.99 C6.21 8.11, 5.98 8.22, 5.74 8.3 C5.51 8.39, 5.27 8.45, 5.02 8.5 C4.78 8.54, 4.53 8.56, 4.28 8.56 C4.03 8.56, 3.78 8.54, 3.54 8.5 C3.29 8.45, 3.05 8.39, 2.82 8.3 C2.58 8.22, 2.35 8.11, 2.14 7.99 C1.93 7.86, 1.72 7.72, 1.53 7.56 C1.34 7.4, 1.16 7.22, 1 7.03 C0.84 6.84, 0.7 6.64, 0.57 6.42 C0.45 6.21, 0.34 5.98, 0.26 5.74 C0.17 5.51, 0.11 5.27, 0.07 5.02 C0.02 4.78, 0 4.53, 0 4.28 C0 4.03, 0.02 3.78, 0.07 3.54 C0.11 3.29, 0.17 3.05, 0.26 2.82 C0.34 2.58, 0.45 2.35, 0.57 2.14 C0.7 1.93, 0.84 1.72, 1 1.53 C1.16 1.34, 1.34 1.16, 1.53 1 C1.72 0.84, 1.93 0.7, 2.14 0.57 C2.35 0.45, 2.58 0.34, 2.82 0.26 C3.05 0.17, 3.29 0.11, 3.54 0.07 C3.78 0.02, 4.03 0, 4.28 0 C4.53 0, 4.78 0.02, 5.02 0.07 C5.27 0.11, 5.51 0.17, 5.74 0.26 C5.98 0.34, 6.21 0.45, 6.42 0.57 C6.64 0.7, 6.84 0.84, 7.03 1 C7.22 1.16, 7.4 1.34, 7.56 1.53 C7.72 1.72, 7.86 1.93, 7.99 2.14 C8.11 2.35, 8.22 2.58, 8.3 2.82 C8.39 3.05, 8.45 3.29, 8.5 3.54 C8.54 3.78, 8.55 4.16, 8.56 4.28 C8.57 4.4, 8.57 4.16, 8.56 4.28" stroke="none" stroke-width="0" fill="#3bc9db"></path><path d="M8.56 4.28 C8.56 4.53, 8.54 4.78, 8.5 5.02 C8.45 5.27, 8.39 5.51, 8.3 5.74 C8.22 5.98, 8.11 6.21, 7.99 6.42 C7.86 6.64, 7.72 6.84, 7.56 7.03 C7.4 7.22, 7.22 7.4, 7.03 7.56 C6.84 7.72, 6.64 7.86, 6.42 7.99 C6.21 8.11, 5.98 8.22, 5.74 8.3 C5.51 8.39, 5.27 8.45, 5.02 8.5 C4.78 8.54, 4.53 8.56, 4.28 8.56 C4.03 8.56, 3.78 8.54, 3.54 8.5 C3.29 8.45, 3.05 8.39, 2.82 8.3 C2.58 8.22, 2.35 8.11, 2.14 7.99 C1.93 7.86, 1.72 7.72, 1.53 7.56 C1.34 7.4, 1.16 7.22, 1 7.03 C0.84 6.84, 0.7 6.64, 0.57 6.42 C0.45 6.21, 0.34 5.98, 0.26 5.74 C0.17 5.51, 0.11 5.27, 0.07 5.02 C0.02 4.78, 0 4.53, 0 4.28 C0 4.03, 0.02 3.78, 0.07 3.54 C0.11 3.29, 0.17 3.05, 0.26 2.82 C0.34 2.58, 0.45 2.35, 0.57 2.14 C0.7 1.93, 0.84 1.72, 1 1.53 C1.16 1.34, 1.34 1.16, 1.53 1 C1.72 0.84, 1.93 0.7, 2.14 0.57 C2.35 0.45, 2.58 0.34, 2.82 0.26 C3.05 0.17, 3.29 0.11, 3.54 0.07 C3.78 0.02, 4.03 0, 4.28 0 C4.53 0, 4.78 0.02, 5.02 0.07 C5.27 0.11, 5.51 0.17, 5.74 0.26 C5.98 0.34, 6.21 0.45, 6.42 0.57 C6.64 0.7, 6.84 0.84, 7.03 1 C7.22 1.16, 7.4 1.34, 7.56 1.53 C7.72 1.72, 7.86 1.93, 7.99 2.14 C8.11 2.35, 8.22 2.58, 8.3 2.82 C8.39 3.05, 8.45 3.29, 8.5 3.54 C8.54 3.78, 8.55 4.16, 8.56 4.28 C8.57 4.4, 8.57 4.16, 8.56 4.28" stroke="#1971c2" stroke-width="1" fill="none"></path></g><g stroke-linecap="round" transform="translate(28.01976734056427 118.913228301755) rotate(0 4.280654075163113 4.280654075163113)"><path d="M8.56 4.28 C8.56 4.53, 8.54 4.78, 8.5 5.02 C8.45 5.27, 8.39 5.51, 8.3 5.74 C8.22 5.98, 8.11 6.21, 7.99 6.42 C7.86 6.64, 7.72 6.84, 7.56 7.03 C7.4 7.22, 7.22 7.4, 7.03 7.56 C6.84 7.72, 6.64 7.86, 6.42 7.99 C6.21 8.11, 5.98 8.22, 5.74 8.3 C5.51 8.39, 5.27 8.45, 5.02 8.5 C4.78 8.54, 4.53 8.56, 4.28 8.56 C4.03 8.56, 3.78 8.54, 3.54 8.5 C3.29 8.45, 3.05 8.39, 2.82 8.3 C2.58 8.22, 2.35 8.11, 2.14 7.99 C1.93 7.86, 1.72 7.72, 1.53 7.56 C1.34 7.4, 1.16 7.22, 1 7.03 C0.84 6.84, 0.7 6.64, 0.57 6.42 C0.45 6.21, 0.34 5.98, 0.26 5.74 C0.17 5.51, 0.11 5.27, 0.07 5.02 C0.02 4.78, 0 4.53, 0 4.28 C0 4.03, 0.02 3.78, 0.07 3.54 C0.11 3.29, 0.17 3.05, 0.26 2.82 C0.34 2.58, 0.45 2.35, 0.57 2.14 C0.7 1.93, 0.84 1.72, 1 1.53 C1.16 1.34, 1.34 1.16, 1.53 1 C1.72 0.84, 1.93 0.7, 2.14 0.57 C2.35 0.45, 2.58 0.34, 2.82 0.26 C3.05 0.17, 3.29 0.11, 3.54 0.07 C3.78 0.02, 4.03 0, 4.28 0 C4.53 0, 4.78 0.02, 5.02 0.07 C5.27 0.11, 5.51 0.17, 5.74 0.26 C5.98 0.34, 6.21 0.45, 6.42 0.57 C6.64 0.7, 6.84 0.84, 7.03 1 C7.22 1.16, 7.4 1.34, 7.56 1.53 C7.72 1.72, 7.86 1.93, 7.99 2.14 C8.11 2.35, 8.22 2.58, 8.3 2.82 C8.39 3.05, 8.45 3.29, 8.5 3.54 C8.54 3.78, 8.55 4.16, 8.56 4.28 C8.57 4.4, 8.57 4.16, 8.56 4.28" stroke="none" stroke-width="0" fill="#3bc9db"></path><path d="M8.56 4.28 C8.56 4.53, 8.54 4.78, 8.5 5.02 C8.45 5.27, 8.39 5.51, 8.3 5.74 C8.22 5.98, 8.11 6.21, 7.99 6.42 C7.86 6.64, 7.72 6.84, 7.56 7.03 C7.4 7.22, 7.22 7.4, 7.03 7.56 C6.84 7.72, 6.64 7.86, 6.42 7.99 C6.21 8.11, 5.98 8.22, 5.74 8.3 C5.51 8.39, 5.27 8.45, 5.02 8.5 C4.78 8.54, 4.53 8.56, 4.28 8.56 C4.03 8.56, 3.78 8.54, 3.54 8.5 C3.29 8.45, 3.05 8.39, 2.82 8.3 C2.58 8.22, 2.35 8.11, 2.14 7.99 C1.93 7.86, 1.72 7.72, 1.53 7.56 C1.34 7.4, 1.16 7.22, 1 7.03 C0.84 6.84, 0.7 6.64, 0.57 6.42 C0.45 6.21, 0.34 5.98, 0.26 5.74 C0.17 5.51, 0.11 5.27, 0.07 5.02 C0.02 4.78, 0 4.53, 0 4.28 C0 4.03, 0.02 3.78, 0.07 3.54 C0.11 3.29, 0.17 3.05, 0.26 2.82 C0.34 2.58, 0.45 2.35, 0.57 2.14 C0.7 1.93, 0.84 1.72, 1 1.53 C1.16 1.34, 1.34 1.16, 1.53 1 C1.72 0.84, 1.93 0.7, 2.14 0.57 C2.35 0.45, 2.58 0.34, 2.82 0.26 C3.05 0.17, 3.29 0.11, 3.54 0.07 C3.78 0.02, 4.03 0, 4.28 0 C4.53 0, 4.78 0.02, 5.02 0.07 C5.27 0.11, 5.51 0.17, 5.74 0.26 C5.98 0.34, 6.21 0.45, 6.42 0.57 C6.64 0.7, 6.84 0.84, 7.03 1 C7.22 1.16, 7.4 1.34, 7.56 1.53 C7.72 1.72, 7.86 1.93, 7.99 2.14 C8.11 2.35, 8.22 2.58, 8.3 2.82 C8.39 3.05, 8.45 3.29, 8.5 3.54 C8.54 3.78, 8.55 4.16, 8.56 4.28 C8.57 4.4, 8.57 4.16, 8.56 4.28" stroke="#1971c2" stroke-width="1" fill="none"></path></g><g stroke-linecap="round" transform="translate(158.1392622277873 87.97021455843287) rotate(0 4.280654075163113 4.280654075163113)"><path d="M8.56 4.28 C8.56 4.53, 8.54 4.78, 8.5 5.02 C8.45 5.27, 8.39 5.51, 8.3 5.74 C8.22 5.98, 8.11 6.21, 7.99 6.42 C7.86 6.64, 7.72 6.84, 7.56 7.03 C7.4 7.22, 7.22 7.4, 7.03 7.56 C6.84 7.72, 6.64 7.86, 6.42 7.99 C6.21 8.11, 5.98 8.22, 5.74 8.3 C5.51 8.39, 5.27 8.45, 5.02 8.5 C4.78 8.54, 4.53 8.56, 4.28 8.56 C4.03 8.56, 3.78 8.54, 3.54 8.5 C3.29 8.45, 3.05 8.39, 2.82 8.3 C2.58 8.22, 2.35 8.11, 2.14 7.99 C1.93 7.86, 1.72 7.72, 1.53 7.56 C1.34 7.4, 1.16 7.22, 1 7.03 C0.84 6.84, 0.7 6.64, 0.57 6.42 C0.45 6.21, 0.34 5.98, 0.26 5.74 C0.17 5.51, 0.11 5.27, 0.07 5.02 C0.02 4.78, 0 4.53, 0 4.28 C0 4.03, 0.02 3.78, 0.07 3.54 C0.11 3.29, 0.17 3.05, 0.26 2.82 C0.34 2.58, 0.45 2.35, 0.57 2.14 C0.7 1.93, 0.84 1.72, 1 1.53 C1.16 1.34, 1.34 1.16, 1.53 1 C1.72 0.84, 1.93 0.7, 2.14 0.57 C2.35 0.45, 2.58 0.34, 2.82 0.26 C3.05 0.17, 3.29 0.11, 3.54 0.07 C3.78 0.02, 4.03 0, 4.28 0 C4.53 0, 4.78 0.02, 5.02 0.07 C5.27 0.11, 5.51 0.17, 5.74 0.26 C5.98 0.34, 6.21 0.45, 6.42 0.57 C6.64 0.7, 6.84 0.84, 7.03 1 C7.22 1.16, 7.4 1.34, 7.56 1.53 C7.72 1.72, 7.86 1.93, 7.99 2.14 C8.11 2.35, 8.22 2.58, 8.3 2.82 C8.39 3.05, 8.45 3.29, 8.5 3.54 C8.54 3.78, 8.55 4.16, 8.56 4.28 C8.57 4.4, 8.57 4.16, 8.56 4.28" stroke="none" stroke-width="0" fill="#3bc9db"></path><path d="M8.56 4.28 C8.56 4.53, 8.54 4.78, 8.5 5.02 C8.45 5.27, 8.39 5.51, 8.3 5.74 C8.22 5.98, 8.11 6.21, 7.99 6.42 C7.86 6.64, 7.72 6.84, 7.56 7.03 C7.4 7.22, 7.22 7.4, 7.03 7.56 C6.84 7.72, 6.64 7.86, 6.42 7.99 C6.21 8.11, 5.98 8.22, 5.74 8.3 C5.51 8.39, 5.27 8.45, 5.02 8.5 C4.78 8.54, 4.53 8.56, 4.28 8.56 C4.03 8.56, 3.78 8.54, 3.54 8.5 C3.29 8.45, 3.05 8.39, 2.82 8.3 C2.58 8.22, 2.35 8.11, 2.14 7.99 C1.93 7.86, 1.72 7.72, 1.53 7.56 C1.34 7.4, 1.16 7.22, 1 7.03 C0.84 6.84, 0.7 6.64, 0.57 6.42 C0.45 6.21, 0.34 5.98, 0.26 5.74 C0.17 5.51, 0.11 5.27, 0.07 5.02 C0.02 4.78, 0 4.53, 0 4.28 C0 4.03, 0.02 3.78, 0.07 3.54 C0.11 3.29, 0.17 3.05, 0.26 2.82 C0.34 2.58, 0.45 2.35, 0.57 2.14 C0.7 1.93, 0.84 1.72, 1 1.53 C1.16 1.34, 1.34 1.16, 1.53 1 C1.72 0.84, 1.93 0.7, 2.14 0.57 C2.35 0.45, 2.58 0.34, 2.82 0.26 C3.05 0.17, 3.29 0.11, 3.54 0.07 C3.78 0.02, 4.03 0, 4.28 0 C4.53 0, 4.78 0.02, 5.02 0.07 C5.27 0.11, 5.51 0.17, 5.74 0.26 C5.98 0.34, 6.21 0.45, 6.42 0.57 C6.64 0.7, 6.84 0.84, 7.03 1 C7.22 1.16, 7.4 1.34, 7.56 1.53 C7.72 1.72, 7.86 1.93, 7.99 2.14 C8.11 2.35, 8.22 2.58, 8.3 2.82 C8.39 3.05, 8.45 3.29, 8.5 3.54 C8.54 3.78, 8.55 4.16, 8.56 4.28 C8.57 4.4, 8.57 4.16, 8.56 4.28" stroke="#1971c2" stroke-width="1" fill="none"></path></g><g stroke-linecap="round" transform="translate(158.1392622277873 118.913228301755) rotate(0 4.280654075163113 4.280654075163113)"><path d="M8.56 4.28 C8.56 4.53, 8.54 4.78, 8.5 5.02 C8.45 5.27, 8.39 5.51, 8.3 5.74 C8.22 5.98, 8.11 6.21, 7.99 6.42 C7.86 6.64, 7.72 6.84, 7.56 7.03 C7.4 7.22, 7.22 7.4, 7.03 7.56 C6.84 7.72, 6.64 7.86, 6.42 7.99 C6.21 8.11, 5.98 8.22, 5.74 8.3 C5.51 8.39, 5.27 8.45, 5.02 8.5 C4.78 8.54, 4.53 8.56, 4.28 8.56 C4.03 8.56, 3.78 8.54, 3.54 8.5 C3.29 8.45, 3.05 8.39, 2.82 8.3 C2.58 8.22, 2.35 8.11, 2.14 7.99 C1.93 7.86, 1.72 7.72, 1.53 7.56 C1.34 7.4, 1.16 7.22, 1 7.03 C0.84 6.84, 0.7 6.64, 0.57 6.42 C0.45 6.21, 0.34 5.98, 0.26 5.74 C0.17 5.51, 0.11 5.27, 0.07 5.02 C0.02 4.78, 0 4.53, 0 4.28 C0 4.03, 0.02 3.78, 0.07 3.54 C0.11 3.29, 0.17 3.05, 0.26 2.82 C0.34 2.58, 0.45 2.35, 0.57 2.14 C0.7 1.93, 0.84 1.72, 1 1.53 C1.16 1.34, 1.34 1.16, 1.53 1 C1.72 0.84, 1.93 0.7, 2.14 0.57 C2.35 0.45, 2.58 0.34, 2.82 0.26 C3.05 0.17, 3.29 0.11, 3.54 0.07 C3.78 0.02, 4.03 0, 4.28 0 C4.53 0, 4.78 0.02, 5.02 0.07 C5.27 0.11, 5.51 0.17, 5.74 0.26 C5.98 0.34, 6.21 0.45, 6.42 0.57 C6.64 0.7, 6.84 0.84, 7.03 1 C7.22 1.16, 7.4 1.34, 7.56 1.53 C7.72 1.72, 7.86 1.93, 7.99 2.14 C8.11 2.35, 8.22 2.58, 8.3 2.82 C8.39 3.05, 8.45 3.29, 8.5 3.54 C8.54 3.78, 8.55 4.16, 8.56 4.28 C8.57 4.4, 8.57 4.16, 8.56 4.28" stroke="none" stroke-width="0" fill="#3bc9db"></path><path d="M8.56 4.28 C8.56 4.53, 8.54 4.78, 8.5 5.02 C8.45 5.27, 8.39 5.51, 8.3 5.74 C8.22 5.98, 8.11 6.21, 7.99 6.42 C7.86 6.64, 7.72 6.84, 7.56 7.03 C7.4 7.22, 7.22 7.4, 7.03 7.56 C6.84 7.72, 6.64 7.86, 6.42 7.99 C6.21 8.11, 5.98 8.22, 5.74 8.3 C5.51 8.39, 5.27 8.45, 5.02 8.5 C4.78 8.54, 4.53 8.56, 4.28 8.56 C4.03 8.56, 3.78 8.54, 3.54 8.5 C3.29 8.45, 3.05 8.39, 2.82 8.3 C2.58 8.22, 2.35 8.11, 2.14 7.99 C1.93 7.86, 1.72 7.72, 1.53 7.56 C1.34 7.4, 1.16 7.22, 1 7.03 C0.84 6.84, 0.7 6.64, 0.57 6.42 C0.45 6.21, 0.34 5.98, 0.26 5.74 C0.17 5.51, 0.11 5.27, 0.07 5.02 C0.02 4.78, 0 4.53, 0 4.28 C0 4.03, 0.02 3.78, 0.07 3.54 C0.11 3.29, 0.17 3.05, 0.26 2.82 C0.34 2.58, 0.45 2.35, 0.57 2.14 C0.7 1.93, 0.84 1.72, 1 1.53 C1.16 1.34, 1.34 1.16, 1.53 1 C1.72 0.84, 1.93 0.7, 2.14 0.57 C2.35 0.45, 2.58 0.34, 2.82 0.26 C3.05 0.17, 3.29 0.11, 3.54 0.07 C3.78 0.02, 4.03 0, 4.28 0 C4.53 0, 4.78 0.02, 5.02 0.07 C5.27 0.11, 5.51 0.17, 5.74 0.26 C5.98 0.34, 6.21 0.45, 6.42 0.57 C6.64 0.7, 6.84 0.84, 7.03 1 C7.22 1.16, 7.4 1.34, 7.56 1.53 C7.72 1.72, 7.86 1.93, 7.99 2.14 C8.11 2.35, 8.22 2.58, 8.3 2.82 C8.39 3.05, 8.45 3.29, 8.5 3.54 C8.54 3.78, 8.55 4.16, 8.56 4.28 C8.57 4.4, 8.57 4.16, 8.56 4.28" stroke="#1971c2" stroke-width="1" fill="none"></path></g><g stroke-linecap="round" transform="translate(173.3522845790277 111.24650648115619) rotate(0 4.280654075163113 4.280654075163113)"><path d="M8.56 4.28 C8.56 4.53, 8.54 4.78, 8.5 5.02 C8.45 5.27, 8.39 5.51, 8.3 5.74 C8.22 5.98, 8.11 6.21, 7.99 6.42 C7.86 6.64, 7.72 6.84, 7.56 7.03 C7.4 7.22, 7.22 7.4, 7.03 7.56 C6.84 7.72, 6.64 7.86, 6.42 7.99 C6.21 8.11, 5.98 8.22, 5.74 8.3 C5.51 8.39, 5.27 8.45, 5.02 8.5 C4.78 8.54, 4.53 8.56, 4.28 8.56 C4.03 8.56, 3.78 8.54, 3.54 8.5 C3.29 8.45, 3.05 8.39, 2.82 8.3 C2.58 8.22, 2.35 8.11, 2.14 7.99 C1.93 7.86, 1.72 7.72, 1.53 7.56 C1.34 7.4, 1.16 7.22, 1 7.03 C0.84 6.84, 0.7 6.64, 0.57 6.42 C0.45 6.21, 0.34 5.98, 0.26 5.74 C0.17 5.51, 0.11 5.27, 0.07 5.02 C0.02 4.78, 0 4.53, 0 4.28 C0 4.03, 0.02 3.78, 0.07 3.54 C0.11 3.29, 0.17 3.05, 0.26 2.82 C0.34 2.58, 0.45 2.35, 0.57 2.14 C0.7 1.93, 0.84 1.72, 1 1.53 C1.16 1.34, 1.34 1.16, 1.53 1 C1.72 0.84, 1.93 0.7, 2.14 0.57 C2.35 0.45, 2.58 0.34, 2.82 0.26 C3.05 0.17, 3.29 0.11, 3.54 0.07 C3.78 0.02, 4.03 0, 4.28 0 C4.53 0, 4.78 0.02, 5.02 0.07 C5.27 0.11, 5.51 0.17, 5.74 0.26 C5.98 0.34, 6.21 0.45, 6.42 0.57 C6.64 0.7, 6.84 0.84, 7.03 1 C7.22 1.16, 7.4 1.34, 7.56 1.53 C7.72 1.72, 7.86 1.93, 7.99 2.14 C8.11 2.35, 8.22 2.58, 8.3 2.82 C8.39 3.05, 8.45 3.29, 8.5 3.54 C8.54 3.78, 8.55 4.16, 8.56 4.28 C8.57 4.4, 8.57 4.16, 8.56 4.28" stroke="none" stroke-width="0" fill="#4dabf7"></path><path d="M8.56 4.28 C8.56 4.53, 8.54 4.78, 8.5 5.02 C8.45 5.27, 8.39 5.51, 8.3 5.74 C8.22 5.98, 8.11 6.21, 7.99 6.42 C7.86 6.64, 7.72 6.84, 7.56 7.03 C7.4 7.22, 7.22 7.4, 7.03 7.56 C6.84 7.72, 6.64 7.86, 6.42 7.99 C6.21 8.11, 5.98 8.22, 5.74 8.3 C5.51 8.39, 5.27 8.45, 5.02 8.5 C4.78 8.54, 4.53 8.56, 4.28 8.56 C4.03 8.56, 3.78 8.54, 3.54 8.5 C3.29 8.45, 3.05 8.39, 2.82 8.3 C2.58 8.22, 2.35 8.11, 2.14 7.99 C1.93 7.86, 1.72 7.72, 1.53 7.56 C1.34 7.4, 1.16 7.22, 1 7.03 C0.84 6.84, 0.7 6.64, 0.57 6.42 C0.45 6.21, 0.34 5.98, 0.26 5.74 C0.17 5.51, 0.11 5.27, 0.07 5.02 C0.02 4.78, 0 4.53, 0 4.28 C0 4.03, 0.02 3.78, 0.07 3.54 C0.11 3.29, 0.17 3.05, 0.26 2.82 C0.34 2.58, 0.45 2.35, 0.57 2.14 C0.7 1.93, 0.84 1.72, 1 1.53 C1.16 1.34, 1.34 1.16, 1.53 1 C1.72 0.84, 1.93 0.7, 2.14 0.57 C2.35 0.45, 2.58 0.34, 2.82 0.26 C3.05 0.17, 3.29 0.11, 3.54 0.07 C3.78 0.02, 4.03 0, 4.28 0 C4.53 0, 4.78 0.02, 5.02 0.07 C5.27 0.11, 5.51 0.17, 5.74 0.26 C5.98 0.34, 6.21 0.45, 6.42 0.57 C6.64 0.7, 6.84 0.84, 7.03 1 C7.22 1.16, 7.4 1.34, 7.56 1.53 C7.72 1.72, 7.86 1.93, 7.99 2.14 C8.11 2.35, 8.22 2.58, 8.3 2.82 C8.39 3.05, 8.45 3.29, 8.5 3.54 C8.54 3.78, 8.55 4.16, 8.56 4.28 C8.57 4.4, 8.57 4.16, 8.56 4.28" stroke="#1971c2" stroke-width="1" fill="none"></path></g><g stroke-linecap="round" transform="translate(173.3522845790277 142.1895202244781) rotate(0 4.280654075163113 4.280654075163113)"><path d="M8.56 4.28 C8.56 4.53, 8.54 4.78, 8.5 5.02 C8.45 5.27, 8.39 5.51, 8.3 5.74 C8.22 5.98, 8.11 6.21, 7.99 6.42 C7.86 6.64, 7.72 6.84, 7.56 7.03 C7.4 7.22, 7.22 7.4, 7.03 7.56 C6.84 7.72, 6.64 7.86, 6.42 7.99 C6.21 8.11, 5.98 8.22, 5.74 8.3 C5.51 8.39, 5.27 8.45, 5.02 8.5 C4.78 8.54, 4.53 8.56, 4.28 8.56 C4.03 8.56, 3.78 8.54, 3.54 8.5 C3.29 8.45, 3.05 8.39, 2.82 8.3 C2.58 8.22, 2.35 8.11, 2.14 7.99 C1.93 7.86, 1.72 7.72, 1.53 7.56 C1.34 7.4, 1.16 7.22, 1 7.03 C0.84 6.84, 0.7 6.64, 0.57 6.42 C0.45 6.21, 0.34 5.98, 0.26 5.74 C0.17 5.51, 0.11 5.27, 0.07 5.02 C0.02 4.78, 0 4.53, 0 4.28 C0 4.03, 0.02 3.78, 0.07 3.54 C0.11 3.29, 0.17 3.05, 0.26 2.82 C0.34 2.58, 0.45 2.35, 0.57 2.14 C0.7 1.93, 0.84 1.72, 1 1.53 C1.16 1.34, 1.34 1.16, 1.53 1 C1.72 0.84, 1.93 0.7, 2.14 0.57 C2.35 0.45, 2.58 0.34, 2.82 0.26 C3.05 0.17, 3.29 0.11, 3.54 0.07 C3.78 0.02, 4.03 0, 4.28 0 C4.53 0, 4.78 0.02, 5.02 0.07 C5.27 0.11, 5.51 0.17, 5.74 0.26 C5.98 0.34, 6.21 0.45, 6.42 0.57 C6.64 0.7, 6.84 0.84, 7.03 1 C7.22 1.16, 7.4 1.34, 7.56 1.53 C7.72 1.72, 7.86 1.93, 7.99 2.14 C8.11 2.35, 8.22 2.58, 8.3 2.82 C8.39 3.05, 8.45 3.29, 8.5 3.54 C8.54 3.78, 8.55 4.16, 8.56 4.28 C8.57 4.4, 8.57 4.16, 8.56 4.28" stroke="none" stroke-width="0" fill="#4dabf7"></path><path d="M8.56 4.28 C8.56 4.53, 8.54 4.78, 8.5 5.02 C8.45 5.27, 8.39 5.51, 8.3 5.74 C8.22 5.98, 8.11 6.21, 7.99 6.42 C7.86 6.64, 7.72 6.84, 7.56 7.03 C7.4 7.22, 7.22 7.4, 7.03 7.56 C6.84 7.72, 6.64 7.86, 6.42 7.99 C6.21 8.11, 5.98 8.22, 5.74 8.3 C5.51 8.39, 5.27 8.45, 5.02 8.5 C4.78 8.54, 4.53 8.56, 4.28 8.56 C4.03 8.56, 3.78 8.54, 3.54 8.5 C3.29 8.45, 3.05 8.39, 2.82 8.3 C2.58 8.22, 2.35 8.11, 2.14 7.99 C1.93 7.86, 1.72 7.72, 1.53 7.56 C1.34 7.4, 1.16 7.22, 1 7.03 C0.84 6.84, 0.7 6.64, 0.57 6.42 C0.45 6.21, 0.34 5.98, 0.26 5.74 C0.17 5.51, 0.11 5.27, 0.07 5.02 C0.02 4.78, 0 4.53, 0 4.28 C0 4.03, 0.02 3.78, 0.07 3.54 C0.11 3.29, 0.17 3.05, 0.26 2.82 C0.34 2.58, 0.45 2.35, 0.57 2.14 C0.7 1.93, 0.84 1.72, 1 1.53 C1.16 1.34, 1.34 1.16, 1.53 1 C1.72 0.84, 1.93 0.7, 2.14 0.57 C2.35 0.45, 2.58 0.34, 2.82 0.26 C3.05 0.17, 3.29 0.11, 3.54 0.07 C3.78 0.02, 4.03 0, 4.28 0 C4.53 0, 4.78 0.02, 5.02 0.07 C5.27 0.11, 5.51 0.17, 5.74 0.26 C5.98 0.34, 6.21 0.45, 6.42 0.57 C6.64 0.7, 6.84 0.84, 7.03 1 C7.22 1.16, 7.4 1.34, 7.56 1.53 C7.72 1.72, 7.86 1.93, 7.99 2.14 C8.11 2.35, 8.22 2.58, 8.3 2.82 C8.39 3.05, 8.45 3.29, 8.5 3.54 C8.54 3.78, 8.55 4.16, 8.56 4.28 C8.57 4.4, 8.57 4.16, 8.56 4.28" stroke="#1971c2" stroke-width="1" fill="none"></path></g><g stroke-linecap="round" transform="translate(13.13351776578088 111.2465064811563) rotate(0 4.280654075163113 4.280654075163113)"><path d="M8.56 4.28 C8.56 4.53, 8.54 4.78, 8.5 5.02 C8.45 5.27, 8.39 5.51, 8.3 5.74 C8.22 5.98, 8.11 6.21, 7.99 6.42 C7.86 6.64, 7.72 6.84, 7.56 7.03 C7.4 7.22, 7.22 7.4, 7.03 7.56 C6.84 7.72, 6.64 7.86, 6.42 7.99 C6.21 8.11, 5.98 8.22, 5.74 8.3 C5.51 8.39, 5.27 8.45, 5.02 8.5 C4.78 8.54, 4.53 8.56, 4.28 8.56 C4.03 8.56, 3.78 8.54, 3.54 8.5 C3.29 8.45, 3.05 8.39, 2.82 8.3 C2.58 8.22, 2.35 8.11, 2.14 7.99 C1.93 7.86, 1.72 7.72, 1.53 7.56 C1.34 7.4, 1.16 7.22, 1 7.03 C0.84 6.84, 0.7 6.64, 0.57 6.42 C0.45 6.21, 0.34 5.98, 0.26 5.74 C0.17 5.51, 0.11 5.27, 0.07 5.02 C0.02 4.78, 0 4.53, 0 4.28 C0 4.03, 0.02 3.78, 0.07 3.54 C0.11 3.29, 0.17 3.05, 0.26 2.82 C0.34 2.58, 0.45 2.35, 0.57 2.14 C0.7 1.93, 0.84 1.72, 1 1.53 C1.16 1.34, 1.34 1.16, 1.53 1 C1.72 0.84, 1.93 0.7, 2.14 0.57 C2.35 0.45, 2.58 0.34, 2.82 0.26 C3.05 0.17, 3.29 0.11, 3.54 0.07 C3.78 0.02, 4.03 0, 4.28 0 C4.53 0, 4.78 0.02, 5.02 0.07 C5.27 0.11, 5.51 0.17, 5.74 0.26 C5.98 0.34, 6.21 0.45, 6.42 0.57 C6.64 0.7, 6.84 0.84, 7.03 1 C7.22 1.16, 7.4 1.34, 7.56 1.53 C7.72 1.72, 7.86 1.93, 7.99 2.14 C8.11 2.35, 8.22 2.58, 8.3 2.82 C8.39 3.05, 8.45 3.29, 8.5 3.54 C8.54 3.78, 8.55 4.16, 8.56 4.28 C8.57 4.4, 8.57 4.16, 8.56 4.28" stroke="none" stroke-width="0" fill="#4dabf7"></path><path d="M8.56 4.28 C8.56 4.53, 8.54 4.78, 8.5 5.02 C8.45 5.27, 8.39 5.51, 8.3 5.74 C8.22 5.98, 8.11 6.21, 7.99 6.42 C7.86 6.64, 7.72 6.84, 7.56 7.03 C7.4 7.22, 7.22 7.4, 7.03 7.56 C6.84 7.72, 6.64 7.86, 6.42 7.99 C6.21 8.11, 5.98 8.22, 5.74 8.3 C5.51 8.39, 5.27 8.45, 5.02 8.5 C4.78 8.54, 4.53 8.56, 4.28 8.56 C4.03 8.56, 3.78 8.54, 3.54 8.5 C3.29 8.45, 3.05 8.39, 2.82 8.3 C2.58 8.22, 2.35 8.11, 2.14 7.99 C1.93 7.86, 1.72 7.72, 1.53 7.56 C1.34 7.4, 1.16 7.22, 1 7.03 C0.84 6.84, 0.7 6.64, 0.57 6.42 C0.45 6.21, 0.34 5.98, 0.26 5.74 C0.17 5.51, 0.11 5.27, 0.07 5.02 C0.02 4.78, 0 4.53, 0 4.28 C0 4.03, 0.02 3.78, 0.07 3.54 C0.11 3.29, 0.17 3.05, 0.26 2.82 C0.34 2.58, 0.45 2.35, 0.57 2.14 C0.7 1.93, 0.84 1.72, 1 1.53 C1.16 1.34, 1.34 1.16, 1.53 1 C1.72 0.84, 1.93 0.7, 2.14 0.57 C2.35 0.45, 2.58 0.34, 2.82 0.26 C3.05 0.17, 3.29 0.11, 3.54 0.07 C3.78 0.02, 4.03 0, 4.28 0 C4.53 0, 4.78 0.02, 5.02 0.07 C5.27 0.11, 5.51 0.17, 5.74 0.26 C5.98 0.34, 6.21 0.45, 6.42 0.57 C6.64 0.7, 6.84 0.84, 7.03 1 C7.22 1.16, 7.4 1.34, 7.56 1.53 C7.72 1.72, 7.86 1.93, 7.99 2.14 C8.11 2.35, 8.22 2.58, 8.3 2.82 C8.39 3.05, 8.45 3.29, 8.5 3.54 C8.54 3.78, 8.55 4.16, 8.56 4.28 C8.57 4.4, 8.57 4.16, 8.56 4.28" stroke="#1971c2" stroke-width="1" fill="none"></path></g><g stroke-linecap="round" transform="translate(13.13351776578088 142.1895202244782) rotate(0 4.280654075163113 4.280654075163113)"><path d="M8.56 4.28 C8.56 4.53, 8.54 4.78, 8.5 5.02 C8.45 5.27, 8.39 5.51, 8.3 5.74 C8.22 5.98, 8.11 6.21, 7.99 6.42 C7.86 6.64, 7.72 6.84, 7.56 7.03 C7.4 7.22, 7.22 7.4, 7.03 7.56 C6.84 7.72, 6.64 7.86, 6.42 7.99 C6.21 8.11, 5.98 8.22, 5.74 8.3 C5.51 8.39, 5.27 8.45, 5.02 8.5 C4.78 8.54, 4.53 8.56, 4.28 8.56 C4.03 8.56, 3.78 8.54, 3.54 8.5 C3.29 8.45, 3.05 8.39, 2.82 8.3 C2.58 8.22, 2.35 8.11, 2.14 7.99 C1.93 7.86, 1.72 7.72, 1.53 7.56 C1.34 7.4, 1.16 7.22, 1 7.03 C0.84 6.84, 0.7 6.64, 0.57 6.42 C0.45 6.21, 0.34 5.98, 0.26 5.74 C0.17 5.51, 0.11 5.27, 0.07 5.02 C0.02 4.78, 0 4.53, 0 4.28 C0 4.03, 0.02 3.78, 0.07 3.54 C0.11 3.29, 0.17 3.05, 0.26 2.82 C0.34 2.58, 0.45 2.35, 0.57 2.14 C0.7 1.93, 0.84 1.72, 1 1.53 C1.16 1.34, 1.34 1.16, 1.53 1 C1.72 0.84, 1.93 0.7, 2.14 0.57 C2.35 0.45, 2.58 0.34, 2.82 0.26 C3.05 0.17, 3.29 0.11, 3.54 0.07 C3.78 0.02, 4.03 0, 4.28 0 C4.53 0, 4.78 0.02, 5.02 0.07 C5.27 0.11, 5.51 0.17, 5.74 0.26 C5.98 0.34, 6.21 0.45, 6.42 0.57 C6.64 0.7, 6.84 0.84, 7.03 1 C7.22 1.16, 7.4 1.34, 7.56 1.53 C7.72 1.72, 7.86 1.93, 7.99 2.14 C8.11 2.35, 8.22 2.58, 8.3 2.82 C8.39 3.05, 8.45 3.29, 8.5 3.54 C8.54 3.78, 8.55 4.16, 8.56 4.28 C8.57 4.4, 8.57 4.16, 8.56 4.28" stroke="none" stroke-width="0" fill="#4dabf7"></path><path d="M8.56 4.28 C8.56 4.53, 8.54 4.78, 8.5 5.02 C8.45 5.27, 8.39 5.51, 8.3 5.74 C8.22 5.98, 8.11 6.21, 7.99 6.42 C7.86 6.64, 7.72 6.84, 7.56 7.03 C7.4 7.22, 7.22 7.4, 7.03 7.56 C6.84 7.72, 6.64 7.86, 6.42 7.99 C6.21 8.11, 5.98 8.22, 5.74 8.3 C5.51 8.39, 5.27 8.45, 5.02 8.5 C4.78 8.54, 4.53 8.56, 4.28 8.56 C4.03 8.56, 3.78 8.54, 3.54 8.5 C3.29 8.45, 3.05 8.39, 2.82 8.3 C2.58 8.22, 2.35 8.11, 2.14 7.99 C1.93 7.86, 1.72 7.72, 1.53 7.56 C1.34 7.4, 1.16 7.22, 1 7.03 C0.84 6.84, 0.7 6.64, 0.57 6.42 C0.45 6.21, 0.34 5.98, 0.26 5.74 C0.17 5.51, 0.11 5.27, 0.07 5.02 C0.02 4.78, 0 4.53, 0 4.28 C0 4.03, 0.02 3.78, 0.07 3.54 C0.11 3.29, 0.17 3.05, 0.26 2.82 C0.34 2.58, 0.45 2.35, 0.57 2.14 C0.7 1.93, 0.84 1.72, 1 1.53 C1.16 1.34, 1.34 1.16, 1.53 1 C1.72 0.84, 1.93 0.7, 2.14 0.57 C2.35 0.45, 2.58 0.34, 2.82 0.26 C3.05 0.17, 3.29 0.11, 3.54 0.07 C3.78 0.02, 4.03 0, 4.28 0 C4.53 0, 4.78 0.02, 5.02 0.07 C5.27 0.11, 5.51 0.17, 5.74 0.26 C5.98 0.34, 6.21 0.45, 6.42 0.57 C6.64 0.7, 6.84 0.84, 7.03 1 C7.22 1.16, 7.4 1.34, 7.56 1.53 C7.72 1.72, 7.86 1.93, 7.99 2.14 C8.11 2.35, 8.22 2.58, 8.3 2.82 C8.39 3.05, 8.45 3.29, 8.5 3.54 C8.54 3.78, 8.55 4.16, 8.56 4.28 C8.57 4.4, 8.57 4.16, 8.56 4.28" stroke="#1971c2" stroke-width="1" fill="none"></path></g></svg>