<svg version="1.1" xmlns="http://www.w3.org/2000/svg" viewBox="0 0 38.303569662775544 38.303569662775544" width="38.303569662775544" height="38.303569662775544">
  <!-- svg-source:excalidraw -->
  
  <defs>
    <style class="style-fonts">
      @font-face {
        font-family: "Virgil";
        src: url("https://excalidraw.com/Virgil.woff2");
      }
      @font-face {
        font-family: "Cascadia";
        src: url("https://excalidraw.com/Cascadia.woff2");
      }
    </style>
    
  </defs>
  <g stroke-linecap="round" transform="translate(15.320805134527859 10) rotate(0 3.83097969685997 9.151784831387772)"><path d="M4 0 L7.66 10 L4 18.3 L0 10" stroke="none" stroke-width="0" fill="#ffffff" fill-rule="evenodd"></path><path d="M4 0 C4.82 2.25, 5.65 4.5, 7.66 10 M4 0 C5.19 3.24, 6.37 6.47, 7.66 10 M7.66 10 C6.3 13.09, 4.94 16.17, 4 18.3 M7.66 10 C6.3 13.09, 4.94 16.18, 4 18.3 M4 18.3 C2.69 15.58, 1.37 12.85, 0 10 M4 18.3 C2.76 15.74, 1.53 13.18, 0 10 M0 10 C1.29 6.77, 2.58 3.55, 4 0 M0 10 C1.53 6.17, 3.06 2.34, 4 0" stroke="#ffffff" stroke-width="1" fill="none"></path></g><g stroke-linecap="round" transform="translate(15.320805134527859 10) rotate(89.99999999999994 3.83097969685997 9.151784831387772)"><path d="M4 0 L7.66 10 L4 18.3 L0 10" stroke="none" stroke-width="0" fill="#ffffff" fill-rule="evenodd"></path><path d="M4 0 C5.32 3.59, 6.63 7.19, 7.66 10 M4 0 C5.01 2.75, 6.02 5.51, 7.66 10 M7.66 10 C6.54 12.54, 5.42 15.08, 4 18.3 M7.66 10 C6.2 13.31, 4.74 16.63, 4 18.3 M4 18.3 C2.9 16.03, 1.81 13.75, 0 10 M4 18.3 C2.57 15.33, 1.13 12.35, 0 10 M0 10 C1.39 6.52, 2.78 3.05, 4 0 M0 10 C1.29 6.77, 2.58 3.54, 4 0" stroke="#ffffff" stroke-width="1" fill="none"></path></g><g stroke-linecap="round" transform="translate(15.320805134527859 10) rotate(44.99999999999995 3.83097969685997 9.151784831387772)"><path d="M4 0 L7.66 10 L4 18.3 L0 10" stroke="none" stroke-width="0" fill="#ffffff" fill-rule="evenodd"></path><path d="M4 0 C5.19 3.24, 6.37 6.48, 7.66 10 M4 0 C5.39 3.81, 6.79 7.62, 7.66 10 M7.66 10 C6.88 11.76, 6.11 13.53, 4 18.3 M7.66 10 C6.38 12.91, 5.09 15.83, 4 18.3 M4 18.3 C2.41 15, 0.82 11.7, 0 10 M4 18.3 C2.92 16.06, 1.84 13.81, 0 10 M0 10 C1.04 7.41, 2.07 4.81, 4 0 M0 10 C1.22 6.95, 2.44 3.91, 4 0" stroke="#ffffff" stroke-width="1" fill="none"></path></g><g stroke-linecap="round" transform="translate(15.320805134527859 10) rotate(134.99999999999994 3.83097969685997 9.151784831387772)"><path d="M4 0 L7.66 10 L4 18.3 L0 10" stroke="none" stroke-width="0" fill="#ffffff" fill-rule="evenodd"></path><path d="M4 0 C4.82 2.25, 5.64 4.49, 7.66 10 M4 0 C5.07 2.91, 6.13 5.82, 7.66 10 M7.66 10 C6.27 13.16, 4.88 16.31, 4 18.3 M7.66 10 C6.37 12.92, 5.08 15.85, 4 18.3 M4 18.3 C2.76 15.73, 1.52 13.16, 0 10 M4 18.3 C3.11 16.46, 2.22 14.61, 0 10 M0 10 C1.6 6.01, 3.19 2.02, 4 0 M0 10 C1.15 7.14, 2.29 4.27, 4 0" stroke="#ffffff" stroke-width="1" fill="none"></path></g></svg>