<svg version="1.1" xmlns="http://www.w3.org/2000/svg" viewBox="0 0 97.76175632408274 159.5293964381708" width="97.76175632408274" height="159.5293964381708">
  <!-- svg-source:excalidraw -->
  
  <defs>
    <style class="style-fonts">
      @font-face {
        font-family: "Virgil";
        src: url("https://excalidraw.com/Virgil.woff2");
      }
      @font-face {
        font-family: "Cascadia";
        src: url("https://excalidraw.com/Cascadia.woff2");
      }
    </style>
    
  </defs>
  <g stroke-linecap="round" transform="translate(32.25299295392733 10) rotate(0 16.627885208114094 5.542628402704679)"><path d="M33.26 5.54 C33.26 5.86, 33.17 6.19, 33 6.51 C32.84 6.82, 32.58 7.14, 32.25 7.44 C31.92 7.74, 31.51 8.04, 31.03 8.31 C30.55 8.59, 29.98 8.86, 29.37 9.11 C28.75 9.35, 28.05 9.58, 27.32 9.79 C26.58 9.99, 25.78 10.18, 24.94 10.34 C24.11 10.5, 23.22 10.64, 22.31 10.75 C21.41 10.86, 20.46 10.95, 19.52 11 C18.57 11.06, 17.59 11.09, 16.63 11.09 C15.67 11.09, 14.69 11.06, 13.74 11 C12.79 10.95, 11.85 10.86, 10.94 10.75 C10.04 10.64, 9.15 10.5, 8.31 10.34 C7.48 10.18, 6.68 9.99, 5.94 9.79 C5.2 9.58, 4.51 9.35, 3.89 9.11 C3.27 8.86, 2.71 8.59, 2.23 8.31 C1.75 8.04, 1.33 7.74, 1 7.44 C0.67 7.14, 0.42 6.82, 0.25 6.51 C0.09 6.19, 0 5.86, 0 5.54 C0 5.22, 0.09 4.9, 0.25 4.58 C0.42 4.26, 0.67 3.95, 1 3.65 C1.33 3.35, 1.75 3.05, 2.23 2.77 C2.71 2.49, 3.27 2.23, 3.89 1.98 C4.51 1.73, 5.2 1.5, 5.94 1.3 C6.68 1.09, 7.48 0.9, 8.31 0.74 C9.15 0.58, 10.04 0.44, 10.94 0.33 C11.85 0.22, 12.79 0.14, 13.74 0.08 C14.69 0.03, 15.67 0, 16.63 0 C17.59 0, 18.57 0.03, 19.52 0.08 C20.46 0.14, 21.41 0.22, 22.31 0.33 C23.22 0.44, 24.11 0.58, 24.94 0.74 C25.78 0.9, 26.58 1.09, 27.32 1.3 C28.05 1.5, 28.75 1.73, 29.37 1.98 C29.98 2.23, 30.55 2.49, 31.03 2.77 C31.51 3.05, 31.92 3.35, 32.25 3.65 C32.58 3.95, 32.84 4.26, 33 4.58 C33.17 4.9, 33.21 5.38, 33.26 5.54 C33.3 5.7, 33.3 5.38, 33.26 5.54" stroke="none" stroke-width="0" fill="#f08c00"></path><path d="M33.26 5.54 C33.26 5.86, 33.17 6.19, 33 6.51 C32.84 6.82, 32.58 7.14, 32.25 7.44 C31.92 7.74, 31.51 8.04, 31.03 8.31 C30.55 8.59, 29.98 8.86, 29.37 9.11 C28.75 9.35, 28.05 9.58, 27.32 9.79 C26.58 9.99, 25.78 10.18, 24.94 10.34 C24.11 10.5, 23.22 10.64, 22.31 10.75 C21.41 10.86, 20.46 10.95, 19.52 11 C18.57 11.06, 17.59 11.09, 16.63 11.09 C15.67 11.09, 14.69 11.06, 13.74 11 C12.79 10.95, 11.85 10.86, 10.94 10.75 C10.04 10.64, 9.15 10.5, 8.31 10.34 C7.48 10.18, 6.68 9.99, 5.94 9.79 C5.2 9.58, 4.51 9.35, 3.89 9.11 C3.27 8.86, 2.71 8.59, 2.23 8.31 C1.75 8.04, 1.33 7.74, 1 7.44 C0.67 7.14, 0.42 6.82, 0.25 6.51 C0.09 6.19, 0 5.86, 0 5.54 C0 5.22, 0.09 4.9, 0.25 4.58 C0.42 4.26, 0.67 3.95, 1 3.65 C1.33 3.35, 1.75 3.05, 2.23 2.77 C2.71 2.49, 3.27 2.23, 3.89 1.98 C4.51 1.73, 5.2 1.5, 5.94 1.3 C6.68 1.09, 7.48 0.9, 8.31 0.74 C9.15 0.58, 10.04 0.44, 10.94 0.33 C11.85 0.22, 12.79 0.14, 13.74 0.08 C14.69 0.03, 15.67 0, 16.63 0 C17.59 0, 18.57 0.03, 19.52 0.08 C20.46 0.14, 21.41 0.22, 22.31 0.33 C23.22 0.44, 24.11 0.58, 24.94 0.74 C25.78 0.9, 26.58 1.09, 27.32 1.3 C28.05 1.5, 28.75 1.73, 29.37 1.98 C29.98 2.23, 30.55 2.49, 31.03 2.77 C31.51 3.05, 31.92 3.35, 32.25 3.65 C32.58 3.95, 32.84 4.26, 33 4.58 C33.17 4.9, 33.21 5.38, 33.26 5.54 C33.3 5.7, 33.3 5.38, 33.26 5.54" stroke="#e03131" stroke-width="1" fill="none"></path></g><g stroke-linecap="round" transform="translate(28.974123638566198 13.63895611976153) rotate(0 19.11251173346443 9.747380984066865)"><path d="M38.23 9.75 C38.23 10.31, 38.13 10.88, 37.93 11.44 C37.74 12, 37.45 12.55, 37.07 13.08 C36.69 13.61, 36.22 14.13, 35.66 14.62 C35.11 15.11, 34.46 15.58, 33.75 16.01 C33.04 16.45, 32.25 16.85, 31.4 17.21 C30.55 17.58, 29.63 17.91, 28.67 18.19 C27.71 18.47, 26.69 18.71, 25.65 18.91 C24.61 19.1, 23.52 19.25, 22.43 19.35 C21.34 19.44, 20.22 19.49, 19.11 19.49 C18.01 19.49, 16.88 19.44, 15.79 19.35 C14.7 19.25, 13.62 19.1, 12.58 18.91 C11.54 18.71, 10.51 18.47, 9.56 18.19 C8.6 17.91, 7.67 17.58, 6.83 17.21 C5.98 16.85, 5.18 16.45, 4.47 16.01 C3.76 15.58, 3.11 15.11, 2.56 14.62 C2.01 14.13, 1.53 13.61, 1.15 13.08 C0.77 12.55, 0.48 12, 0.29 11.44 C0.1 10.88, 0 10.31, 0 9.75 C0 9.18, 0.1 8.61, 0.29 8.05 C0.48 7.5, 0.77 6.94, 1.15 6.41 C1.53 5.88, 2.01 5.36, 2.56 4.87 C3.11 4.39, 3.76 3.91, 4.47 3.48 C5.18 3.05, 5.98 2.64, 6.83 2.28 C7.67 1.92, 8.6 1.59, 9.56 1.31 C10.51 1.02, 11.54 0.78, 12.58 0.59 C13.62 0.39, 14.7 0.25, 15.79 0.15 C16.88 0.05, 18.01 0, 19.11 0 C20.22 0, 21.34 0.05, 22.43 0.15 C23.52 0.25, 24.61 0.39, 25.65 0.59 C26.69 0.78, 27.71 1.02, 28.67 1.31 C29.63 1.59, 30.55 1.92, 31.4 2.28 C32.25 2.64, 33.04 3.05, 33.75 3.48 C34.46 3.91, 35.11 4.39, 35.66 4.87 C36.22 5.36, 36.69 5.88, 37.07 6.41 C37.45 6.94, 37.74 7.5, 37.93 8.05 C38.13 8.61, 38.18 9.47, 38.23 9.75 C38.27 10.03, 38.27 9.47, 38.23 9.75" stroke="none" stroke-width="0" fill="#343a40"></path><path d="M38.23 9.75 C38.23 10.31, 38.13 10.88, 37.93 11.44 C37.74 12, 37.45 12.55, 37.07 13.08 C36.69 13.61, 36.22 14.13, 35.66 14.62 C35.11 15.11, 34.46 15.58, 33.75 16.01 C33.04 16.45, 32.25 16.85, 31.4 17.21 C30.55 17.58, 29.63 17.91, 28.67 18.19 C27.71 18.47, 26.69 18.71, 25.65 18.91 C24.61 19.1, 23.52 19.25, 22.43 19.35 C21.34 19.44, 20.22 19.49, 19.11 19.49 C18.01 19.49, 16.88 19.44, 15.79 19.35 C14.7 19.25, 13.62 19.1, 12.58 18.91 C11.54 18.71, 10.51 18.47, 9.56 18.19 C8.6 17.91, 7.67 17.58, 6.83 17.21 C5.98 16.85, 5.18 16.45, 4.47 16.01 C3.76 15.58, 3.11 15.11, 2.56 14.62 C2.01 14.13, 1.53 13.61, 1.15 13.08 C0.77 12.55, 0.48 12, 0.29 11.44 C0.1 10.88, 0 10.31, 0 9.75 C0 9.18, 0.1 8.61, 0.29 8.05 C0.48 7.5, 0.77 6.94, 1.15 6.41 C1.53 5.88, 2.01 5.36, 2.56 4.87 C3.11 4.39, 3.76 3.91, 4.47 3.48 C5.18 3.05, 5.98 2.64, 6.83 2.28 C7.67 1.92, 8.6 1.59, 9.56 1.31 C10.51 1.02, 11.54 0.78, 12.58 0.59 C13.62 0.39, 14.7 0.25, 15.79 0.15 C16.88 0.05, 18.01 0, 19.11 0 C20.22 0, 21.34 0.05, 22.43 0.15 C23.52 0.25, 24.61 0.39, 25.65 0.59 C26.69 0.78, 27.71 1.02, 28.67 1.31 C29.63 1.59, 30.55 1.92, 31.4 2.28 C32.25 2.64, 33.04 3.05, 33.75 3.48 C34.46 3.91, 35.11 4.39, 35.66 4.87 C36.22 5.36, 36.69 5.88, 37.07 6.41 C37.45 6.94, 37.74 7.5, 37.93 8.05 C38.13 8.61, 38.18 9.47, 38.23 9.75 C38.27 10.03, 38.27 9.47, 38.23 9.75" stroke="#1e1e1e" stroke-width="2" fill="none"></path></g><g stroke-linecap="round" transform="translate(15.071418890701239 43.59309072130446) rotate(0 33.809459271340245 52.96815285843317)"><path d="M42.5 13.25 L61.91 44.15 L65.1 50.46 L65.49 53 L65.1 55.54 L61.91 61.85 L42.5 92.69 L37.45 100.14 L34 102.62 L32.37 102 L28.32 97.03 L8.5 66.25 L3.72 58.38 L2.13 53 L2.52 50.46 L5.71 44.15 L28.32 8.9 L32.37 3.93 L34 3.31 L35.63 3.93 L42.5 13.25" stroke="none" stroke-width="0" fill="#868e96"></path><path d="M42.5 13.25 M42.5 13.25 C48.18 22.31, 53.87 31.37, 59.12 39.75 M42.5 13.25 C46.2 19.15, 49.91 25.06, 59.12 39.75 M59.12 39.75 C67.62 53, 67.62 53, 59.12 66.25 M59.12 39.75 C67.62 53, 67.62 53, 59.12 66.25 M59.12 66.25 C54.47 73.65, 49.81 81.06, 42.5 92.69 M59.12 66.25 C53.25 75.59, 47.38 84.92, 42.5 92.69 M42.5 92.69 C34 105.94, 34 105.94, 25.5 92.69 M42.5 92.69 C34 105.94, 34 105.94, 25.5 92.69 M25.5 92.69 C20.38 84.73, 15.27 76.77, 8.5 66.25 M25.5 92.69 C20.8 85.38, 16.11 78.08, 8.5 66.25 M8.5 66.25 C0 53, 0 53, 8.5 39.75 M8.5 66.25 C0 53, 0 53, 8.5 39.75 M8.5 39.75 C12.15 34.05, 15.81 28.36, 25.5 13.25 M8.5 39.75 C12.74 33.15, 16.97 26.54, 25.5 13.25 M25.5 13.25 C34 0, 34 0, 42.5 13.25 M25.5 13.25 C34 0, 34 0, 42.5 13.25" stroke="#1e1e1e" stroke-width="2" fill="none"></path></g><g stroke-linecap="round" transform="translate(24.369020190319702 23.87090614635605) rotate(0 24.511857971721668 33.8094592713403)"><path d="M12.26 0 L39.64 0.19 L44.24 1.72 L47.3 4.79 L49.02 12.26 L49.02 55.36 L48.26 60.72 L45.96 64.55 L44.24 65.9 L36.77 67.62 L9.38 67.43 L4.79 65.9 L1.72 62.83 L0 55.36 L0.19 9.38 L0.77 6.89 L3.06 3.06 L6.89 0.77 L12.26 0" stroke="none" stroke-width="0" fill="#868e96"></path><path d="M12.26 0 M12.26 0 C21.01 0, 29.76 0, 36.77 0 M12.26 0 C17.94 0, 23.63 0, 36.77 0 M36.77 0 C44.94 0, 49.02 4.09, 49.02 12.26 M36.77 0 C44.94 0, 49.02 4.09, 49.02 12.26 M49.02 12.26 C49.02 27.89, 49.02 43.53, 49.02 55.36 M49.02 12.26 C49.02 25.73, 49.02 39.2, 49.02 55.36 M49.02 55.36 C49.02 63.53, 44.94 67.62, 36.77 67.62 M49.02 55.36 C49.02 63.53, 44.94 67.62, 36.77 67.62 M36.77 67.62 C29.43 67.62, 22.08 67.62, 12.26 67.62 M36.77 67.62 C27.95 67.62, 19.14 67.62, 12.26 67.62 M12.26 67.62 C4.09 67.62, 0 63.53, 0 55.36 M12.26 67.62 C4.09 67.62, 0 63.53, 0 55.36 M0 55.36 C0 43.2, 0 31.03, 0 12.26 M0 55.36 C0 41.39, 0 27.42, 0 12.26 M0 12.26 C0 4.09, 4.09 0, 12.26 0 M0 12.26 C0 4.09, 4.09 0, 12.26 0" stroke="#1e1e1e" stroke-width="2" fill="none"></path></g><g stroke-linecap="round" transform="translate(10 13.728068364954026) rotate(0 38.88087816204137 52.6864073645053)"><path d="M48.75 13.25 L71.21 44.15 L74.87 50.46 L75.32 53 L73.5 58.38 L68.01 66.25 L45.51 96.47 L40.87 101.44 L39 102.06 L37.13 101.44 L32.49 96.47 L9.75 66.25 L4.27 58.38 L2.44 53 L2.89 50.46 L6.55 44.15 L32.49 8.9 L37.13 3.93 L39 3.31 L40.87 3.93 L48.75 13.25" stroke="none" stroke-width="0" fill="#ced4da"></path><path d="M48.75 13.25 M48.75 13.25 C54.61 21.31, 60.46 29.36, 68.01 39.75 M48.75 13.25 C55.39 22.38, 62.03 31.52, 68.01 39.75 M68.01 39.75 C77.76 53, 77.76 53, 68.01 66.25 M68.01 39.75 C77.76 53, 77.76 53, 68.01 66.25 M68.01 66.25 C61.81 74.58, 55.61 82.91, 48.75 92.12 M68.01 66.25 C64.03 71.6, 60.05 76.95, 48.75 92.12 M48.75 92.12 C39 105.37, 39 105.37, 29.25 92.12 M48.75 92.12 C39 105.37, 39 105.37, 29.25 92.12 M29.25 92.12 C22.81 83.58, 16.37 75.03, 9.75 66.25 M29.25 92.12 C21.96 82.44, 14.66 72.76, 9.75 66.25 M9.75 66.25 C0 53, 0 53, 9.75 39.75 M9.75 66.25 C0 53, 0 53, 9.75 39.75 M9.75 39.75 C15.38 32.1, 21.02 24.44, 29.25 13.25 M9.75 39.75 C13.79 34.26, 17.83 28.77, 29.25 13.25 M29.25 13.25 C39 0, 39 0, 48.75 13.25 M29.25 13.25 C39 0, 39 0, 48.75 13.25" stroke="#1e1e1e" stroke-width="2" fill="none"></path></g><g stroke-linecap="round" transform="translate(25.353340488190156 42.48748391983861) rotate(0 23.52753767385127 32.52336090208857)"><path d="M30 8.25 L44.43 29.65 L45.56 33 L43.02 38.51 L30 56.8 L26.44 61.44 L24 62.98 L21.56 61.44 L6 41.25 L2.63 36.35 L1.5 33 L4.03 27.49 L22.85 2.45 L25.15 2.45 L30 8.25" stroke="none" stroke-width="0" fill="#fa5252"></path><path d="M30 8.25 M30 8.25 C33.49 13.46, 36.98 18.66, 41.06 24.75 M30 8.25 C32.7 12.29, 35.41 16.32, 41.06 24.75 M41.06 24.75 C47.06 33, 47.06 33, 41.06 41.25 M41.06 24.75 C47.06 33, 47.06 33, 41.06 41.25 M41.06 41.25 C38.82 44.4, 36.58 47.54, 30 56.8 M41.06 41.25 C38.77 44.46, 36.49 47.66, 30 56.8 M30 56.8 C24 65.05, 24 65.05, 18 56.8 M30 56.8 C24 65.05, 24 65.05, 18 56.8 M18 56.8 C14.12 51.76, 10.23 46.73, 6 41.25 M18 56.8 C14.53 52.3, 11.06 47.8, 6 41.25 M6 41.25 C0 33, 0 33, 6 24.75 M6 41.25 C0 33, 0 33, 6 24.75 M6 24.75 C9.16 20.41, 12.31 16.07, 18 8.25 M6 24.75 C8.67 21.08, 11.34 17.41, 18 8.25 M18 8.25 C24 0, 24 0, 30 8.25 M18 8.25 C24 0, 24 0, 30 8.25" stroke="#1e1e1e" stroke-width="2" fill="none"></path></g><g stroke-linecap="round" transform="translate(26.910309893077283 36.60559950137599) rotate(0 21.970568268964087 25.08450707873854)"><path d="M27.5 6.5 L40.25 21.66 L42.57 26 L41.53 28.64 L38.44 32.5 L24.23 47.33 L22 48.54 L19.77 47.33 L5.5 32.5 L2.41 28.64 L1.38 26 L3.7 21.66 L20.95 1.93 L23.05 1.93 L27.5 6.5" stroke="none" stroke-width="0" fill="#868e96"></path><path d="M27.5 6.5 M27.5 6.5 C30.71 10.32, 33.93 14.14, 38.44 19.5 M27.5 6.5 C31.19 10.88, 34.88 15.27, 38.44 19.5 M38.44 19.5 C43.94 26, 43.94 26, 38.44 32.5 M38.44 19.5 C43.94 26, 43.94 26, 38.44 32.5 M38.44 32.5 C34.71 36.31, 30.98 40.12, 27.5 43.67 M38.44 32.5 C36.17 34.82, 33.9 37.14, 27.5 43.67 M27.5 43.67 C22 50.17, 22 50.17, 16.5 43.67 M27.5 43.67 C22 50.17, 22 50.17, 16.5 43.67 M16.5 43.67 C13.68 40.81, 10.86 37.95, 5.5 32.5 M16.5 43.67 C13.37 40.49, 10.25 37.32, 5.5 32.5 M5.5 32.5 C0 26, 0 26, 5.5 19.5 M5.5 32.5 C0 26, 0 26, 5.5 19.5 M5.5 19.5 C8.93 15.44, 12.37 11.38, 16.5 6.5 M5.5 19.5 C8.9 15.49, 12.29 11.48, 16.5 6.5 M16.5 6.5 C22 0, 22 0, 27.5 6.5 M16.5 6.5 C22 0, 22 0, 27.5 6.5" stroke="#1e1e1e" stroke-width="2" fill="none"></path></g></svg>