<svg version="1.1" xmlns="http://www.w3.org/2000/svg" viewBox="0 0 169.49331467870547 169.49331467870547" width="169.49331467870547" height="169.49331467870547">
  <!-- svg-source:excalidraw -->
  
  <defs>
    <style class="style-fonts">
      @font-face {
        font-family: "Virgil";
        src: url("https://excalidraw.com/Virgil.woff2");
      }
      @font-face {
        font-family: "Cascadia";
        src: url("https://excalidraw.com/Cascadia.woff2");
      }
    </style>
    
  </defs>
  <g stroke-linecap="round" transform="translate(10 10) rotate(0 74.74665733935274 74.74665733935274)"><path d="M149.49 74.75 C149.49 77.54, 149.34 80.34, 149.02 83.12 C148.71 85.89, 148.24 88.66, 147.62 91.38 C147 94.1, 146.22 96.8, 145.3 99.43 C144.38 102.07, 143.3 104.66, 142.09 107.18 C140.88 109.69, 139.52 112.15, 138.04 114.51 C136.55 116.88, 134.93 119.17, 133.19 121.35 C131.45 123.53, 129.57 125.63, 127.6 127.6 C125.63 129.57, 123.53 131.45, 121.35 133.19 C119.17 134.93, 116.88 136.55, 114.51 138.04 C112.15 139.52, 109.69 140.88, 107.18 142.09 C104.66 143.3, 102.07 144.38, 99.43 145.3 C96.8 146.22, 94.1 147, 91.38 147.62 C88.66 148.24, 85.89 148.71, 83.12 149.02 C80.34 149.34, 77.54 149.49, 74.75 149.49 C71.96 149.49, 69.15 149.34, 66.38 149.02 C63.61 148.71, 60.83 148.24, 58.11 147.62 C55.39 147, 52.69 146.22, 50.06 145.3 C47.43 144.38, 44.83 143.3, 42.32 142.09 C39.8 140.88, 37.34 139.52, 34.98 138.04 C32.62 136.55, 30.32 134.93, 28.14 133.19 C25.96 131.45, 23.87 129.57, 21.89 127.6 C19.92 125.63, 18.05 123.53, 16.31 121.35 C14.57 119.17, 12.94 116.88, 11.46 114.51 C9.97 112.15, 8.61 109.69, 7.4 107.18 C6.19 104.66, 5.12 102.07, 4.19 99.43 C3.27 96.8, 2.49 94.1, 1.87 91.38 C1.25 88.66, 0.78 85.89, 0.47 83.12 C0.16 80.34, 0 77.54, 0 74.75 C0 71.96, 0.16 69.15, 0.47 66.38 C0.78 63.61, 1.25 60.83, 1.87 58.11 C2.49 55.39, 3.27 52.69, 4.19 50.06 C5.12 47.43, 6.19 44.83, 7.4 42.32 C8.61 39.8, 9.97 37.34, 11.46 34.98 C12.94 32.62, 14.57 30.32, 16.31 28.14 C18.05 25.96, 19.92 23.87, 21.89 21.89 C23.87 19.92, 25.96 18.05, 28.14 16.31 C30.32 14.57, 32.62 12.94, 34.98 11.46 C37.34 9.97, 39.8 8.61, 42.32 7.4 C44.83 6.19, 47.43 5.12, 50.06 4.19 C52.69 3.27, 55.39 2.49, 58.11 1.87 C60.83 1.25, 63.61 0.78, 66.38 0.47 C69.15 0.16, 71.96 0, 74.75 0 C77.54 0, 80.34 0.16, 83.12 0.47 C85.89 0.78, 88.66 1.25, 91.38 1.87 C94.1 2.49, 96.8 3.27, 99.43 4.19 C102.07 5.12, 104.66 6.19, 107.18 7.4 C109.69 8.61, 112.15 9.97, 114.51 11.46 C116.88 12.94, 119.17 14.57, 121.35 16.31 C123.53 18.05, 125.63 19.92, 127.6 21.89 C129.57 23.87, 131.45 25.96, 133.19 28.14 C134.93 30.32, 136.55 32.62, 138.04 34.98 C139.52 37.34, 140.88 39.8, 142.09 42.32 C143.3 44.83, 144.38 47.43, 145.3 50.06 C146.22 52.69, 147 55.39, 147.62 58.11 C148.24 60.83, 148.71 63.61, 149.02 66.38 C149.34 69.15, 149.41 73.35, 149.49 74.75 C149.57 76.14, 149.57 73.35, 149.49 74.75" stroke="none" stroke-width="0" fill="#868e96"></path><path d="M149.49 74.75 C149.49 77.54, 149.34 80.34, 149.02 83.12 C148.71 85.89, 148.24 88.66, 147.62 91.38 C147 94.1, 146.22 96.8, 145.3 99.43 C144.38 102.07, 143.3 104.66, 142.09 107.18 C140.88 109.69, 139.52 112.15, 138.04 114.51 C136.55 116.88, 134.93 119.17, 133.19 121.35 C131.45 123.53, 129.57 125.63, 127.6 127.6 C125.63 129.57, 123.53 131.45, 121.35 133.19 C119.17 134.93, 116.88 136.55, 114.51 138.04 C112.15 139.52, 109.69 140.88, 107.18 142.09 C104.66 143.3, 102.07 144.38, 99.43 145.3 C96.8 146.22, 94.1 147, 91.38 147.62 C88.66 148.24, 85.89 148.71, 83.12 149.02 C80.34 149.34, 77.54 149.49, 74.75 149.49 C71.96 149.49, 69.15 149.34, 66.38 149.02 C63.61 148.71, 60.83 148.24, 58.11 147.62 C55.39 147, 52.69 146.22, 50.06 145.3 C47.43 144.38, 44.83 143.3, 42.32 142.09 C39.8 140.88, 37.34 139.52, 34.98 138.04 C32.62 136.55, 30.32 134.93, 28.14 133.19 C25.96 131.45, 23.87 129.57, 21.89 127.6 C19.92 125.63, 18.05 123.53, 16.31 121.35 C14.57 119.17, 12.94 116.88, 11.46 114.51 C9.97 112.15, 8.61 109.69, 7.4 107.18 C6.19 104.66, 5.12 102.07, 4.19 99.43 C3.27 96.8, 2.49 94.1, 1.87 91.38 C1.25 88.66, 0.78 85.89, 0.47 83.12 C0.16 80.34, 0 77.54, 0 74.75 C0 71.96, 0.16 69.15, 0.47 66.38 C0.78 63.61, 1.25 60.83, 1.87 58.11 C2.49 55.39, 3.27 52.69, 4.19 50.06 C5.12 47.43, 6.19 44.83, 7.4 42.32 C8.61 39.8, 9.97 37.34, 11.46 34.98 C12.94 32.62, 14.57 30.32, 16.31 28.14 C18.05 25.96, 19.92 23.87, 21.89 21.89 C23.87 19.92, 25.96 18.05, 28.14 16.31 C30.32 14.57, 32.62 12.94, 34.98 11.46 C37.34 9.97, 39.8 8.61, 42.32 7.4 C44.83 6.19, 47.43 5.12, 50.06 4.19 C52.69 3.27, 55.39 2.49, 58.11 1.87 C60.83 1.25, 63.61 0.78, 66.38 0.47 C69.15 0.16, 71.96 0, 74.75 0 C77.54 0, 80.34 0.16, 83.12 0.47 C85.89 0.78, 88.66 1.25, 91.38 1.87 C94.1 2.49, 96.8 3.27, 99.43 4.19 C102.07 5.12, 104.66 6.19, 107.18 7.4 C109.69 8.61, 112.15 9.97, 114.51 11.46 C116.88 12.94, 119.17 14.57, 121.35 16.31 C123.53 18.05, 125.63 19.92, 127.6 21.89 C129.57 23.87, 131.45 25.96, 133.19 28.14 C134.93 30.32, 136.55 32.62, 138.04 34.98 C139.52 37.34, 140.88 39.8, 142.09 42.32 C143.3 44.83, 144.38 47.43, 145.3 50.06 C146.22 52.69, 147 55.39, 147.62 58.11 C148.24 60.83, 148.71 63.61, 149.02 66.38 C149.34 69.15, 149.41 73.35, 149.49 74.75 C149.57 76.14, 149.57 73.35, 149.49 74.75" stroke="#343a40" stroke-width="2" fill="none"></path></g><g stroke-linecap="round" transform="translate(21.70410292858196 21.70410292858196) rotate(0 63.042554410770805 63.04255441077083)"><path d="M126.09 63.04 C126.09 65.58, 125.93 68.13, 125.63 70.64 C125.32 73.16, 124.86 75.67, 124.25 78.13 C123.65 80.59, 122.89 83.03, 121.99 85.4 C121.09 87.77, 120.04 90.1, 118.86 92.34 C117.69 94.58, 116.36 96.77, 114.93 98.85 C113.49 100.94, 111.91 102.95, 110.23 104.85 C108.55 106.74, 106.74 108.55, 104.85 110.23 C102.95 111.91, 100.94 113.49, 98.85 114.93 C96.77 116.36, 94.58 117.69, 92.34 118.86 C90.1 120.04, 87.77 121.09, 85.4 121.99 C83.03 122.89, 80.59 123.65, 78.13 124.25 C75.67 124.86, 73.16 125.32, 70.64 125.63 C68.13 125.93, 65.58 126.09, 63.04 126.09 C60.51 126.09, 57.96 125.93, 55.44 125.63 C52.93 125.32, 50.41 124.86, 47.96 124.25 C45.5 123.65, 43.06 122.89, 40.69 121.99 C38.32 121.09, 35.99 120.04, 33.75 118.86 C31.5 117.69, 29.31 116.36, 27.23 114.93 C25.15 113.49, 23.13 111.91, 21.24 110.23 C19.34 108.55, 17.53 106.74, 15.85 104.85 C14.17 102.95, 12.6 100.94, 11.16 98.85 C9.72 96.77, 8.4 94.58, 7.22 92.34 C6.04 90.1, 4.99 87.77, 4.1 85.4 C3.2 83.03, 2.44 80.59, 1.83 78.13 C1.23 75.67, 0.76 73.16, 0.46 70.64 C0.15 68.13, 0 65.58, 0 63.04 C0 60.51, 0.15 57.96, 0.46 55.44 C0.76 52.93, 1.23 50.41, 1.83 47.96 C2.44 45.5, 3.2 43.06, 4.1 40.69 C4.99 38.32, 6.04 35.99, 7.22 33.75 C8.4 31.5, 9.72 29.31, 11.16 27.23 C12.6 25.15, 14.17 23.13, 15.85 21.24 C17.53 19.34, 19.34 17.53, 21.24 15.85 C23.13 14.17, 25.15 12.6, 27.23 11.16 C29.31 9.72, 31.5 8.4, 33.75 7.22 C35.99 6.04, 38.32 4.99, 40.69 4.1 C43.06 3.2, 45.5 2.44, 47.96 1.83 C50.41 1.23, 52.93 0.76, 55.44 0.46 C57.96 0.15, 60.51 0, 63.04 0 C65.58 0, 68.13 0.15, 70.64 0.46 C73.16 0.76, 75.67 1.23, 78.13 1.83 C80.59 2.44, 83.03 3.2, 85.4 4.1 C87.77 4.99, 90.1 6.04, 92.34 7.22 C94.58 8.4, 96.77 9.72, 98.85 11.16 C100.94 12.6, 102.95 14.17, 104.85 15.85 C106.74 17.53, 108.55 19.34, 110.23 21.24 C111.91 23.13, 113.49 25.15, 114.93 27.23 C116.36 29.31, 117.69 31.5, 118.86 33.75 C120.04 35.99, 121.09 38.32, 121.99 40.69 C122.89 43.06, 123.65 45.5, 124.25 47.96 C124.86 50.41, 125.32 52.93, 125.63 55.44 C125.93 57.96, 126.09 60.51, 126.09 63.04" stroke="none" stroke-width="0" fill="#ced4da"></path><path d="M126.09 63.04 C126.09 65.58, 125.93 68.13, 125.63 70.64 C125.32 73.16, 124.86 75.67, 124.25 78.13 C123.65 80.59, 122.89 83.03, 121.99 85.4 C121.09 87.77, 120.04 90.1, 118.86 92.34 C117.69 94.58, 116.36 96.77, 114.93 98.85 C113.49 100.94, 111.91 102.95, 110.23 104.85 C108.55 106.74, 106.74 108.55, 104.85 110.23 C102.95 111.91, 100.94 113.49, 98.85 114.93 C96.77 116.36, 94.58 117.69, 92.34 118.86 C90.1 120.04, 87.77 121.09, 85.4 121.99 C83.03 122.89, 80.59 123.65, 78.13 124.25 C75.67 124.86, 73.16 125.32, 70.64 125.63 C68.13 125.93, 65.58 126.09, 63.04 126.09 C60.51 126.09, 57.96 125.93, 55.44 125.63 C52.93 125.32, 50.41 124.86, 47.96 124.25 C45.5 123.65, 43.06 122.89, 40.69 121.99 C38.32 121.09, 35.99 120.04, 33.75 118.86 C31.5 117.69, 29.31 116.36, 27.23 114.93 C25.15 113.49, 23.13 111.91, 21.24 110.23 C19.34 108.55, 17.53 106.74, 15.85 104.85 C14.17 102.95, 12.6 100.94, 11.16 98.85 C9.72 96.77, 8.4 94.58, 7.22 92.34 C6.04 90.1, 4.99 87.77, 4.1 85.4 C3.2 83.03, 2.44 80.59, 1.83 78.13 C1.23 75.67, 0.76 73.16, 0.46 70.64 C0.15 68.13, 0 65.58, 0 63.04 C0 60.51, 0.15 57.96, 0.46 55.44 C0.76 52.93, 1.23 50.41, 1.83 47.96 C2.44 45.5, 3.2 43.06, 4.1 40.69 C4.99 38.32, 6.04 35.99, 7.22 33.75 C8.4 31.5, 9.72 29.31, 11.16 27.23 C12.6 25.15, 14.17 23.13, 15.85 21.24 C17.53 19.34, 19.34 17.53, 21.24 15.85 C23.13 14.17, 25.15 12.6, 27.23 11.16 C29.31 9.72, 31.5 8.4, 33.75 7.22 C35.99 6.04, 38.32 4.99, 40.69 4.1 C43.06 3.2, 45.5 2.44, 47.96 1.83 C50.41 1.23, 52.93 0.76, 55.44 0.46 C57.96 0.15, 60.51 0, 63.04 0 C65.58 0, 68.13 0.15, 70.64 0.46 C73.16 0.76, 75.67 1.23, 78.13 1.83 C80.59 2.44, 83.03 3.2, 85.4 4.1 C87.77 4.99, 90.1 6.04, 92.34 7.22 C94.58 8.4, 96.77 9.72, 98.85 11.16 C100.94 12.6, 102.95 14.17, 104.85 15.85 C106.74 17.53, 108.55 19.34, 110.23 21.24 C111.91 23.13, 113.49 25.15, 114.93 27.23 C116.36 29.31, 117.69 31.5, 118.86 33.75 C120.04 35.99, 121.09 38.32, 121.99 40.69 C122.89 43.06, 123.65 45.5, 124.25 47.96 C124.86 50.41, 125.32 52.93, 125.63 55.44 C125.93 57.96, 126.09 60.51, 126.09 63.04" stroke="#343a40" stroke-width="2" fill="none"></path></g><g stroke-linecap="round" transform="translate(50.96436025003686 50.96436025003686) rotate(0 33.78229708931585 33.782297089315875)"><path d="M67.56 33.78 C67.56 35.54, 67.42 37.33, 67.15 39.07 C66.87 40.81, 66.46 42.55, 65.91 44.22 C65.37 45.9, 64.68 47.55, 63.88 49.12 C63.08 50.69, 62.15 52.21, 61.11 53.64 C60.08 55.06, 58.92 56.42, 57.67 57.67 C56.42 58.92, 55.06 60.08, 53.64 61.11 C52.21 62.15, 50.69 63.08, 49.12 63.88 C47.55 64.68, 45.9 65.37, 44.22 65.91 C42.55 66.46, 40.81 66.87, 39.07 67.15 C37.33 67.42, 35.54 67.56, 33.78 67.56 C32.02 67.56, 30.24 67.42, 28.5 67.15 C26.76 66.87, 25.02 66.46, 23.34 65.91 C21.67 65.37, 20.02 64.68, 18.45 63.88 C16.88 63.08, 15.35 62.15, 13.93 61.11 C12.5 60.08, 11.14 58.92, 9.89 57.67 C8.65 56.42, 7.49 55.06, 6.45 53.64 C5.42 52.21, 4.48 50.69, 3.68 49.12 C2.88 47.55, 2.2 45.9, 1.65 44.22 C1.11 42.55, 0.69 40.81, 0.42 39.07 C0.14 37.33, 0 35.54, 0 33.78 C0 32.02, 0.14 30.24, 0.42 28.5 C0.69 26.76, 1.11 25.02, 1.65 23.34 C2.2 21.67, 2.88 20.02, 3.68 18.45 C4.48 16.88, 5.42 15.35, 6.45 13.93 C7.49 12.5, 8.65 11.14, 9.89 9.89 C11.14 8.65, 12.5 7.49, 13.93 6.45 C15.35 5.42, 16.88 4.48, 18.45 3.68 C20.02 2.88, 21.67 2.2, 23.34 1.65 C25.02 1.11, 26.76 0.69, 28.5 0.42 C30.24 0.14, 32.02 0, 33.78 0 C35.54 0, 37.33 0.14, 39.07 0.42 C40.81 0.69, 42.55 1.11, 44.22 1.65 C45.9 2.2, 47.55 2.88, 49.12 3.68 C50.69 4.48, 52.21 5.42, 53.64 6.45 C55.06 7.49, 56.42 8.65, 57.67 9.89 C58.92 11.14, 60.08 12.5, 61.11 13.93 C62.15 15.35, 63.08 16.88, 63.88 18.45 C64.68 20.02, 65.37 21.67, 65.91 23.34 C66.46 25.02, 66.87 26.76, 67.15 28.5 C67.42 30.24, 67.5 32.9, 67.56 33.78 C67.63 34.66, 67.63 32.9, 67.56 33.78" stroke="none" stroke-width="0" fill="#fa5252"></path><path d="M67.56 33.78 C67.56 35.54, 67.42 37.33, 67.15 39.07 C66.87 40.81, 66.46 42.55, 65.91 44.22 C65.37 45.9, 64.68 47.55, 63.88 49.12 C63.08 50.69, 62.15 52.21, 61.11 53.64 C60.08 55.06, 58.92 56.42, 57.67 57.67 C56.42 58.92, 55.06 60.08, 53.64 61.11 C52.21 62.15, 50.69 63.08, 49.12 63.88 C47.55 64.68, 45.9 65.37, 44.22 65.91 C42.55 66.46, 40.81 66.87, 39.07 67.15 C37.33 67.42, 35.54 67.56, 33.78 67.56 C32.02 67.56, 30.24 67.42, 28.5 67.15 C26.76 66.87, 25.02 66.46, 23.34 65.91 C21.67 65.37, 20.02 64.68, 18.45 63.88 C16.88 63.08, 15.35 62.15, 13.93 61.11 C12.5 60.08, 11.14 58.92, 9.89 57.67 C8.65 56.42, 7.49 55.06, 6.45 53.64 C5.42 52.21, 4.48 50.69, 3.68 49.12 C2.88 47.55, 2.2 45.9, 1.65 44.22 C1.11 42.55, 0.69 40.81, 0.42 39.07 C0.14 37.33, 0 35.54, 0 33.78 C0 32.02, 0.14 30.24, 0.42 28.5 C0.69 26.76, 1.11 25.02, 1.65 23.34 C2.2 21.67, 2.88 20.02, 3.68 18.45 C4.48 16.88, 5.42 15.35, 6.45 13.93 C7.49 12.5, 8.65 11.14, 9.89 9.89 C11.14 8.65, 12.5 7.49, 13.93 6.45 C15.35 5.42, 16.88 4.48, 18.45 3.68 C20.02 2.88, 21.67 2.2, 23.34 1.65 C25.02 1.11, 26.76 0.69, 28.5 0.42 C30.24 0.14, 32.02 0, 33.78 0 C35.54 0, 37.33 0.14, 39.07 0.42 C40.81 0.69, 42.55 1.11, 44.22 1.65 C45.9 2.2, 47.55 2.88, 49.12 3.68 C50.69 4.48, 52.21 5.42, 53.64 6.45 C55.06 7.49, 56.42 8.65, 57.67 9.89 C58.92 11.14, 60.08 12.5, 61.11 13.93 C62.15 15.35, 63.08 16.88, 63.88 18.45 C64.68 20.02, 65.37 21.67, 65.91 23.34 C66.46 25.02, 66.87 26.76, 67.15 28.5 C67.42 30.24, 67.5 32.9, 67.56 33.78 C67.63 34.66, 67.63 32.9, 67.56 33.78" stroke="#e03131" stroke-width="4" fill="none"></path></g><g stroke-linecap="round" transform="translate(80.49061991077758 28.753164919659753) rotate(0 4.256037428575212 4.522039767861202)"><path d="M8.51 4.52 C8.51 4.78, 8.49 5.05, 8.45 5.31 C8.4 5.57, 8.34 5.82, 8.26 6.07 C8.17 6.31, 8.07 6.56, 7.94 6.78 C7.82 7.01, 7.67 7.23, 7.52 7.43 C7.36 7.63, 7.18 7.82, 6.99 7.99 C6.8 8.15, 6.6 8.31, 6.38 8.44 C6.17 8.57, 5.94 8.68, 5.71 8.77 C5.48 8.86, 5.24 8.93, 5 8.98 C4.75 9.02, 4.5 9.04, 4.26 9.04 C4.01 9.04, 3.76 9.02, 3.52 8.98 C3.27 8.93, 3.03 8.86, 2.8 8.77 C2.57 8.68, 2.34 8.57, 2.13 8.44 C1.91 8.31, 1.71 8.15, 1.52 7.99 C1.33 7.82, 1.15 7.63, 1 7.43 C0.84 7.23, 0.69 7.01, 0.57 6.78 C0.45 6.56, 0.34 6.31, 0.26 6.07 C0.17 5.82, 0.11 5.57, 0.06 5.31 C0.02 5.05, 0 4.78, 0 4.52 C0 4.26, 0.02 3.99, 0.06 3.74 C0.11 3.48, 0.17 3.22, 0.26 2.98 C0.34 2.73, 0.45 2.49, 0.57 2.26 C0.69 2.03, 0.84 1.82, 1 1.62 C1.15 1.41, 1.33 1.23, 1.52 1.06 C1.71 0.89, 1.91 0.74, 2.13 0.61 C2.34 0.47, 2.57 0.36, 2.8 0.27 C3.03 0.18, 3.27 0.11, 3.52 0.07 C3.76 0.02, 4.01 0, 4.26 0 C4.5 0, 4.75 0.02, 5 0.07 C5.24 0.11, 5.48 0.18, 5.71 0.27 C5.94 0.36, 6.17 0.47, 6.38 0.61 C6.6 0.74, 6.8 0.89, 6.99 1.06 C7.18 1.23, 7.36 1.41, 7.52 1.62 C7.67 1.82, 7.82 2.03, 7.94 2.26 C8.07 2.49, 8.17 2.73, 8.26 2.98 C8.34 3.22, 8.4 3.48, 8.45 3.74 C8.49 3.99, 8.5 4.39, 8.51 4.52 C8.52 4.65, 8.52 4.39, 8.51 4.52" stroke="none" stroke-width="0" fill="#ffec99"></path><path d="M8.51 4.52 C8.51 4.78, 8.49 5.05, 8.45 5.31 C8.4 5.57, 8.34 5.82, 8.26 6.07 C8.17 6.31, 8.07 6.56, 7.94 6.78 C7.82 7.01, 7.67 7.23, 7.52 7.43 C7.36 7.63, 7.18 7.82, 6.99 7.99 C6.8 8.15, 6.6 8.31, 6.38 8.44 C6.17 8.57, 5.94 8.68, 5.71 8.77 C5.48 8.86, 5.24 8.93, 5 8.98 C4.75 9.02, 4.5 9.04, 4.26 9.04 C4.01 9.04, 3.76 9.02, 3.52 8.98 C3.27 8.93, 3.03 8.86, 2.8 8.77 C2.57 8.68, 2.34 8.57, 2.13 8.44 C1.91 8.31, 1.71 8.15, 1.52 7.99 C1.33 7.82, 1.15 7.63, 1 7.43 C0.84 7.23, 0.69 7.01, 0.57 6.78 C0.45 6.56, 0.34 6.31, 0.26 6.07 C0.17 5.82, 0.11 5.57, 0.06 5.31 C0.02 5.05, 0 4.78, 0 4.52 C0 4.26, 0.02 3.99, 0.06 3.74 C0.11 3.48, 0.17 3.22, 0.26 2.98 C0.34 2.73, 0.45 2.49, 0.57 2.26 C0.69 2.03, 0.84 1.82, 1 1.62 C1.15 1.41, 1.33 1.23, 1.52 1.06 C1.71 0.89, 1.91 0.74, 2.13 0.61 C2.34 0.47, 2.57 0.36, 2.8 0.27 C3.03 0.18, 3.27 0.11, 3.52 0.07 C3.76 0.02, 4.01 0, 4.26 0 C4.5 0, 4.75 0.02, 5 0.07 C5.24 0.11, 5.48 0.18, 5.71 0.27 C5.94 0.36, 6.17 0.47, 6.38 0.61 C6.6 0.74, 6.8 0.89, 6.99 1.06 C7.18 1.23, 7.36 1.41, 7.52 1.62 C7.67 1.82, 7.82 2.03, 7.94 2.26 C8.07 2.49, 8.17 2.73, 8.26 2.98 C8.34 3.22, 8.4 3.48, 8.45 3.74 C8.49 3.99, 8.5 4.39, 8.51 4.52 C8.52 4.65, 8.52 4.39, 8.51 4.52" stroke="#1e1e1e" stroke-width="1" fill="none"></path></g><g stroke-linecap="round" transform="translate(80.49061991077758 131.69607022332332) rotate(0 4.256037428575212 4.522039767861202)"><path d="M8.51 4.52 C8.51 4.78, 8.49 5.05, 8.45 5.31 C8.4 5.57, 8.34 5.82, 8.26 6.07 C8.17 6.31, 8.07 6.56, 7.94 6.78 C7.82 7.01, 7.67 7.23, 7.52 7.43 C7.36 7.63, 7.18 7.82, 6.99 7.99 C6.8 8.15, 6.6 8.31, 6.38 8.44 C6.17 8.57, 5.94 8.68, 5.71 8.77 C5.48 8.86, 5.24 8.93, 5 8.98 C4.75 9.02, 4.5 9.04, 4.26 9.04 C4.01 9.04, 3.76 9.02, 3.52 8.98 C3.27 8.93, 3.03 8.86, 2.8 8.77 C2.57 8.68, 2.34 8.57, 2.13 8.44 C1.91 8.31, 1.71 8.15, 1.52 7.99 C1.33 7.82, 1.15 7.63, 1 7.43 C0.84 7.23, 0.69 7.01, 0.57 6.78 C0.45 6.56, 0.34 6.31, 0.26 6.07 C0.17 5.82, 0.11 5.57, 0.06 5.31 C0.02 5.05, 0 4.78, 0 4.52 C0 4.26, 0.02 3.99, 0.06 3.74 C0.11 3.48, 0.17 3.22, 0.26 2.98 C0.34 2.73, 0.45 2.49, 0.57 2.26 C0.69 2.03, 0.84 1.82, 1 1.62 C1.15 1.41, 1.33 1.23, 1.52 1.06 C1.71 0.89, 1.91 0.74, 2.13 0.61 C2.34 0.47, 2.57 0.36, 2.8 0.27 C3.03 0.18, 3.27 0.11, 3.52 0.07 C3.76 0.02, 4.01 0, 4.26 0 C4.5 0, 4.75 0.02, 5 0.07 C5.24 0.11, 5.48 0.18, 5.71 0.27 C5.94 0.36, 6.17 0.47, 6.38 0.61 C6.6 0.74, 6.8 0.89, 6.99 1.06 C7.18 1.23, 7.36 1.41, 7.52 1.62 C7.67 1.82, 7.82 2.03, 7.94 2.26 C8.07 2.49, 8.17 2.73, 8.26 2.98 C8.34 3.22, 8.4 3.48, 8.45 3.74 C8.49 3.99, 8.5 4.39, 8.51 4.52 C8.52 4.65, 8.52 4.39, 8.51 4.52" stroke="none" stroke-width="0" fill="#ffec99"></path><path d="M8.51 4.52 C8.51 4.78, 8.49 5.05, 8.45 5.31 C8.4 5.57, 8.34 5.82, 8.26 6.07 C8.17 6.31, 8.07 6.56, 7.94 6.78 C7.82 7.01, 7.67 7.23, 7.52 7.43 C7.36 7.63, 7.18 7.82, 6.99 7.99 C6.8 8.15, 6.6 8.31, 6.38 8.44 C6.17 8.57, 5.94 8.68, 5.71 8.77 C5.48 8.86, 5.24 8.93, 5 8.98 C4.75 9.02, 4.5 9.04, 4.26 9.04 C4.01 9.04, 3.76 9.02, 3.52 8.98 C3.27 8.93, 3.03 8.86, 2.8 8.77 C2.57 8.68, 2.34 8.57, 2.13 8.44 C1.91 8.31, 1.71 8.15, 1.52 7.99 C1.33 7.82, 1.15 7.63, 1 7.43 C0.84 7.23, 0.69 7.01, 0.57 6.78 C0.45 6.56, 0.34 6.31, 0.26 6.07 C0.17 5.82, 0.11 5.57, 0.06 5.31 C0.02 5.05, 0 4.78, 0 4.52 C0 4.26, 0.02 3.99, 0.06 3.74 C0.11 3.48, 0.17 3.22, 0.26 2.98 C0.34 2.73, 0.45 2.49, 0.57 2.26 C0.69 2.03, 0.84 1.82, 1 1.62 C1.15 1.41, 1.33 1.23, 1.52 1.06 C1.71 0.89, 1.91 0.74, 2.13 0.61 C2.34 0.47, 2.57 0.36, 2.8 0.27 C3.03 0.18, 3.27 0.11, 3.52 0.07 C3.76 0.02, 4.01 0, 4.26 0 C4.5 0, 4.75 0.02, 5 0.07 C5.24 0.11, 5.48 0.18, 5.71 0.27 C5.94 0.36, 6.17 0.47, 6.38 0.61 C6.6 0.74, 6.8 0.89, 6.99 1.06 C7.18 1.23, 7.36 1.41, 7.52 1.62 C7.67 1.82, 7.82 2.03, 7.94 2.26 C8.07 2.49, 8.17 2.73, 8.26 2.98 C8.34 3.22, 8.4 3.48, 8.45 3.74 C8.49 3.99, 8.5 4.39, 8.51 4.52 C8.52 4.65, 8.52 4.39, 8.51 4.52" stroke="#1e1e1e" stroke-width="1" fill="none"></path></g><g stroke-linecap="round" transform="translate(131.5630690536807 80.22461757149154) rotate(0 4.256037428575212 4.522039767861202)"><path d="M8.51 4.52 C8.51 4.78, 8.49 5.05, 8.45 5.31 C8.4 5.57, 8.34 5.82, 8.26 6.07 C8.17 6.31, 8.07 6.56, 7.94 6.78 C7.82 7.01, 7.67 7.23, 7.52 7.43 C7.36 7.63, 7.18 7.82, 6.99 7.99 C6.8 8.15, 6.6 8.31, 6.38 8.44 C6.17 8.57, 5.94 8.68, 5.71 8.77 C5.48 8.86, 5.24 8.93, 5 8.98 C4.75 9.02, 4.5 9.04, 4.26 9.04 C4.01 9.04, 3.76 9.02, 3.52 8.98 C3.27 8.93, 3.03 8.86, 2.8 8.77 C2.57 8.68, 2.34 8.57, 2.13 8.44 C1.91 8.31, 1.71 8.15, 1.52 7.99 C1.33 7.82, 1.15 7.63, 1 7.43 C0.84 7.23, 0.69 7.01, 0.57 6.78 C0.45 6.56, 0.34 6.31, 0.26 6.07 C0.17 5.82, 0.11 5.57, 0.06 5.31 C0.02 5.05, 0 4.78, 0 4.52 C0 4.26, 0.02 3.99, 0.06 3.74 C0.11 3.48, 0.17 3.22, 0.26 2.98 C0.34 2.73, 0.45 2.49, 0.57 2.26 C0.69 2.03, 0.84 1.82, 1 1.62 C1.15 1.41, 1.33 1.23, 1.52 1.06 C1.71 0.89, 1.91 0.74, 2.13 0.61 C2.34 0.47, 2.57 0.36, 2.8 0.27 C3.03 0.18, 3.27 0.11, 3.52 0.07 C3.76 0.02, 4.01 0, 4.26 0 C4.5 0, 4.75 0.02, 5 0.07 C5.24 0.11, 5.48 0.18, 5.71 0.27 C5.94 0.36, 6.17 0.47, 6.38 0.61 C6.6 0.74, 6.8 0.89, 6.99 1.06 C7.18 1.23, 7.36 1.41, 7.52 1.62 C7.67 1.82, 7.82 2.03, 7.94 2.26 C8.07 2.49, 8.17 2.73, 8.26 2.98 C8.34 3.22, 8.4 3.48, 8.45 3.74 C8.49 3.99, 8.5 4.39, 8.51 4.52 C8.52 4.65, 8.52 4.39, 8.51 4.52" stroke="none" stroke-width="0" fill="#ffec99"></path><path d="M8.51 4.52 C8.51 4.78, 8.49 5.05, 8.45 5.31 C8.4 5.57, 8.34 5.82, 8.26 6.07 C8.17 6.31, 8.07 6.56, 7.94 6.78 C7.82 7.01, 7.67 7.23, 7.52 7.43 C7.36 7.63, 7.18 7.82, 6.99 7.99 C6.8 8.15, 6.6 8.31, 6.38 8.44 C6.17 8.57, 5.94 8.68, 5.71 8.77 C5.48 8.86, 5.24 8.93, 5 8.98 C4.75 9.02, 4.5 9.04, 4.26 9.04 C4.01 9.04, 3.76 9.02, 3.52 8.98 C3.27 8.93, 3.03 8.86, 2.8 8.77 C2.57 8.68, 2.34 8.57, 2.13 8.44 C1.91 8.31, 1.71 8.15, 1.52 7.99 C1.33 7.82, 1.15 7.63, 1 7.43 C0.84 7.23, 0.69 7.01, 0.57 6.78 C0.45 6.56, 0.34 6.31, 0.26 6.07 C0.17 5.82, 0.11 5.57, 0.06 5.31 C0.02 5.05, 0 4.78, 0 4.52 C0 4.26, 0.02 3.99, 0.06 3.74 C0.11 3.48, 0.17 3.22, 0.26 2.98 C0.34 2.73, 0.45 2.49, 0.57 2.26 C0.69 2.03, 0.84 1.82, 1 1.62 C1.15 1.41, 1.33 1.23, 1.52 1.06 C1.71 0.89, 1.91 0.74, 2.13 0.61 C2.34 0.47, 2.57 0.36, 2.8 0.27 C3.03 0.18, 3.27 0.11, 3.52 0.07 C3.76 0.02, 4.01 0, 4.26 0 C4.5 0, 4.75 0.02, 5 0.07 C5.24 0.11, 5.48 0.18, 5.71 0.27 C5.94 0.36, 6.17 0.47, 6.38 0.61 C6.6 0.74, 6.8 0.89, 6.99 1.06 C7.18 1.23, 7.36 1.41, 7.52 1.62 C7.67 1.82, 7.82 2.03, 7.94 2.26 C8.07 2.49, 8.17 2.73, 8.26 2.98 C8.34 3.22, 8.4 3.48, 8.45 3.74 C8.49 3.99, 8.5 4.39, 8.51 4.52 C8.52 4.65, 8.52 4.39, 8.51 4.52" stroke="#1e1e1e" stroke-width="1" fill="none"></path></g><g stroke-linecap="round" transform="translate(29.418170767874585 80.22461757149154) rotate(0 4.256037428575212 4.522039767861202)"><path d="M8.51 4.52 C8.51 4.78, 8.49 5.05, 8.45 5.31 C8.4 5.57, 8.34 5.82, 8.26 6.07 C8.17 6.31, 8.07 6.56, 7.94 6.78 C7.82 7.01, 7.67 7.23, 7.52 7.43 C7.36 7.63, 7.18 7.82, 6.99 7.99 C6.8 8.15, 6.6 8.31, 6.38 8.44 C6.17 8.57, 5.94 8.68, 5.71 8.77 C5.48 8.86, 5.24 8.93, 5 8.98 C4.75 9.02, 4.5 9.04, 4.26 9.04 C4.01 9.04, 3.76 9.02, 3.52 8.98 C3.27 8.93, 3.03 8.86, 2.8 8.77 C2.57 8.68, 2.34 8.57, 2.13 8.44 C1.91 8.31, 1.71 8.15, 1.52 7.99 C1.33 7.82, 1.15 7.63, 1 7.43 C0.84 7.23, 0.69 7.01, 0.57 6.78 C0.45 6.56, 0.34 6.31, 0.26 6.07 C0.17 5.82, 0.11 5.57, 0.06 5.31 C0.02 5.05, 0 4.78, 0 4.52 C0 4.26, 0.02 3.99, 0.06 3.74 C0.11 3.48, 0.17 3.22, 0.26 2.98 C0.34 2.73, 0.45 2.49, 0.57 2.26 C0.69 2.03, 0.84 1.82, 1 1.62 C1.15 1.41, 1.33 1.23, 1.52 1.06 C1.71 0.89, 1.91 0.74, 2.13 0.61 C2.34 0.47, 2.57 0.36, 2.8 0.27 C3.03 0.18, 3.27 0.11, 3.52 0.07 C3.76 0.02, 4.01 0, 4.26 0 C4.5 0, 4.75 0.02, 5 0.07 C5.24 0.11, 5.48 0.18, 5.71 0.27 C5.94 0.36, 6.17 0.47, 6.38 0.61 C6.6 0.74, 6.8 0.89, 6.99 1.06 C7.18 1.23, 7.36 1.41, 7.52 1.62 C7.67 1.82, 7.82 2.03, 7.94 2.26 C8.07 2.49, 8.17 2.73, 8.26 2.98 C8.34 3.22, 8.4 3.48, 8.45 3.74 C8.49 3.99, 8.5 4.39, 8.51 4.52 C8.52 4.65, 8.52 4.39, 8.51 4.52" stroke="none" stroke-width="0" fill="#ffec99"></path><path d="M8.51 4.52 C8.51 4.78, 8.49 5.05, 8.45 5.31 C8.4 5.57, 8.34 5.82, 8.26 6.07 C8.17 6.31, 8.07 6.56, 7.94 6.78 C7.82 7.01, 7.67 7.23, 7.52 7.43 C7.36 7.63, 7.18 7.82, 6.99 7.99 C6.8 8.15, 6.6 8.31, 6.38 8.44 C6.17 8.57, 5.94 8.68, 5.71 8.77 C5.48 8.86, 5.24 8.93, 5 8.98 C4.75 9.02, 4.5 9.04, 4.26 9.04 C4.01 9.04, 3.76 9.02, 3.52 8.98 C3.27 8.93, 3.03 8.86, 2.8 8.77 C2.57 8.68, 2.34 8.57, 2.13 8.44 C1.91 8.31, 1.71 8.15, 1.52 7.99 C1.33 7.82, 1.15 7.63, 1 7.43 C0.84 7.23, 0.69 7.01, 0.57 6.78 C0.45 6.56, 0.34 6.31, 0.26 6.07 C0.17 5.82, 0.11 5.57, 0.06 5.31 C0.02 5.05, 0 4.78, 0 4.52 C0 4.26, 0.02 3.99, 0.06 3.74 C0.11 3.48, 0.17 3.22, 0.26 2.98 C0.34 2.73, 0.45 2.49, 0.57 2.26 C0.69 2.03, 0.84 1.82, 1 1.62 C1.15 1.41, 1.33 1.23, 1.52 1.06 C1.71 0.89, 1.91 0.74, 2.13 0.61 C2.34 0.47, 2.57 0.36, 2.8 0.27 C3.03 0.18, 3.27 0.11, 3.52 0.07 C3.76 0.02, 4.01 0, 4.26 0 C4.5 0, 4.75 0.02, 5 0.07 C5.24 0.11, 5.48 0.18, 5.71 0.27 C5.94 0.36, 6.17 0.47, 6.38 0.61 C6.6 0.74, 6.8 0.89, 6.99 1.06 C7.18 1.23, 7.36 1.41, 7.52 1.62 C7.67 1.82, 7.82 2.03, 7.94 2.26 C8.07 2.49, 8.17 2.73, 8.26 2.98 C8.34 3.22, 8.4 3.48, 8.45 3.74 C8.49 3.99, 8.5 4.39, 8.51 4.52 C8.52 4.65, 8.52 4.39, 8.51 4.52" stroke="#1e1e1e" stroke-width="1" fill="none"></path></g><g stroke-linecap="round" transform="translate(116.8864331184102 43.82880436385881) rotate(44.99999999999995 4.256037428575212 4.522039767861202)"><path d="M8.51 4.52 C8.51 4.78, 8.49 5.05, 8.45 5.31 C8.4 5.57, 8.34 5.82, 8.26 6.07 C8.17 6.31, 8.07 6.56, 7.94 6.78 C7.82 7.01, 7.67 7.23, 7.52 7.43 C7.36 7.63, 7.18 7.82, 6.99 7.99 C6.8 8.15, 6.6 8.31, 6.38 8.44 C6.17 8.57, 5.94 8.68, 5.71 8.77 C5.48 8.86, 5.24 8.93, 5 8.98 C4.75 9.02, 4.5 9.04, 4.26 9.04 C4.01 9.04, 3.76 9.02, 3.52 8.98 C3.27 8.93, 3.03 8.86, 2.8 8.77 C2.57 8.68, 2.34 8.57, 2.13 8.44 C1.91 8.31, 1.71 8.15, 1.52 7.99 C1.33 7.82, 1.15 7.63, 1 7.43 C0.84 7.23, 0.69 7.01, 0.57 6.78 C0.45 6.56, 0.34 6.31, 0.26 6.07 C0.17 5.82, 0.11 5.57, 0.06 5.31 C0.02 5.05, 0 4.78, 0 4.52 C0 4.26, 0.02 3.99, 0.06 3.74 C0.11 3.48, 0.17 3.22, 0.26 2.98 C0.34 2.73, 0.45 2.49, 0.57 2.26 C0.69 2.03, 0.84 1.82, 1 1.62 C1.15 1.41, 1.33 1.23, 1.52 1.06 C1.71 0.89, 1.91 0.74, 2.13 0.61 C2.34 0.47, 2.57 0.36, 2.8 0.27 C3.03 0.18, 3.27 0.11, 3.52 0.07 C3.76 0.02, 4.01 0, 4.26 0 C4.5 0, 4.75 0.02, 5 0.07 C5.24 0.11, 5.48 0.18, 5.71 0.27 C5.94 0.36, 6.17 0.47, 6.38 0.61 C6.6 0.74, 6.8 0.89, 6.99 1.06 C7.18 1.23, 7.36 1.41, 7.52 1.62 C7.67 1.82, 7.82 2.03, 7.94 2.26 C8.07 2.49, 8.17 2.73, 8.26 2.98 C8.34 3.22, 8.4 3.48, 8.45 3.74 C8.49 3.99, 8.5 4.39, 8.51 4.52 C8.52 4.65, 8.52 4.39, 8.51 4.52" stroke="none" stroke-width="0" fill="#ffec99"></path><path d="M8.51 4.52 C8.51 4.78, 8.49 5.05, 8.45 5.31 C8.4 5.57, 8.34 5.82, 8.26 6.07 C8.17 6.31, 8.07 6.56, 7.94 6.78 C7.82 7.01, 7.67 7.23, 7.52 7.43 C7.36 7.63, 7.18 7.82, 6.99 7.99 C6.8 8.15, 6.6 8.31, 6.38 8.44 C6.17 8.57, 5.94 8.68, 5.71 8.77 C5.48 8.86, 5.24 8.93, 5 8.98 C4.75 9.02, 4.5 9.04, 4.26 9.04 C4.01 9.04, 3.76 9.02, 3.52 8.98 C3.27 8.93, 3.03 8.86, 2.8 8.77 C2.57 8.68, 2.34 8.57, 2.13 8.44 C1.91 8.31, 1.71 8.15, 1.52 7.99 C1.33 7.82, 1.15 7.63, 1 7.43 C0.84 7.23, 0.69 7.01, 0.57 6.78 C0.45 6.56, 0.34 6.31, 0.26 6.07 C0.17 5.82, 0.11 5.57, 0.06 5.31 C0.02 5.05, 0 4.78, 0 4.52 C0 4.26, 0.02 3.99, 0.06 3.74 C0.11 3.48, 0.17 3.22, 0.26 2.98 C0.34 2.73, 0.45 2.49, 0.57 2.26 C0.69 2.03, 0.84 1.82, 1 1.62 C1.15 1.41, 1.33 1.23, 1.52 1.06 C1.71 0.89, 1.91 0.74, 2.13 0.61 C2.34 0.47, 2.57 0.36, 2.8 0.27 C3.03 0.18, 3.27 0.11, 3.52 0.07 C3.76 0.02, 4.01 0, 4.26 0 C4.5 0, 4.75 0.02, 5 0.07 C5.24 0.11, 5.48 0.18, 5.71 0.27 C5.94 0.36, 6.17 0.47, 6.38 0.61 C6.6 0.74, 6.8 0.89, 6.99 1.06 C7.18 1.23, 7.36 1.41, 7.52 1.62 C7.67 1.82, 7.82 2.03, 7.94 2.26 C8.07 2.49, 8.17 2.73, 8.26 2.98 C8.34 3.22, 8.4 3.48, 8.45 3.74 C8.49 3.99, 8.5 4.39, 8.51 4.52 C8.52 4.65, 8.52 4.39, 8.51 4.52" stroke="#1e1e1e" stroke-width="1" fill="none"></path></g><g stroke-linecap="round" transform="translate(44.094806703144855 116.62043077912426) rotate(44.99999999999995 4.256037428575212 4.522039767861202)"><path d="M8.51 4.52 C8.51 4.78, 8.49 5.05, 8.45 5.31 C8.4 5.57, 8.34 5.82, 8.26 6.07 C8.17 6.31, 8.07 6.56, 7.94 6.78 C7.82 7.01, 7.67 7.23, 7.52 7.43 C7.36 7.63, 7.18 7.82, 6.99 7.99 C6.8 8.15, 6.6 8.31, 6.38 8.44 C6.17 8.57, 5.94 8.68, 5.71 8.77 C5.48 8.86, 5.24 8.93, 5 8.98 C4.75 9.02, 4.5 9.04, 4.26 9.04 C4.01 9.04, 3.76 9.02, 3.52 8.98 C3.27 8.93, 3.03 8.86, 2.8 8.77 C2.57 8.68, 2.34 8.57, 2.13 8.44 C1.91 8.31, 1.71 8.15, 1.52 7.99 C1.33 7.82, 1.15 7.63, 1 7.43 C0.84 7.23, 0.69 7.01, 0.57 6.78 C0.45 6.56, 0.34 6.31, 0.26 6.07 C0.17 5.82, 0.11 5.57, 0.06 5.31 C0.02 5.05, 0 4.78, 0 4.52 C0 4.26, 0.02 3.99, 0.06 3.74 C0.11 3.48, 0.17 3.22, 0.26 2.98 C0.34 2.73, 0.45 2.49, 0.57 2.26 C0.69 2.03, 0.84 1.82, 1 1.62 C1.15 1.41, 1.33 1.23, 1.52 1.06 C1.71 0.89, 1.91 0.74, 2.13 0.61 C2.34 0.47, 2.57 0.36, 2.8 0.27 C3.03 0.18, 3.27 0.11, 3.52 0.07 C3.76 0.02, 4.01 0, 4.26 0 C4.5 0, 4.75 0.02, 5 0.07 C5.24 0.11, 5.48 0.18, 5.71 0.27 C5.94 0.36, 6.17 0.47, 6.38 0.61 C6.6 0.74, 6.8 0.89, 6.99 1.06 C7.18 1.23, 7.36 1.41, 7.52 1.62 C7.67 1.82, 7.82 2.03, 7.94 2.26 C8.07 2.49, 8.17 2.73, 8.26 2.98 C8.34 3.22, 8.4 3.48, 8.45 3.74 C8.49 3.99, 8.5 4.39, 8.51 4.52 C8.52 4.65, 8.52 4.39, 8.51 4.52" stroke="none" stroke-width="0" fill="#ffec99"></path><path d="M8.51 4.52 C8.51 4.78, 8.49 5.05, 8.45 5.31 C8.4 5.57, 8.34 5.82, 8.26 6.07 C8.17 6.31, 8.07 6.56, 7.94 6.78 C7.82 7.01, 7.67 7.23, 7.52 7.43 C7.36 7.63, 7.18 7.82, 6.99 7.99 C6.8 8.15, 6.6 8.31, 6.38 8.44 C6.17 8.57, 5.94 8.68, 5.71 8.77 C5.48 8.86, 5.24 8.93, 5 8.98 C4.75 9.02, 4.5 9.04, 4.26 9.04 C4.01 9.04, 3.76 9.02, 3.52 8.98 C3.27 8.93, 3.03 8.86, 2.8 8.77 C2.57 8.68, 2.34 8.57, 2.13 8.44 C1.91 8.31, 1.71 8.15, 1.52 7.99 C1.33 7.82, 1.15 7.63, 1 7.43 C0.84 7.23, 0.69 7.01, 0.57 6.78 C0.45 6.56, 0.34 6.31, 0.26 6.07 C0.17 5.82, 0.11 5.57, 0.06 5.31 C0.02 5.05, 0 4.78, 0 4.52 C0 4.26, 0.02 3.99, 0.06 3.74 C0.11 3.48, 0.17 3.22, 0.26 2.98 C0.34 2.73, 0.45 2.49, 0.57 2.26 C0.69 2.03, 0.84 1.82, 1 1.62 C1.15 1.41, 1.33 1.23, 1.52 1.06 C1.71 0.89, 1.91 0.74, 2.13 0.61 C2.34 0.47, 2.57 0.36, 2.8 0.27 C3.03 0.18, 3.27 0.11, 3.52 0.07 C3.76 0.02, 4.01 0, 4.26 0 C4.5 0, 4.75 0.02, 5 0.07 C5.24 0.11, 5.48 0.18, 5.71 0.27 C5.94 0.36, 6.17 0.47, 6.38 0.61 C6.6 0.74, 6.8 0.89, 6.99 1.06 C7.18 1.23, 7.36 1.41, 7.52 1.62 C7.67 1.82, 7.82 2.03, 7.94 2.26 C8.07 2.49, 8.17 2.73, 8.26 2.98 C8.34 3.22, 8.4 3.48, 8.45 3.74 C8.49 3.99, 8.5 4.39, 8.51 4.52 C8.52 4.65, 8.52 4.39, 8.51 4.52" stroke="#1e1e1e" stroke-width="1" fill="none"></path></g><g stroke-linecap="round" transform="translate(116.60429503152977 116.33829269224327) rotate(44.99999999999995 4.256037428575212 4.522039767861202)"><path d="M8.51 4.52 C8.51 4.78, 8.49 5.05, 8.45 5.31 C8.4 5.57, 8.34 5.82, 8.26 6.07 C8.17 6.31, 8.07 6.56, 7.94 6.78 C7.82 7.01, 7.67 7.23, 7.52 7.43 C7.36 7.63, 7.18 7.82, 6.99 7.99 C6.8 8.15, 6.6 8.31, 6.38 8.44 C6.17 8.57, 5.94 8.68, 5.71 8.77 C5.48 8.86, 5.24 8.93, 5 8.98 C4.75 9.02, 4.5 9.04, 4.26 9.04 C4.01 9.04, 3.76 9.02, 3.52 8.98 C3.27 8.93, 3.03 8.86, 2.8 8.77 C2.57 8.68, 2.34 8.57, 2.13 8.44 C1.91 8.31, 1.71 8.15, 1.52 7.99 C1.33 7.82, 1.15 7.63, 1 7.43 C0.84 7.23, 0.69 7.01, 0.57 6.78 C0.45 6.56, 0.34 6.31, 0.26 6.07 C0.17 5.82, 0.11 5.57, 0.06 5.31 C0.02 5.05, 0 4.78, 0 4.52 C0 4.26, 0.02 3.99, 0.06 3.74 C0.11 3.48, 0.17 3.22, 0.26 2.98 C0.34 2.73, 0.45 2.49, 0.57 2.26 C0.69 2.03, 0.84 1.82, 1 1.62 C1.15 1.41, 1.33 1.23, 1.52 1.06 C1.71 0.89, 1.91 0.74, 2.13 0.61 C2.34 0.47, 2.57 0.36, 2.8 0.27 C3.03 0.18, 3.27 0.11, 3.52 0.07 C3.76 0.02, 4.01 0, 4.26 0 C4.5 0, 4.75 0.02, 5 0.07 C5.24 0.11, 5.48 0.18, 5.71 0.27 C5.94 0.36, 6.17 0.47, 6.38 0.61 C6.6 0.74, 6.8 0.89, 6.99 1.06 C7.18 1.23, 7.36 1.41, 7.52 1.62 C7.67 1.82, 7.82 2.03, 7.94 2.26 C8.07 2.49, 8.17 2.73, 8.26 2.98 C8.34 3.22, 8.4 3.48, 8.45 3.74 C8.49 3.99, 8.5 4.39, 8.51 4.52 C8.52 4.65, 8.52 4.39, 8.51 4.52" stroke="none" stroke-width="0" fill="#ffec99"></path><path d="M8.51 4.52 C8.51 4.78, 8.49 5.05, 8.45 5.31 C8.4 5.57, 8.34 5.82, 8.26 6.07 C8.17 6.31, 8.07 6.56, 7.94 6.78 C7.82 7.01, 7.67 7.23, 7.52 7.43 C7.36 7.63, 7.18 7.82, 6.99 7.99 C6.8 8.15, 6.6 8.31, 6.38 8.44 C6.17 8.57, 5.94 8.68, 5.71 8.77 C5.48 8.86, 5.24 8.93, 5 8.98 C4.75 9.02, 4.5 9.04, 4.26 9.04 C4.01 9.04, 3.76 9.02, 3.52 8.98 C3.27 8.93, 3.03 8.86, 2.8 8.77 C2.57 8.68, 2.34 8.57, 2.13 8.44 C1.91 8.31, 1.71 8.15, 1.52 7.99 C1.33 7.82, 1.15 7.63, 1 7.43 C0.84 7.23, 0.69 7.01, 0.57 6.78 C0.45 6.56, 0.34 6.31, 0.26 6.07 C0.17 5.82, 0.11 5.57, 0.06 5.31 C0.02 5.05, 0 4.78, 0 4.52 C0 4.26, 0.02 3.99, 0.06 3.74 C0.11 3.48, 0.17 3.22, 0.26 2.98 C0.34 2.73, 0.45 2.49, 0.57 2.26 C0.69 2.03, 0.84 1.82, 1 1.62 C1.15 1.41, 1.33 1.23, 1.52 1.06 C1.71 0.89, 1.91 0.74, 2.13 0.61 C2.34 0.47, 2.57 0.36, 2.8 0.27 C3.03 0.18, 3.27 0.11, 3.52 0.07 C3.76 0.02, 4.01 0, 4.26 0 C4.5 0, 4.75 0.02, 5 0.07 C5.24 0.11, 5.48 0.18, 5.71 0.27 C5.94 0.36, 6.17 0.47, 6.38 0.61 C6.6 0.74, 6.8 0.89, 6.99 1.06 C7.18 1.23, 7.36 1.41, 7.52 1.62 C7.67 1.82, 7.82 2.03, 7.94 2.26 C8.07 2.49, 8.17 2.73, 8.26 2.98 C8.34 3.22, 8.4 3.48, 8.45 3.74 C8.49 3.99, 8.5 4.39, 8.51 4.52 C8.52 4.65, 8.52 4.39, 8.51 4.52" stroke="#1e1e1e" stroke-width="1" fill="none"></path></g><g stroke-linecap="round" transform="translate(44.376944790025505 44.1109424507398) rotate(44.99999999999995 4.256037428575212 4.522039767861202)"><path d="M8.51 4.52 C8.51 4.78, 8.49 5.05, 8.45 5.31 C8.4 5.57, 8.34 5.82, 8.26 6.07 C8.17 6.31, 8.07 6.56, 7.94 6.78 C7.82 7.01, 7.67 7.23, 7.52 7.43 C7.36 7.63, 7.18 7.82, 6.99 7.99 C6.8 8.15, 6.6 8.31, 6.38 8.44 C6.17 8.57, 5.94 8.68, 5.71 8.77 C5.48 8.86, 5.24 8.93, 5 8.98 C4.75 9.02, 4.5 9.04, 4.26 9.04 C4.01 9.04, 3.76 9.02, 3.52 8.98 C3.27 8.93, 3.03 8.86, 2.8 8.77 C2.57 8.68, 2.34 8.57, 2.13 8.44 C1.91 8.31, 1.71 8.15, 1.52 7.99 C1.33 7.82, 1.15 7.63, 1 7.43 C0.84 7.23, 0.69 7.01, 0.57 6.78 C0.45 6.56, 0.34 6.31, 0.26 6.07 C0.17 5.82, 0.11 5.57, 0.06 5.31 C0.02 5.05, 0 4.78, 0 4.52 C0 4.26, 0.02 3.99, 0.06 3.74 C0.11 3.48, 0.17 3.22, 0.26 2.98 C0.34 2.73, 0.45 2.49, 0.57 2.26 C0.69 2.03, 0.84 1.82, 1 1.62 C1.15 1.41, 1.33 1.23, 1.52 1.06 C1.71 0.89, 1.91 0.74, 2.13 0.61 C2.34 0.47, 2.57 0.36, 2.8 0.27 C3.03 0.18, 3.27 0.11, 3.52 0.07 C3.76 0.02, 4.01 0, 4.26 0 C4.5 0, 4.75 0.02, 5 0.07 C5.24 0.11, 5.48 0.18, 5.71 0.27 C5.94 0.36, 6.17 0.47, 6.38 0.61 C6.6 0.74, 6.8 0.89, 6.99 1.06 C7.18 1.23, 7.36 1.41, 7.52 1.62 C7.67 1.82, 7.82 2.03, 7.94 2.26 C8.07 2.49, 8.17 2.73, 8.26 2.98 C8.34 3.22, 8.4 3.48, 8.45 3.74 C8.49 3.99, 8.5 4.39, 8.51 4.52 C8.52 4.65, 8.52 4.39, 8.51 4.52" stroke="none" stroke-width="0" fill="#ffec99"></path><path d="M8.51 4.52 C8.51 4.78, 8.49 5.05, 8.45 5.31 C8.4 5.57, 8.34 5.82, 8.26 6.07 C8.17 6.31, 8.07 6.56, 7.94 6.78 C7.82 7.01, 7.67 7.23, 7.52 7.43 C7.36 7.63, 7.18 7.82, 6.99 7.99 C6.8 8.15, 6.6 8.31, 6.38 8.44 C6.17 8.57, 5.94 8.68, 5.71 8.77 C5.48 8.86, 5.24 8.93, 5 8.98 C4.75 9.02, 4.5 9.04, 4.26 9.04 C4.01 9.04, 3.76 9.02, 3.52 8.98 C3.27 8.93, 3.03 8.86, 2.8 8.77 C2.57 8.68, 2.34 8.57, 2.13 8.44 C1.91 8.31, 1.71 8.15, 1.52 7.99 C1.33 7.82, 1.15 7.63, 1 7.43 C0.84 7.23, 0.69 7.01, 0.57 6.78 C0.45 6.56, 0.34 6.31, 0.26 6.07 C0.17 5.82, 0.11 5.57, 0.06 5.31 C0.02 5.05, 0 4.78, 0 4.52 C0 4.26, 0.02 3.99, 0.06 3.74 C0.11 3.48, 0.17 3.22, 0.26 2.98 C0.34 2.73, 0.45 2.49, 0.57 2.26 C0.69 2.03, 0.84 1.82, 1 1.62 C1.15 1.41, 1.33 1.23, 1.52 1.06 C1.71 0.89, 1.91 0.74, 2.13 0.61 C2.34 0.47, 2.57 0.36, 2.8 0.27 C3.03 0.18, 3.27 0.11, 3.52 0.07 C3.76 0.02, 4.01 0, 4.26 0 C4.5 0, 4.75 0.02, 5 0.07 C5.24 0.11, 5.48 0.18, 5.71 0.27 C5.94 0.36, 6.17 0.47, 6.38 0.61 C6.6 0.74, 6.8 0.89, 6.99 1.06 C7.18 1.23, 7.36 1.41, 7.52 1.62 C7.67 1.82, 7.82 2.03, 7.94 2.26 C8.07 2.49, 8.17 2.73, 8.26 2.98 C8.34 3.22, 8.4 3.48, 8.45 3.74 C8.49 3.99, 8.5 4.39, 8.51 4.52 C8.52 4.65, 8.52 4.39, 8.51 4.52" stroke="#1e1e1e" stroke-width="1" fill="none"></path></g></svg>