<svg version="1.1" xmlns="http://www.w3.org/2000/svg" viewBox="0 0 116 116" width="116" height="116">
  <!-- svg-source:excalidraw -->
  
  <defs>
    <style class="style-fonts">
      @font-face {
        font-family: "Virgil";
        src: url("https://excalidraw.com/Virgil.woff2");
      }
      @font-face {
        font-family: "Cascadia";
        src: url("https://excalidraw.com/Cascadia.woff2");
      }
    </style>
    
  </defs>
  <g stroke-linecap="round" transform="translate(10 10) rotate(0 48 48)"><path d="M96 48 C96 50.09, 95.86 52.19, 95.59 54.27 C95.32 56.34, 94.9 58.41, 94.36 60.42 C93.82 62.44, 93.15 64.44, 92.35 66.37 C91.55 68.3, 90.61 70.19, 89.57 72 C88.53 73.81, 87.35 75.56, 86.08 77.22 C84.81 78.88, 83.42 80.46, 81.94 81.94 C80.46 83.42, 78.88 84.81, 77.22 86.08 C75.56 87.35, 73.81 88.53, 72 89.57 C70.19 90.61, 68.3 91.55, 66.37 92.35 C64.44 93.15, 62.44 93.82, 60.42 94.36 C58.41 94.9, 56.34 95.32, 54.27 95.59 C52.19 95.86, 50.09 96, 48 96 C45.91 96, 43.81 95.86, 41.73 95.59 C39.66 95.32, 37.59 94.9, 35.58 94.36 C33.56 93.82, 31.56 93.15, 29.63 92.35 C27.7 91.55, 25.81 90.61, 24 89.57 C22.19 88.53, 20.44 87.35, 18.78 86.08 C17.12 84.81, 15.54 83.42, 14.06 81.94 C12.58 80.46, 11.19 78.88, 9.92 77.22 C8.65 75.56, 7.47 73.81, 6.43 72 C5.39 70.19, 4.45 68.3, 3.65 66.37 C2.85 64.44, 2.18 62.44, 1.64 60.42 C1.1 58.41, 0.68 56.34, 0.41 54.27 C0.14 52.19, 0 50.09, 0 48 C0 45.91, 0.14 43.81, 0.41 41.73 C0.68 39.66, 1.1 37.59, 1.64 35.58 C2.18 33.56, 2.85 31.56, 3.65 29.63 C4.45 27.7, 5.39 25.81, 6.43 24 C7.47 22.19, 8.65 20.44, 9.92 18.78 C11.19 17.12, 12.58 15.54, 14.06 14.06 C15.54 12.58, 17.12 11.19, 18.78 9.92 C20.44 8.65, 22.19 7.47, 24 6.43 C25.81 5.39, 27.7 4.45, 29.63 3.65 C31.56 2.85, 33.56 2.18, 35.58 1.64 C37.59 1.1, 39.66 0.68, 41.73 0.41 C43.81 0.14, 45.91 0, 48 0 C50.09 0, 52.19 0.14, 54.27 0.41 C56.34 0.68, 58.41 1.1, 60.42 1.64 C62.44 2.18, 64.44 2.85, 66.37 3.65 C68.3 4.45, 70.19 5.39, 72 6.43 C73.81 7.47, 75.56 8.65, 77.22 9.92 C78.88 11.19, 80.46 12.58, 81.94 14.06 C83.42 15.54, 84.81 17.12, 86.08 18.78 C87.35 20.44, 88.53 22.19, 89.57 24 C90.61 25.81, 91.55 27.7, 92.35 29.63 C93.15 31.56, 93.82 33.56, 94.36 35.58 C94.9 37.59, 95.32 39.66, 95.59 41.73 C95.86 43.81, 95.93 46.96, 96 48 C96.07 49.04, 96.07 46.96, 96 48" stroke="none" stroke-width="0" fill="#ffffff"></path><path d="M96 48 C96 50.09, 95.86 52.19, 95.59 54.27 C95.32 56.34, 94.9 58.41, 94.36 60.42 C93.82 62.44, 93.15 64.44, 92.35 66.37 C91.55 68.3, 90.61 70.19, 89.57 72 C88.53 73.81, 87.35 75.56, 86.08 77.22 C84.81 78.88, 83.42 80.46, 81.94 81.94 C80.46 83.42, 78.88 84.81, 77.22 86.08 C75.56 87.35, 73.81 88.53, 72 89.57 C70.19 90.61, 68.3 91.55, 66.37 92.35 C64.44 93.15, 62.44 93.82, 60.42 94.36 C58.41 94.9, 56.34 95.32, 54.27 95.59 C52.19 95.86, 50.09 96, 48 96 C45.91 96, 43.81 95.86, 41.73 95.59 C39.66 95.32, 37.59 94.9, 35.58 94.36 C33.56 93.82, 31.56 93.15, 29.63 92.35 C27.7 91.55, 25.81 90.61, 24 89.57 C22.19 88.53, 20.44 87.35, 18.78 86.08 C17.12 84.81, 15.54 83.42, 14.06 81.94 C12.58 80.46, 11.19 78.88, 9.92 77.22 C8.65 75.56, 7.47 73.81, 6.43 72 C5.39 70.19, 4.45 68.3, 3.65 66.37 C2.85 64.44, 2.18 62.44, 1.64 60.42 C1.1 58.41, 0.68 56.34, 0.41 54.27 C0.14 52.19, 0 50.09, 0 48 C0 45.91, 0.14 43.81, 0.41 41.73 C0.68 39.66, 1.1 37.59, 1.64 35.58 C2.18 33.56, 2.85 31.56, 3.65 29.63 C4.45 27.7, 5.39 25.81, 6.43 24 C7.47 22.19, 8.65 20.44, 9.92 18.78 C11.19 17.12, 12.58 15.54, 14.06 14.06 C15.54 12.58, 17.12 11.19, 18.78 9.92 C20.44 8.65, 22.19 7.47, 24 6.43 C25.81 5.39, 27.7 4.45, 29.63 3.65 C31.56 2.85, 33.56 2.18, 35.58 1.64 C37.59 1.1, 39.66 0.68, 41.73 0.41 C43.81 0.14, 45.91 0, 48 0 C50.09 0, 52.19 0.14, 54.27 0.41 C56.34 0.68, 58.41 1.1, 60.42 1.64 C62.44 2.18, 64.44 2.85, 66.37 3.65 C68.3 4.45, 70.19 5.39, 72 6.43 C73.81 7.47, 75.56 8.65, 77.22 9.92 C78.88 11.19, 80.46 12.58, 81.94 14.06 C83.42 15.54, 84.81 17.12, 86.08 18.78 C87.35 20.44, 88.53 22.19, 89.57 24 C90.61 25.81, 91.55 27.7, 92.35 29.63 C93.15 31.56, 93.82 33.56, 94.36 35.58 C94.9 37.59, 95.32 39.66, 95.59 41.73 C95.86 43.81, 95.93 46.96, 96 48 C96.07 49.04, 96.07 46.96, 96 48" stroke="#ffffff" stroke-width="1" fill="none"></path></g></svg>